{"glyphs":{"0":{"ha":883,"x_min":56,"x_max":828,"o":"m 418 -19 q 217 36 297 -19 q 96 196 136 92 q 56 449 56 301 q 106 745 56 624 q 248 929 157 866 q 458 992 338 992 q 655 944 572 992 q 783 798 738 897 q 828 540 828 698 q 778 234 828 358 q 636 45 728 109 q 418 -19 544 -19 m 428 194 q 478 252 455 219 q 517 322 501 286 q 635 260 601 266 q 683 283 669 254 q 689 317 692 300 q 654 358 685 335 q 553 414 624 381 q 567 460 561 438 q 578 503 573 481 q 682 485 647 489 q 730 490 717 482 q 746 519 742 499 q 740 555 749 541 q 696 576 730 568 q 593 592 663 585 q 595 738 601 666 q 549 854 590 810 q 529 871 540 864 q 508 882 519 878 q 487 891 498 888 q 464 894 476 894 q 439 896 456 896 q 419 894 423 896 q 398 892 408 894 q 376 886 387 890 q 356 879 366 883 q 336 868 346 874 q 255 794 290 842 q 197 681 219 745 q 190 656 193 668 q 183 629 187 643 q 175 590 179 610 q 169 549 172 569 q 168 521 169 535 q 165 492 167 506 q 165 470 165 481 q 165 447 165 459 q 166 417 165 432 q 168 389 167 403 q 190 260 174 314 q 236 178 207 207 q 254 163 244 169 q 274 153 263 157 q 291 148 282 150 q 310 146 301 146 q 332 148 317 146 q 354 151 347 149 q 373 158 364 153 q 390 167 382 162 q 410 179 401 172 q 428 194 419 186 m 381 419 q 326 448 347 419 q 306 513 306 477 q 330 568 306 547 q 388 589 353 589 q 449 567 423 589 q 475 510 475 544 q 448 447 475 474 q 381 419 420 419 m 215 944 q 270 872 247 903 q 319 804 294 842 q 359 727 356 752 q 340 688 361 702 q 292 686 321 673 q 226 744 263 700 q 175 810 199 779 q 122 883 151 842 q 87 958 89 931 q 107 1000 85 985 q 154 1003 128 1015 q 215 944 180 992 m 126 260 q 151 284 139 272 q 175 308 163 297 q 196 329 186 319 q 256 370 235 365 q 296 356 277 376 q 307 315 314 338 q 268 260 299 292 q 235 226 253 244 q 196 189 216 208 q 152 163 173 167 q 114 175 131 158 q 101 218 94 196 q 126 260 107 241 z "},"1":{"ha":657,"x_min":28,"x_max":631,"o":"m 425 908 q 426 738 425 823 q 426 568 426 653 q 426 552 426 560 q 426 536 426 544 q 426 521 426 528 q 426 495 426 508 q 426 468 426 482 q 426 443 426 456 q 426 418 426 431 q 426 390 426 403 q 426 361 426 376 q 426 343 426 352 q 426 326 426 335 q 426 308 426 317 q 441 269 426 281 q 479 255 456 258 q 528 249 502 252 q 578 235 555 246 q 616 197 601 224 q 631 118 631 170 q 603 34 631 69 q 521 -6 575 -1 q 494 -7 508 -6 q 468 -8 481 -8 q 475 94 484 67 q 442 121 467 121 q 414 111 426 121 q 393 74 402 102 q 381 -12 385 45 q 342 -15 361 -14 q 304 -17 324 -16 q 281 123 293 88 q 243 158 268 158 q 202 118 205 158 q 224 -21 199 77 q 193 -23 208 -22 q 163 -25 178 -24 q 62 8 97 -28 q 28 103 28 44 q 48 184 28 156 q 99 225 67 212 q 165 242 130 238 q 232 252 201 247 q 283 270 263 257 q 303 313 303 283 q 303 411 303 362 q 304 508 303 460 q 305 537 305 524 q 305 560 305 549 q 305 581 305 571 q 306 601 306 590 q 307 647 306 622 q 308 696 307 672 q 308 716 308 706 q 308 735 308 726 q 308 759 308 747 q 308 782 308 771 q 296 836 309 823 q 257 844 283 849 q 196 822 232 838 q 123 800 153 804 q 76 810 92 797 q 60 856 60 823 q 71 892 60 874 q 106 919 82 910 q 216 961 174 945 q 283 985 258 977 q 324 997 308 994 q 354 1001 340 1001 q 408 978 391 1001 q 425 908 425 954 m 146 315 q 94 336 114 315 q 74 383 74 358 q 95 447 74 421 q 146 472 116 472 q 197 448 176 472 q 218 393 218 424 q 198 338 218 361 q 146 315 178 315 m 367 678 l 375 572 q 250 566 294 566 q 189 576 206 567 q 171 607 172 585 q 185 641 169 627 q 243 663 201 654 q 367 678 286 672 m 357 932 q 357 932 357 932 q 357 932 357 932 q 357 932 357 932 q 357 932 357 932 q 357 932 357 932 q 357 932 357 932 q 357 932 357 932 q 357 932 357 932 m 382 699 l 369 799 q 404 786 395 801 q 413 742 413 772 q 406 711 413 722 q 382 699 398 701 m 150 167 q 150 167 150 167 q 150 167 150 167 q 150 167 150 167 q 150 167 150 167 q 150 167 150 167 q 150 167 150 167 q 150 167 150 167 q 150 167 150 167 z "},"2":{"ha":711,"x_min":35,"x_max":669,"o":"m 547 717 q 525 806 547 763 q 459 876 503 849 q 344 904 414 904 q 219 864 265 904 q 174 760 174 824 q 202 676 174 710 q 289 642 231 642 q 334 653 315 642 q 353 688 353 665 q 339 721 353 714 q 306 729 325 728 q 274 739 288 731 q 260 775 260 747 q 277 813 260 797 q 328 829 294 829 q 418 795 379 829 q 457 697 457 762 q 406 588 457 631 q 274 544 355 544 q 119 604 169 544 q 69 751 69 664 q 104 880 69 824 q 204 969 139 937 q 360 1001 269 1001 q 529 962 462 1001 q 629 860 596 923 q 663 729 663 798 q 635 593 663 652 q 564 490 608 534 q 466 413 519 444 q 364 359 414 381 q 273 317 313 336 q 210 275 232 297 q 201 258 201 267 q 225 240 203 239 q 292 249 247 242 q 301 128 288 157 q 339 99 315 99 q 364 111 353 99 q 378 160 374 124 q 378 264 383 195 q 417 270 398 267 q 456 276 436 274 q 469 135 459 172 q 508 99 478 99 q 549 141 543 99 q 536 290 554 184 q 608 278 578 297 q 653 224 638 260 q 669 144 669 188 q 629 24 669 64 q 604 4 618 13 q 573 -10 590 -5 q 536 -18 556 -15 q 494 -21 516 -21 q 362 -19 425 -21 q 245 -10 299 -17 q 149 13 192 -3 q 79 56 107 28 q 46 109 58 78 q 35 181 35 140 q 50 257 35 222 q 93 318 66 291 q 178 380 128 353 q 281 429 227 406 q 387 481 335 453 q 478 549 438 509 q 529 622 510 581 q 547 717 547 663 m 569 871 l 490 942 q 563 1013 535 990 q 606 1038 590 1035 q 638 1028 623 1041 q 645 976 658 1009 q 569 871 633 944 m 414 968 l 308 975 q 323 1085 315 1047 q 344 1136 331 1123 q 379 1149 357 1150 q 418 1110 410 1147 q 414 968 426 1074 m 238 950 l 161 890 q 94 992 108 958 q 103 1044 80 1026 q 161 1039 130 1065 q 238 950 193 1013 m 433 35 q 426 38 427 35 q 425 46 425 41 q 425 51 425 49 q 425 54 425 52 q 427 54 425 54 q 435 54 430 54 q 440 54 438 54 q 442 54 442 54 q 442 51 442 52 q 442 47 442 49 q 440 38 442 41 q 433 35 439 35 m 331 7 q 310 15 318 7 q 299 36 303 23 q 296 63 296 49 l 361 58 q 352 19 361 31 q 331 7 343 7 m 528 -4 q 493 9 506 -4 q 479 43 479 22 l 571 44 q 565 16 571 26 q 549 0 559 5 q 528 -4 540 -4 m 246 926 q 246 926 246 926 q 246 926 246 926 q 246 926 246 926 q 246 926 246 926 q 246 926 246 926 q 246 926 246 926 q 246 926 246 926 q 246 926 246 926 m 400 938 q 400 938 400 938 q 400 938 400 938 q 400 938 400 938 q 400 938 400 938 q 400 938 400 938 q 400 938 400 938 q 400 938 400 938 q 400 938 400 938 m 535 861 q 535 861 535 861 q 535 861 535 861 q 535 861 535 861 q 535 861 535 861 q 535 861 535 861 q 535 861 535 861 q 535 861 535 861 q 535 861 535 861 z "},"3":{"ha":679,"x_min":36,"x_max":652,"o":"m 319 -17 q 175 1 240 -17 q 74 56 111 19 q 36 151 36 93 q 74 248 36 213 q 164 282 112 282 q 197 279 181 282 q 228 271 213 276 q 260 260 244 266 q 292 249 276 254 q 341 234 315 240 q 394 228 367 228 q 452 245 433 228 q 471 292 471 263 q 441 346 471 324 q 362 383 411 367 q 256 413 313 398 q 204 440 220 422 q 188 481 188 458 q 202 527 188 506 q 241 570 216 548 q 296 619 265 592 q 353 670 331 650 q 375 703 375 690 q 368 715 375 710 q 347 721 362 720 q 245 729 297 725 q 142 738 193 733 q 86 759 108 741 q 54 803 65 776 q 44 860 44 830 q 63 940 44 902 q 118 998 82 978 q 207 1008 155 1019 q 229 1003 218 1006 q 251 997 240 1001 q 212 858 210 897 q 242 813 214 819 q 293 839 274 806 q 336 975 311 872 q 376 965 356 970 q 417 953 397 959 q 399 871 401 901 q 406 827 397 841 q 428 811 414 813 q 457 818 444 809 q 480 854 469 827 q 500 932 490 881 q 533 925 516 928 q 565 917 549 921 q 631 881 609 906 q 652 826 652 857 q 633 765 652 796 q 578 707 615 733 q 465 627 522 667 q 351 546 408 587 q 334 531 340 538 q 328 515 328 524 q 350 495 328 503 q 408 478 372 487 q 483 457 443 470 q 558 419 522 443 q 615 358 593 396 q 638 261 638 319 q 597 111 638 174 q 485 16 557 49 q 319 -17 414 -17 m 176 89 q 216 104 201 89 q 232 143 232 119 q 218 185 232 167 q 181 203 205 203 q 137 186 157 203 q 117 146 117 170 q 135 106 117 122 q 176 89 153 89 m 351 54 q 387 71 376 54 q 399 111 399 88 q 385 148 399 133 q 349 163 371 163 q 310 148 324 163 q 297 111 297 133 q 313 71 297 88 q 351 54 328 54 m 267 428 q 220 449 241 428 q 199 500 199 471 q 216 536 199 523 q 258 550 233 550 q 304 539 285 550 q 324 500 324 528 q 308 447 324 467 q 267 428 293 428 z "},"4":{"ha":815,"x_min":22,"x_max":792,"o":"m 482 657 q 501 711 483 693 q 540 728 519 728 q 580 711 562 728 q 599 660 597 694 q 604 468 602 564 q 608 274 606 372 q 619 235 610 248 q 644 214 628 223 q 681 197 663 204 q 718 179 700 189 q 772 131 753 160 q 790 71 790 101 q 766 9 790 36 q 688 -17 741 -17 q 665 -16 676 -16 q 643 -15 654 -16 q 662 60 656 26 q 660 115 668 94 q 624 135 653 135 q 582 101 596 135 q 563 -17 568 67 q 521 -15 542 -16 q 479 -14 500 -15 q 467 71 475 42 q 449 110 460 100 q 424 119 438 119 q 384 80 388 119 q 392 -14 381 40 q 363 -14 378 -14 q 335 -14 349 -14 q 265 11 288 -13 q 241 70 241 36 q 267 139 241 105 q 344 194 294 174 q 385 209 365 203 q 426 224 406 216 q 470 246 459 236 q 482 288 481 256 q 482 472 483 380 q 482 657 481 565 m 182 336 q 58 368 94 342 q 22 440 22 394 q 25 469 22 453 q 35 512 28 485 q 57 586 43 539 q 180 557 146 555 q 221 583 214 560 q 202 628 228 608 q 83 675 175 649 q 95 717 90 697 q 108 760 101 738 q 205 732 171 738 q 255 733 240 726 q 274 757 269 740 q 253 806 281 785 q 133 846 225 826 q 166 935 149 899 q 208 989 184 971 q 267 1007 232 1007 q 352 973 326 1007 q 371 892 378 940 q 366 860 369 878 q 361 823 364 842 q 354 786 358 804 q 346 742 350 765 q 339 696 342 719 q 332 645 336 674 q 324 596 327 617 q 315 548 319 574 q 307 499 310 522 q 316 447 303 465 q 382 433 330 430 q 546 447 464 439 q 710 461 628 456 q 756 453 738 463 q 783 425 774 442 q 792 387 792 407 q 774 333 792 358 q 718 310 755 308 q 450 322 584 315 q 182 336 316 328 m 708 383 q 708 383 708 383 q 708 383 708 383 q 708 383 708 383 q 708 383 708 383 q 708 383 708 383 q 708 383 708 383 q 708 383 708 383 q 708 383 708 383 m 549 788 q 480 809 506 788 q 454 867 454 831 q 481 931 454 906 q 542 956 508 956 q 602 931 577 956 q 626 869 626 906 q 607 812 626 836 q 549 788 588 788 m 264 889 q 264 889 264 889 q 264 889 264 889 q 264 889 264 889 q 264 889 264 889 q 264 889 264 889 q 264 889 264 889 q 264 889 264 889 q 264 889 264 889 q 264 889 264 889 q 264 889 264 889 q 264 889 264 889 q 264 889 264 889 m 282 654 q 282 654 282 654 q 282 654 282 654 q 282 654 282 654 q 282 654 282 654 q 282 654 282 654 q 282 654 282 654 q 282 654 282 654 q 282 654 282 654 q 282 654 282 654 q 282 654 282 654 q 282 654 282 654 q 282 654 282 654 z "},"5":{"ha":703,"x_min":32,"x_max":694,"o":"m 63 526 q 74 670 67 599 q 88 814 80 742 q 106 901 94 870 q 151 946 119 932 q 247 967 183 960 q 346 976 297 972 q 444 983 396 981 q 568 952 528 989 q 608 844 608 915 q 575 734 608 776 q 482 690 542 692 q 372 691 426 690 q 263 690 318 692 q 219 673 229 690 q 214 626 209 657 q 221 586 218 601 q 227 564 224 572 q 233 551 230 556 q 240 543 236 547 q 289 528 252 531 q 376 519 326 524 q 478 498 426 514 q 568 443 529 481 q 611 381 595 417 q 628 288 628 344 q 587 137 628 198 q 478 45 547 76 q 325 14 409 14 q 227 22 278 14 q 132 45 176 30 q 60 83 88 60 q 32 135 32 106 q 45 172 32 158 q 85 186 59 186 q 128 176 108 186 q 173 152 148 165 q 236 128 199 139 q 333 118 274 118 q 468 156 429 118 q 507 256 507 194 q 463 348 507 316 q 346 391 419 380 q 182 403 272 403 q 106 416 133 403 q 69 457 79 430 q 63 526 60 485 m 443 786 q 488 803 468 786 q 507 846 507 821 q 488 886 507 869 q 444 903 469 903 q 403 887 419 903 q 388 846 388 871 q 401 803 388 821 q 443 786 415 786 m 246 776 q 283 791 267 776 q 300 828 300 806 q 286 866 300 847 q 247 885 272 885 q 211 868 226 885 q 196 829 196 852 q 208 792 196 808 q 246 776 221 776 m 161 746 q 161 746 161 746 q 161 746 161 746 q 161 746 161 746 q 161 746 161 746 q 161 746 161 746 q 161 746 161 746 q 161 746 161 746 q 161 746 161 746 m 153 649 q 179 640 172 649 q 186 611 186 632 q 177 580 186 588 q 151 572 167 572 q 147 572 149 572 q 142 572 144 572 q 138 572 140 572 q 113 582 122 572 q 103 613 103 591 q 114 642 103 635 q 140 649 125 649 q 144 649 142 649 q 149 649 147 649 q 153 649 151 649 m 118 -35 q 136 12 126 -12 q 158 64 146 36 q 183 97 168 86 q 213 106 198 107 q 239 91 228 105 q 244 51 250 76 q 231 -8 238 19 q 215 -64 225 -35 q 187 -108 205 -94 q 144 -115 169 -122 q 115 -86 122 -109 q 118 -35 108 -62 m 386 -53 q 335 84 363 12 q 285 217 308 156 q 279 274 272 254 q 301 300 286 294 q 342 298 320 308 q 381 244 363 288 q 432 114 405 183 q 485 -22 460 44 q 493 -82 499 -58 q 463 -112 487 -107 q 419 -102 440 -117 q 386 -53 399 -87 m 593 69 q 565 91 578 81 q 538 114 552 101 q 519 154 517 132 q 539 189 522 176 q 563 197 549 197 q 592 186 576 196 q 623 168 610 176 q 653 149 636 160 q 686 110 678 131 q 683 69 694 88 q 646 50 672 51 q 593 69 620 49 m 497 90 q 492 94 495 92 q 488 97 490 95 q 472 123 475 107 q 478 154 469 138 q 510 183 492 178 q 543 176 528 188 q 550 169 548 172 q 554 165 552 167 q 567 136 568 153 q 553 104 565 119 q 527 85 543 91 q 497 90 512 80 z "},"6":{"ha":749,"x_min":47,"x_max":715,"o":"m 300 226 q 306 226 303 226 q 311 226 308 226 q 321 132 313 164 q 341 90 328 100 q 369 81 353 79 q 395 94 385 82 q 406 140 405 106 q 393 239 406 174 q 425 249 409 243 q 456 261 441 255 q 510 169 486 192 q 557 154 533 146 q 578 198 578 162 q 533 310 578 234 q 573 384 568 345 q 544 450 577 423 q 435 476 512 476 q 274 462 333 476 q 189 419 215 448 q 164 347 164 390 q 197 261 164 297 q 300 226 231 226 m 371 -21 q 178 25 249 -21 q 77 150 108 71 q 47 331 47 230 q 69 488 47 409 q 143 648 91 566 q 285 821 194 731 q 404 936 352 888 q 497 1008 456 983 q 568 1033 537 1033 q 613 1019 597 1033 q 630 981 629 1004 q 614 932 631 958 q 563 884 601 913 q 476 819 525 854 q 381 748 428 784 q 304 677 335 711 q 274 618 274 644 q 298 586 274 594 q 361 577 322 578 q 447 576 400 576 q 542 567 494 575 q 628 536 589 559 q 691 467 667 513 q 715 344 715 422 q 675 152 715 234 q 557 24 634 69 q 371 -21 480 -21 m 447 1008 q 498 960 469 989 q 557 902 528 931 q 606 854 586 874 q 655 784 647 814 q 646 739 663 755 q 598 735 628 722 q 521 793 567 747 q 480 836 505 809 q 426 894 454 864 q 375 947 399 924 q 335 1006 342 981 q 342 1044 328 1031 q 382 1053 358 1060 q 447 1008 407 1046 m 307 869 q 335 839 315 861 q 379 793 356 817 q 415 756 402 769 q 464 683 460 708 q 453 646 467 658 q 414 641 438 635 q 344 692 390 648 q 305 730 328 706 q 259 775 281 753 q 225 808 237 797 q 167 886 175 856 q 179 932 160 917 q 231 933 199 948 q 307 869 263 919 m 421 806 q 400 815 408 806 q 392 836 392 824 q 401 861 392 851 q 428 871 410 871 q 448 862 438 871 q 457 843 457 853 q 447 816 457 826 q 421 806 438 806 m 363 24 q 363 29 363 26 q 363 34 363 31 q 363 39 363 36 q 377 67 363 58 q 408 76 391 76 q 443 69 427 78 q 458 43 458 60 q 458 39 458 41 q 458 34 458 36 q 458 29 458 31 q 444 -2 458 8 q 411 -14 429 -12 q 378 -5 394 -15 q 363 24 363 5 m 308 47 q 290 22 299 31 q 269 12 281 13 q 242 18 258 10 q 217 38 224 27 q 213 63 211 49 q 222 90 215 76 l 308 47 m 504 72 l 590 115 q 598 73 602 92 q 568 43 594 55 q 527 41 540 31 q 504 72 514 51 m 139 197 l 200 124 q 160 103 178 104 q 125 126 141 103 q 115 165 108 149 q 139 197 122 182 m 246 524 q 246 524 246 524 q 246 524 246 524 q 246 524 246 524 q 246 524 246 524 q 246 524 246 524 q 246 524 246 524 q 246 524 246 524 q 246 524 246 524 m 572 506 q 572 506 572 506 q 572 506 572 506 q 572 506 572 506 q 572 506 572 506 q 572 506 572 506 q 572 506 572 506 q 572 506 572 506 q 572 506 572 506 m 643 453 q 643 453 643 453 q 643 453 643 453 q 643 453 643 453 q 643 453 643 453 q 643 453 643 453 q 643 453 643 453 q 643 453 643 453 q 643 453 643 453 z "},"7":{"ha":656,"x_min":13,"x_max":642,"o":"m 319 7 q 295 -24 310 -15 q 264 -34 280 -34 q 239 -28 251 -34 q 219 -11 227 -22 q 210 14 212 -1 q 215 46 208 28 q 353 382 299 250 q 435 582 408 513 q 463 667 463 651 q 449 694 463 687 q 392 707 435 702 q 402 827 406 790 q 369 868 399 865 q 335 853 347 870 q 318 801 324 835 q 311 715 313 766 q 269 719 290 717 q 228 724 249 722 q 220 831 233 806 q 183 854 208 856 q 153 824 162 852 q 149 732 144 797 q 48 755 83 738 q 13 826 13 772 q 56 897 13 870 q 168 939 99 924 q 316 959 238 953 q 464 964 394 964 q 499 963 483 964 q 531 958 516 961 q 559 951 546 956 q 583 939 572 946 q 604 922 594 932 q 638 833 638 891 q 599 679 638 782 q 490 411 561 576 q 319 7 419 246 m 343 79 l 383 181 q 415 178 399 180 q 446 174 431 176 q 508 160 481 169 q 533 119 535 151 q 507 80 531 90 q 428 74 482 71 q 385 76 407 75 q 343 79 364 77 m 471 394 l 510 486 q 589 450 558 465 q 630 420 619 435 q 635 385 642 406 q 606 361 627 363 q 550 368 584 358 q 471 394 516 378 m 385 428 q 294 466 339 446 q 201 507 249 485 q 150 538 172 522 q 140 585 128 555 q 176 613 151 612 q 249 596 201 615 q 335 561 292 578 q 421 525 378 544 l 385 428 m 258 4 q 258 4 258 4 q 258 4 258 4 q 258 4 258 4 q 258 4 258 4 q 258 4 258 4 q 258 4 258 4 q 258 4 258 4 q 258 4 258 4 m 240 18 q 240 18 240 18 q 240 18 240 18 q 240 18 240 18 q 240 18 240 18 q 240 18 240 18 q 240 18 240 18 q 240 18 240 18 q 240 18 240 18 m 236 0 q 236 0 236 0 q 236 0 236 0 q 236 0 236 0 q 236 0 236 0 q 236 0 236 0 q 236 0 236 0 q 236 0 236 0 q 236 0 236 0 m 282 192 l 239 92 q 214 95 226 94 q 189 99 201 97 q 128 115 149 104 q 108 154 106 125 q 132 189 110 181 q 194 196 153 197 q 239 194 217 195 q 282 192 260 193 m 353 356 l 321 261 q 196 306 231 288 q 168 354 161 324 q 224 383 178 390 q 353 356 269 376 m 161 568 q 161 568 161 568 q 161 568 161 568 q 161 568 161 568 q 161 568 161 568 q 161 568 161 568 q 161 568 161 568 q 161 568 161 568 q 161 568 161 568 z "},"8":{"ha":776,"x_min":26,"x_max":751,"o":"m 378 -21 q 120 52 215 -21 q 26 263 26 125 q 69 423 26 360 q 177 518 113 486 q 185 530 185 522 q 177 543 185 538 q 113 615 137 568 q 90 725 90 663 q 122 859 90 801 q 220 950 154 917 q 385 983 285 983 q 613 924 540 983 q 687 763 687 864 q 652 639 687 689 q 560 561 617 588 q 553 550 553 557 q 560 542 553 544 q 700 452 650 516 q 751 274 751 388 q 706 110 751 176 q 578 12 662 45 q 378 -21 495 -21 m 499 339 q 342 315 413 339 q 231 254 272 292 q 190 175 190 217 q 215 114 190 136 q 286 84 240 92 q 394 75 332 75 q 505 89 449 75 q 597 136 560 103 q 634 231 634 170 q 600 309 634 280 q 499 339 565 339 m 377 888 q 280 867 318 888 q 222 812 241 846 q 203 740 203 778 q 244 638 203 672 q 372 604 285 604 q 478 623 433 604 q 546 674 522 641 q 570 751 570 707 q 519 857 570 826 q 377 888 469 888 m 473 847 q 519 916 495 883 q 566 983 543 950 q 621 1044 594 1024 q 670 1047 647 1063 q 688 1002 694 1032 q 655 935 681 972 q 603 863 629 899 q 548 792 577 827 q 501 748 525 764 q 458 747 478 733 q 445 789 437 762 q 473 847 453 815 m 248 783 q 190 867 221 819 q 134 950 159 916 q 100 1017 106 989 q 117 1061 94 1046 q 166 1065 140 1077 q 216 1015 191 1052 q 274 926 241 979 q 331 835 306 874 q 358 777 351 803 q 342 736 365 751 q 296 738 322 723 q 248 783 271 753 m 402 399 q 439 415 423 399 q 455 454 455 431 q 442 489 455 474 q 409 503 429 503 q 369 487 388 503 q 351 449 351 472 q 366 413 351 428 q 402 399 381 399 m 235 347 q 275 366 260 347 q 291 408 291 385 q 272 451 291 438 q 228 464 253 464 q 191 449 208 464 q 174 410 174 434 q 193 367 174 386 q 235 347 212 347 m 128 233 q 165 250 149 233 q 181 288 181 267 q 166 320 181 308 q 130 332 150 332 q 96 319 109 332 q 83 286 83 306 q 95 249 83 265 q 128 233 108 233 m 359 929 q 359 934 359 931 q 360 939 360 936 q 360 943 360 941 q 379 972 363 964 q 412 975 395 979 q 436 962 426 972 q 445 935 447 951 q 444 927 445 931 q 444 919 444 924 q 430 901 443 907 q 402 896 417 896 q 371 906 385 897 q 359 929 357 914 m 644 -31 q 625 -3 634 -17 q 607 27 616 12 q 587 60 597 43 q 583 89 578 74 q 598 110 588 103 q 623 116 608 116 q 649 101 637 115 q 671 76 659 90 q 693 48 683 62 q 712 24 704 34 q 740 -36 738 -12 q 723 -71 741 -61 q 686 -70 706 -80 q 644 -31 667 -60 m 452 19 l 528 50 q 570 -65 560 -25 q 575 -123 581 -106 q 551 -146 569 -140 q 515 -139 532 -151 q 483 -89 499 -126 q 452 19 467 -51 m 197 68 l 273 36 q 217 -81 240 -44 q 175 -127 193 -119 q 141 -128 157 -135 q 120 -98 122 -119 q 137 -37 119 -77 q 197 68 156 2 m 309 -82 q 309 -47 309 -65 q 312 -1 310 -29 q 325 38 314 25 q 352 53 335 51 q 380 44 369 55 q 394 10 391 33 q 398 -35 397 -12 q 398 -81 398 -58 q 386 -138 398 -120 q 353 -156 374 -156 q 322 -138 334 -156 q 309 -82 309 -120 z "},"9":{"ha":736,"x_min":42,"x_max":703,"o":"m 42 703 q 83 856 42 790 q 197 958 124 923 q 362 988 269 994 q 542 946 465 981 q 661 850 619 911 q 703 703 703 789 q 685 576 703 644 q 633 430 667 508 q 554 262 599 352 q 455 67 508 172 q 388 -11 427 13 q 306 -34 348 -34 q 216 -10 259 -34 q 145 53 172 14 q 117 139 117 93 q 149 232 117 196 q 226 292 180 269 q 317 332 272 315 q 394 365 363 349 q 426 403 426 381 q 398 434 426 424 q 327 451 370 444 q 234 471 283 458 q 141 509 185 484 q 70 581 98 535 q 42 703 42 628 m 152 719 q 181 625 152 664 q 261 567 210 587 q 380 547 313 547 q 499 570 453 547 q 566 631 544 592 q 587 717 587 669 q 560 809 587 769 q 486 871 534 849 q 376 893 439 893 q 253 870 303 893 q 178 807 203 847 q 152 719 152 768 m 376 642 q 313 663 338 642 q 287 717 287 685 q 310 776 287 754 q 369 797 333 797 q 436 773 408 797 q 465 714 465 749 q 438 662 465 682 q 376 642 411 642 m 463 938 l 369 944 q 389 1085 377 1042 q 415 1140 401 1129 q 446 1149 430 1151 q 472 1132 463 1147 q 479 1073 481 1117 q 463 938 478 1029 m 410 306 q 372 290 385 306 q 359 247 359 274 q 377 209 359 224 q 420 194 394 194 q 460 209 443 194 q 477 247 477 224 q 455 290 477 274 q 410 306 433 306 m 276 186 q 230 166 246 186 q 215 117 215 145 q 238 66 215 85 q 292 47 261 47 q 336 65 321 47 q 351 113 351 83 q 328 165 351 144 q 276 186 305 186 m 526 361 q 526 361 526 361 q 526 361 526 361 q 526 361 526 361 q 526 361 526 361 q 526 361 526 361 q 526 361 526 361 q 526 361 526 361 q 526 361 526 361 m 520 424 q 520 424 520 424 q 520 424 520 424 q 520 424 520 424 q 520 424 520 424 q 520 424 520 424 q 520 424 520 424 q 520 424 520 424 q 520 424 520 424 m 484 240 l 530 335 q 555 312 548 326 q 548 267 563 297 q 515 233 531 233 q 484 240 498 233 m 288 247 l 288 247 q 288 247 288 247 q 288 247 288 247 q 288 247 288 247 q 288 247 288 247 m 291 945 l 200 919 q 175 1036 179 995 q 181 1094 172 1077 q 206 1115 190 1111 q 236 1107 222 1118 q 264 1058 251 1095 q 291 945 278 1021 m 591 852 l 513 904 q 583 993 556 965 q 628 1025 610 1021 q 656 1020 645 1029 q 673 993 672 1009 q 655 944 674 976 q 591 852 636 912 z "},"A":{"ha":785,"x_min":14,"x_max":776,"o":"m 31 136 q 64 228 40 163 q 118 377 88 293 q 179 546 149 462 q 184 558 182 552 q 188 570 186 565 q 192 583 190 576 q 199 600 196 591 q 205 617 202 608 q 221 660 213 639 q 235 701 228 681 q 240 713 238 707 q 244 725 242 719 q 249 736 247 731 q 256 756 252 747 q 263 774 260 765 q 280 821 274 803 q 288 842 287 839 q 354 927 310 899 q 456 954 399 956 q 558 923 515 953 q 613 831 601 892 q 616 814 614 822 q 618 797 617 806 q 506 775 535 789 q 476 738 476 762 q 497 699 476 708 q 553 694 517 690 q 635 707 589 699 q 643 665 639 686 q 650 624 647 644 q 559 602 585 615 q 533 563 533 589 q 553 524 533 532 q 604 520 574 515 q 667 533 635 524 q 694 394 681 464 q 719 256 707 325 q 744 119 732 188 q 768 -17 757 51 q 760 -76 776 -55 q 721 -97 744 -97 q 685 -84 703 -97 q 657 -43 667 -71 q 545 278 601 113 q 436 592 490 444 q 407 651 422 633 q 368 669 393 669 q 329 653 344 669 q 301 590 313 636 q 238 339 269 467 q 176 93 207 211 q 144 38 166 55 q 97 21 122 21 q 33 55 53 21 q 31 136 14 88 m 171 349 l 197 436 q 261 438 230 438 q 325 436 293 438 q 397 424 373 434 q 421 383 421 415 q 400 343 421 353 q 319 335 379 332 q 245 341 282 337 q 171 349 208 344 m 185 169 q 133 187 153 174 q 114 221 114 200 q 139 262 114 253 q 200 267 165 270 q 391 250 291 260 q 589 231 490 241 l 617 125 q 389 147 500 135 q 185 169 278 158 m 229 640 q 155 675 183 660 q 114 703 126 690 q 101 733 101 717 q 125 773 101 766 q 187 770 149 781 q 269 742 226 760 l 229 640 m 181 479 q 93 506 126 494 q 47 530 61 518 q 33 558 33 542 q 57 599 33 592 q 120 597 81 606 q 206 571 159 588 l 181 479 m 571 342 l 550 446 q 607 452 585 452 q 639 436 629 451 q 649 385 649 422 q 629 352 649 359 q 571 342 610 345 m 621 119 l 600 231 q 658 237 636 238 q 689 219 679 235 q 699 164 699 202 q 679 129 699 136 q 621 119 660 122 z "},"a":{"ha":785,"x_min":14,"x_max":776,"o":"m 31 136 q 64 228 40 163 q 118 377 88 293 q 179 546 149 462 q 184 558 182 552 q 188 570 186 565 q 192 583 190 576 q 199 600 196 591 q 205 617 202 608 q 221 660 213 639 q 235 701 228 681 q 240 713 238 707 q 244 725 242 719 q 249 736 247 731 q 256 756 252 747 q 263 774 260 765 q 280 821 274 803 q 288 842 287 839 q 354 927 310 899 q 456 954 399 956 q 558 923 515 953 q 613 831 601 892 q 616 814 614 822 q 618 797 617 806 q 506 775 535 789 q 476 738 476 762 q 497 699 476 708 q 553 694 517 690 q 635 707 589 699 q 643 665 639 686 q 650 624 647 644 q 559 602 585 615 q 533 563 533 589 q 553 524 533 532 q 604 520 574 515 q 667 533 635 524 q 694 394 681 464 q 719 256 707 325 q 744 119 732 188 q 768 -17 757 51 q 760 -76 776 -55 q 721 -97 744 -97 q 685 -84 703 -97 q 657 -43 667 -71 q 545 278 601 113 q 436 592 490 444 q 407 651 422 633 q 368 669 393 669 q 329 653 344 669 q 301 590 313 636 q 238 339 269 467 q 176 93 207 211 q 144 38 166 55 q 97 21 122 21 q 33 55 53 21 q 31 136 14 88 m 171 349 l 197 436 q 261 438 230 438 q 325 436 293 438 q 397 424 373 434 q 421 383 421 415 q 400 343 421 353 q 319 335 379 332 q 245 341 282 337 q 171 349 208 344 m 185 169 q 133 187 153 174 q 114 221 114 200 q 139 262 114 253 q 200 267 165 270 q 391 250 291 260 q 589 231 490 241 l 617 125 q 389 147 500 135 q 185 169 278 158 m 229 640 q 155 675 183 660 q 114 703 126 690 q 101 733 101 717 q 125 773 101 766 q 187 770 149 781 q 269 742 226 760 l 229 640 m 181 479 q 93 506 126 494 q 47 530 61 518 q 33 558 33 542 q 57 599 33 592 q 120 597 81 606 q 206 571 159 588 l 181 479 m 571 342 l 550 446 q 607 452 585 452 q 639 436 629 451 q 649 385 649 422 q 629 352 649 359 q 571 342 610 345 m 621 119 l 600 231 q 658 237 636 238 q 689 219 679 235 q 699 164 699 202 q 679 129 699 136 q 621 119 660 122 z "},"Á":{"ha":785,"x_min":14,"x_max":776,"o":"m 31 136 q 64 228 40 163 q 118 377 88 293 q 179 546 149 462 q 184 558 182 552 q 188 570 186 565 q 192 583 190 576 q 199 600 196 591 q 205 617 202 608 q 221 660 213 639 q 235 701 228 681 q 240 713 238 707 q 244 725 242 719 q 249 736 247 731 q 256 756 252 747 q 263 774 260 765 q 280 821 274 803 q 288 842 287 839 q 354 927 310 899 q 456 954 399 956 q 558 923 515 953 q 613 831 601 892 q 616 814 614 822 q 618 797 617 806 q 506 775 535 789 q 476 738 476 762 q 497 699 476 708 q 553 694 517 690 q 635 707 589 699 q 643 665 639 686 q 650 624 647 644 q 559 602 585 615 q 533 563 533 589 q 553 524 533 532 q 604 520 574 515 q 667 533 635 524 q 694 394 681 464 q 719 256 707 325 q 744 119 732 188 q 768 -17 757 51 q 760 -76 776 -55 q 721 -97 744 -97 q 685 -84 703 -97 q 657 -43 667 -71 q 545 278 601 113 q 436 592 490 444 q 407 651 422 633 q 368 669 393 669 q 329 653 344 669 q 301 590 313 636 q 238 339 269 467 q 176 93 207 211 q 144 38 166 55 q 97 21 122 21 q 33 55 53 21 q 31 136 14 88 m 171 349 l 197 436 q 261 438 230 438 q 325 436 293 438 q 397 424 373 434 q 421 383 421 415 q 400 343 421 353 q 319 335 379 332 q 245 341 282 337 q 171 349 208 344 m 185 169 q 133 187 153 174 q 114 221 114 200 q 139 262 114 253 q 200 267 165 270 q 391 250 291 260 q 589 231 490 241 l 617 125 q 389 147 500 135 q 185 169 278 158 m 229 640 q 155 675 183 660 q 114 703 126 690 q 101 733 101 717 q 125 773 101 766 q 187 770 149 781 q 269 742 226 760 l 229 640 m 181 479 q 93 506 126 494 q 47 530 61 518 q 33 558 33 542 q 57 599 33 592 q 120 597 81 606 q 206 571 159 588 l 181 479 m 571 342 l 550 446 q 607 452 585 452 q 639 436 629 451 q 649 385 649 422 q 629 352 649 359 q 571 342 610 345 m 621 119 l 600 231 q 658 237 636 238 q 689 219 679 235 q 699 164 699 202 q 679 129 699 136 q 621 119 660 122 m 417 1013 q 380 1003 397 1003 q 351 1016 363 1003 q 339 1042 339 1028 q 363 1086 339 1065 q 417 1138 388 1110 q 474 1190 446 1165 q 526 1236 503 1216 q 586 1259 555 1259 q 643 1234 621 1259 q 666 1178 666 1208 q 654 1138 666 1158 q 614 1106 642 1119 q 513 1057 567 1083 q 417 1013 458 1031 z "},"á":{"ha":785,"x_min":14,"x_max":776,"o":"m 31 136 q 64 228 40 163 q 118 377 88 293 q 179 546 149 462 q 184 558 182 552 q 188 570 186 565 q 192 583 190 576 q 199 600 196 591 q 205 617 202 608 q 221 660 213 639 q 235 701 228 681 q 240 713 238 707 q 244 725 242 719 q 249 736 247 731 q 256 756 252 747 q 263 774 260 765 q 280 821 274 803 q 288 842 287 839 q 354 927 310 899 q 456 954 399 956 q 558 923 515 953 q 613 831 601 892 q 616 814 614 822 q 618 797 617 806 q 506 775 535 789 q 476 738 476 762 q 497 699 476 708 q 553 694 517 690 q 635 707 589 699 q 643 665 639 686 q 650 624 647 644 q 559 602 585 615 q 533 563 533 589 q 553 524 533 532 q 604 520 574 515 q 667 533 635 524 q 694 394 681 464 q 719 256 707 325 q 744 119 732 188 q 768 -17 757 51 q 760 -76 776 -55 q 721 -97 744 -97 q 685 -84 703 -97 q 657 -43 667 -71 q 545 278 601 113 q 436 592 490 444 q 407 651 422 633 q 368 669 393 669 q 329 653 344 669 q 301 590 313 636 q 238 339 269 467 q 176 93 207 211 q 144 38 166 55 q 97 21 122 21 q 33 55 53 21 q 31 136 14 88 m 171 349 l 197 436 q 261 438 230 438 q 325 436 293 438 q 397 424 373 434 q 421 383 421 415 q 400 343 421 353 q 319 335 379 332 q 245 341 282 337 q 171 349 208 344 m 185 169 q 133 187 153 174 q 114 221 114 200 q 139 262 114 253 q 200 267 165 270 q 391 250 291 260 q 589 231 490 241 l 617 125 q 389 147 500 135 q 185 169 278 158 m 229 640 q 155 675 183 660 q 114 703 126 690 q 101 733 101 717 q 125 773 101 766 q 187 770 149 781 q 269 742 226 760 l 229 640 m 181 479 q 93 506 126 494 q 47 530 61 518 q 33 558 33 542 q 57 599 33 592 q 120 597 81 606 q 206 571 159 588 l 181 479 m 571 342 l 550 446 q 607 452 585 452 q 639 436 629 451 q 649 385 649 422 q 629 352 649 359 q 571 342 610 345 m 621 119 l 600 231 q 658 237 636 238 q 689 219 679 235 q 699 164 699 202 q 679 129 699 136 q 621 119 660 122 m 417 1013 q 380 1003 397 1003 q 351 1016 363 1003 q 339 1042 339 1028 q 363 1086 339 1065 q 417 1138 388 1110 q 474 1190 446 1165 q 526 1236 503 1216 q 586 1259 555 1259 q 643 1234 621 1259 q 666 1178 666 1208 q 654 1138 666 1158 q 614 1106 642 1119 q 513 1057 567 1083 q 417 1013 458 1031 z "},"Ă":{"ha":785,"x_min":14,"x_max":776,"o":"m 31 136 q 64 228 40 163 q 118 377 88 293 q 179 546 149 462 q 184 558 182 552 q 188 570 186 565 q 192 583 190 576 q 199 600 196 591 q 205 617 202 608 q 221 660 213 639 q 235 701 228 681 q 240 713 238 707 q 244 725 242 719 q 249 736 247 731 q 256 756 252 747 q 263 774 260 765 q 280 821 274 803 q 288 842 287 839 q 354 927 310 899 q 456 954 399 956 q 558 923 515 953 q 613 831 601 892 q 616 814 614 822 q 618 797 617 806 q 506 775 535 789 q 476 738 476 762 q 497 699 476 708 q 553 694 517 690 q 635 707 589 699 q 643 665 639 686 q 650 624 647 644 q 559 602 585 615 q 533 563 533 589 q 553 524 533 532 q 604 520 574 515 q 667 533 635 524 q 694 394 681 464 q 719 256 707 325 q 744 119 732 188 q 768 -17 757 51 q 760 -76 776 -55 q 721 -97 744 -97 q 685 -84 703 -97 q 657 -43 667 -71 q 545 278 601 113 q 436 592 490 444 q 407 651 422 633 q 368 669 393 669 q 329 653 344 669 q 301 590 313 636 q 238 339 269 467 q 176 93 207 211 q 144 38 166 55 q 97 21 122 21 q 33 55 53 21 q 31 136 14 88 m 171 349 l 197 436 q 261 438 230 438 q 325 436 293 438 q 397 424 373 434 q 421 383 421 415 q 400 343 421 353 q 319 335 379 332 q 245 341 282 337 q 171 349 208 344 m 185 169 q 133 187 153 174 q 114 221 114 200 q 139 262 114 253 q 200 267 165 270 q 391 250 291 260 q 589 231 490 241 l 617 125 q 389 147 500 135 q 185 169 278 158 m 229 640 q 155 675 183 660 q 114 703 126 690 q 101 733 101 717 q 125 773 101 766 q 187 770 149 781 q 269 742 226 760 l 229 640 m 181 479 q 93 506 126 494 q 47 530 61 518 q 33 558 33 542 q 57 599 33 592 q 120 597 81 606 q 206 571 159 588 l 181 479 m 571 342 l 550 446 q 607 452 585 452 q 639 436 629 451 q 649 385 649 422 q 629 352 649 359 q 571 342 610 345 m 621 119 l 600 231 q 658 237 636 238 q 689 219 679 235 q 699 164 699 202 q 679 129 699 136 q 621 119 660 122 m 440 990 q 336 1015 383 990 q 261 1083 289 1040 q 234 1179 234 1126 q 246 1223 234 1206 q 285 1240 258 1240 q 325 1219 310 1240 q 351 1173 339 1199 q 382 1121 365 1145 q 431 1097 399 1097 q 487 1123 472 1097 q 513 1180 503 1149 q 537 1235 523 1210 q 589 1259 551 1259 q 642 1238 625 1259 q 659 1184 659 1217 q 629 1083 659 1126 q 550 1015 599 1039 q 440 990 500 990 z "},"ă":{"ha":785,"x_min":14,"x_max":776,"o":"m 31 136 q 64 228 40 163 q 118 377 88 293 q 179 546 149 462 q 184 558 182 552 q 188 570 186 565 q 192 583 190 576 q 199 600 196 591 q 205 617 202 608 q 221 660 213 639 q 235 701 228 681 q 240 713 238 707 q 244 725 242 719 q 249 736 247 731 q 256 756 252 747 q 263 774 260 765 q 280 821 274 803 q 288 842 287 839 q 354 927 310 899 q 456 954 399 956 q 558 923 515 953 q 613 831 601 892 q 616 814 614 822 q 618 797 617 806 q 506 775 535 789 q 476 738 476 762 q 497 699 476 708 q 553 694 517 690 q 635 707 589 699 q 643 665 639 686 q 650 624 647 644 q 559 602 585 615 q 533 563 533 589 q 553 524 533 532 q 604 520 574 515 q 667 533 635 524 q 694 394 681 464 q 719 256 707 325 q 744 119 732 188 q 768 -17 757 51 q 760 -76 776 -55 q 721 -97 744 -97 q 685 -84 703 -97 q 657 -43 667 -71 q 545 278 601 113 q 436 592 490 444 q 407 651 422 633 q 368 669 393 669 q 329 653 344 669 q 301 590 313 636 q 238 339 269 467 q 176 93 207 211 q 144 38 166 55 q 97 21 122 21 q 33 55 53 21 q 31 136 14 88 m 171 349 l 197 436 q 261 438 230 438 q 325 436 293 438 q 397 424 373 434 q 421 383 421 415 q 400 343 421 353 q 319 335 379 332 q 245 341 282 337 q 171 349 208 344 m 185 169 q 133 187 153 174 q 114 221 114 200 q 139 262 114 253 q 200 267 165 270 q 391 250 291 260 q 589 231 490 241 l 617 125 q 389 147 500 135 q 185 169 278 158 m 229 640 q 155 675 183 660 q 114 703 126 690 q 101 733 101 717 q 125 773 101 766 q 187 770 149 781 q 269 742 226 760 l 229 640 m 181 479 q 93 506 126 494 q 47 530 61 518 q 33 558 33 542 q 57 599 33 592 q 120 597 81 606 q 206 571 159 588 l 181 479 m 571 342 l 550 446 q 607 452 585 452 q 639 436 629 451 q 649 385 649 422 q 629 352 649 359 q 571 342 610 345 m 621 119 l 600 231 q 658 237 636 238 q 689 219 679 235 q 699 164 699 202 q 679 129 699 136 q 621 119 660 122 m 440 990 q 336 1015 383 990 q 261 1083 289 1040 q 234 1179 234 1126 q 246 1223 234 1206 q 285 1240 258 1240 q 325 1219 310 1240 q 351 1173 339 1199 q 382 1121 365 1145 q 431 1097 399 1097 q 487 1123 472 1097 q 513 1180 503 1149 q 537 1235 523 1210 q 589 1259 551 1259 q 642 1238 625 1259 q 659 1184 659 1217 q 629 1083 659 1126 q 550 1015 599 1039 q 440 990 500 990 z "},"Ắ":{"ha":785,"x_min":14,"x_max":776,"o":"m 31 136 q 64 228 40 163 q 118 377 88 293 q 179 546 149 462 q 184 558 182 552 q 188 570 186 565 q 192 583 190 576 q 199 600 196 591 q 205 617 202 608 q 221 660 213 639 q 235 701 228 681 q 240 713 238 707 q 244 725 242 719 q 249 736 247 731 q 256 756 252 747 q 263 774 260 765 q 280 821 274 803 q 288 842 287 839 q 354 927 310 899 q 456 954 399 956 q 558 923 515 953 q 613 831 601 892 q 616 814 614 822 q 618 797 617 806 q 506 775 535 789 q 476 738 476 762 q 497 699 476 708 q 553 694 517 690 q 635 707 589 699 q 643 665 639 686 q 650 624 647 644 q 559 602 585 615 q 533 563 533 589 q 553 524 533 532 q 604 520 574 515 q 667 533 635 524 q 694 394 681 464 q 719 256 707 325 q 744 119 732 188 q 768 -17 757 51 q 760 -76 776 -55 q 721 -97 744 -97 q 685 -84 703 -97 q 657 -43 667 -71 q 545 278 601 113 q 436 592 490 444 q 407 651 422 633 q 368 669 393 669 q 329 653 344 669 q 301 590 313 636 q 238 339 269 467 q 176 93 207 211 q 144 38 166 55 q 97 21 122 21 q 33 55 53 21 q 31 136 14 88 m 171 349 l 197 436 q 261 438 230 438 q 325 436 293 438 q 397 424 373 434 q 421 383 421 415 q 400 343 421 353 q 319 335 379 332 q 245 341 282 337 q 171 349 208 344 m 185 169 q 133 187 153 174 q 114 221 114 200 q 139 262 114 253 q 200 267 165 270 q 391 250 291 260 q 589 231 490 241 l 617 125 q 389 147 500 135 q 185 169 278 158 m 229 640 q 155 675 183 660 q 114 703 126 690 q 101 733 101 717 q 125 773 101 766 q 187 770 149 781 q 269 742 226 760 l 229 640 m 181 479 q 93 506 126 494 q 47 530 61 518 q 33 558 33 542 q 57 599 33 592 q 120 597 81 606 q 206 571 159 588 l 181 479 m 571 342 l 550 446 q 607 452 585 452 q 639 436 629 451 q 649 385 649 422 q 629 352 649 359 q 571 342 610 345 m 621 119 l 600 231 q 658 237 636 238 q 689 219 679 235 q 699 164 699 202 q 679 129 699 136 q 621 119 660 122 m 440 990 q 336 1015 383 990 q 261 1083 289 1040 q 234 1179 234 1126 q 246 1223 234 1206 q 285 1240 258 1240 q 325 1219 310 1240 q 351 1173 339 1199 q 382 1121 365 1145 q 431 1097 399 1097 q 487 1123 472 1097 q 513 1180 503 1149 q 537 1235 523 1210 q 589 1259 551 1259 q 642 1238 625 1259 q 659 1184 659 1217 q 629 1083 659 1126 q 550 1015 599 1039 q 440 990 500 990 m 422 1264 q 385 1255 402 1255 q 356 1267 368 1255 q 344 1294 344 1279 q 368 1338 344 1316 q 423 1389 394 1362 q 480 1442 451 1416 q 532 1488 508 1467 q 592 1510 560 1510 q 649 1485 626 1510 q 672 1429 672 1460 q 659 1390 672 1409 q 619 1357 647 1370 q 518 1308 573 1334 q 422 1264 463 1282 z "},"ắ":{"ha":785,"x_min":14,"x_max":776,"o":"m 31 136 q 64 228 40 163 q 118 377 88 293 q 179 546 149 462 q 184 558 182 552 q 188 570 186 565 q 192 583 190 576 q 199 600 196 591 q 205 617 202 608 q 221 660 213 639 q 235 701 228 681 q 240 713 238 707 q 244 725 242 719 q 249 736 247 731 q 256 756 252 747 q 263 774 260 765 q 280 821 274 803 q 288 842 287 839 q 354 927 310 899 q 456 954 399 956 q 558 923 515 953 q 613 831 601 892 q 616 814 614 822 q 618 797 617 806 q 506 775 535 789 q 476 738 476 762 q 497 699 476 708 q 553 694 517 690 q 635 707 589 699 q 643 665 639 686 q 650 624 647 644 q 559 602 585 615 q 533 563 533 589 q 553 524 533 532 q 604 520 574 515 q 667 533 635 524 q 694 394 681 464 q 719 256 707 325 q 744 119 732 188 q 768 -17 757 51 q 760 -76 776 -55 q 721 -97 744 -97 q 685 -84 703 -97 q 657 -43 667 -71 q 545 278 601 113 q 436 592 490 444 q 407 651 422 633 q 368 669 393 669 q 329 653 344 669 q 301 590 313 636 q 238 339 269 467 q 176 93 207 211 q 144 38 166 55 q 97 21 122 21 q 33 55 53 21 q 31 136 14 88 m 171 349 l 197 436 q 261 438 230 438 q 325 436 293 438 q 397 424 373 434 q 421 383 421 415 q 400 343 421 353 q 319 335 379 332 q 245 341 282 337 q 171 349 208 344 m 185 169 q 133 187 153 174 q 114 221 114 200 q 139 262 114 253 q 200 267 165 270 q 391 250 291 260 q 589 231 490 241 l 617 125 q 389 147 500 135 q 185 169 278 158 m 229 640 q 155 675 183 660 q 114 703 126 690 q 101 733 101 717 q 125 773 101 766 q 187 770 149 781 q 269 742 226 760 l 229 640 m 181 479 q 93 506 126 494 q 47 530 61 518 q 33 558 33 542 q 57 599 33 592 q 120 597 81 606 q 206 571 159 588 l 181 479 m 571 342 l 550 446 q 607 452 585 452 q 639 436 629 451 q 649 385 649 422 q 629 352 649 359 q 571 342 610 345 m 621 119 l 600 231 q 658 237 636 238 q 689 219 679 235 q 699 164 699 202 q 679 129 699 136 q 621 119 660 122 m 440 990 q 336 1015 383 990 q 261 1083 289 1040 q 234 1179 234 1126 q 246 1223 234 1206 q 285 1240 258 1240 q 325 1219 310 1240 q 351 1173 339 1199 q 382 1121 365 1145 q 431 1097 399 1097 q 487 1123 472 1097 q 513 1180 503 1149 q 537 1235 523 1210 q 589 1259 551 1259 q 642 1238 625 1259 q 659 1184 659 1217 q 629 1083 659 1126 q 550 1015 599 1039 q 440 990 500 990 m 422 1264 q 385 1255 402 1255 q 356 1267 368 1255 q 344 1294 344 1279 q 368 1338 344 1316 q 423 1389 394 1362 q 480 1442 451 1416 q 532 1488 508 1467 q 592 1510 560 1510 q 649 1485 626 1510 q 672 1429 672 1460 q 659 1390 672 1409 q 619 1357 647 1370 q 518 1308 573 1334 q 422 1264 463 1282 z "},"Ặ":{"ha":785,"x_min":14,"x_max":776,"o":"m 31 136 q 64 228 40 163 q 118 377 88 293 q 179 546 149 462 q 184 558 182 552 q 188 570 186 565 q 192 583 190 576 q 199 600 196 591 q 205 617 202 608 q 221 660 213 639 q 235 701 228 681 q 240 713 238 707 q 244 725 242 719 q 249 736 247 731 q 256 756 252 747 q 263 774 260 765 q 280 821 274 803 q 288 842 287 839 q 354 927 310 899 q 456 954 399 956 q 558 923 515 953 q 613 831 601 892 q 616 814 614 822 q 618 797 617 806 q 506 775 535 789 q 476 738 476 762 q 497 699 476 708 q 553 694 517 690 q 635 707 589 699 q 643 665 639 686 q 650 624 647 644 q 559 602 585 615 q 533 563 533 589 q 553 524 533 532 q 604 520 574 515 q 667 533 635 524 q 694 394 681 464 q 719 256 707 325 q 744 119 732 188 q 768 -17 757 51 q 760 -76 776 -55 q 721 -97 744 -97 q 685 -84 703 -97 q 657 -43 667 -71 q 545 278 601 113 q 436 592 490 444 q 407 651 422 633 q 368 669 393 669 q 329 653 344 669 q 301 590 313 636 q 238 339 269 467 q 176 93 207 211 q 144 38 166 55 q 97 21 122 21 q 33 55 53 21 q 31 136 14 88 m 171 349 l 197 436 q 261 438 230 438 q 325 436 293 438 q 397 424 373 434 q 421 383 421 415 q 400 343 421 353 q 319 335 379 332 q 245 341 282 337 q 171 349 208 344 m 185 169 q 133 187 153 174 q 114 221 114 200 q 139 262 114 253 q 200 267 165 270 q 391 250 291 260 q 589 231 490 241 l 617 125 q 389 147 500 135 q 185 169 278 158 m 229 640 q 155 675 183 660 q 114 703 126 690 q 101 733 101 717 q 125 773 101 766 q 187 770 149 781 q 269 742 226 760 l 229 640 m 181 479 q 93 506 126 494 q 47 530 61 518 q 33 558 33 542 q 57 599 33 592 q 120 597 81 606 q 206 571 159 588 l 181 479 m 571 342 l 550 446 q 607 452 585 452 q 639 436 629 451 q 649 385 649 422 q 629 352 649 359 q 571 342 610 345 m 621 119 l 600 231 q 658 237 636 238 q 689 219 679 235 q 699 164 699 202 q 679 129 699 136 q 621 119 660 122 m 440 990 q 336 1015 383 990 q 261 1083 289 1040 q 234 1179 234 1126 q 246 1223 234 1206 q 285 1240 258 1240 q 325 1219 310 1240 q 351 1173 339 1199 q 382 1121 365 1145 q 431 1097 399 1097 q 487 1123 472 1097 q 513 1180 503 1149 q 537 1235 523 1210 q 589 1259 551 1259 q 642 1238 625 1259 q 659 1184 659 1217 q 629 1083 659 1126 q 550 1015 599 1039 q 440 990 500 990 m 417 -215 q 342 -188 367 -215 q 317 -108 317 -161 q 347 -40 317 -65 q 425 -15 377 -15 q 490 -42 463 -15 q 517 -122 517 -68 q 489 -187 517 -160 q 417 -215 460 -215 z "},"ặ":{"ha":785,"x_min":14,"x_max":776,"o":"m 31 136 q 64 228 40 163 q 118 377 88 293 q 179 546 149 462 q 184 558 182 552 q 188 570 186 565 q 192 583 190 576 q 199 600 196 591 q 205 617 202 608 q 221 660 213 639 q 235 701 228 681 q 240 713 238 707 q 244 725 242 719 q 249 736 247 731 q 256 756 252 747 q 263 774 260 765 q 280 821 274 803 q 288 842 287 839 q 354 927 310 899 q 456 954 399 956 q 558 923 515 953 q 613 831 601 892 q 616 814 614 822 q 618 797 617 806 q 506 775 535 789 q 476 738 476 762 q 497 699 476 708 q 553 694 517 690 q 635 707 589 699 q 643 665 639 686 q 650 624 647 644 q 559 602 585 615 q 533 563 533 589 q 553 524 533 532 q 604 520 574 515 q 667 533 635 524 q 694 394 681 464 q 719 256 707 325 q 744 119 732 188 q 768 -17 757 51 q 760 -76 776 -55 q 721 -97 744 -97 q 685 -84 703 -97 q 657 -43 667 -71 q 545 278 601 113 q 436 592 490 444 q 407 651 422 633 q 368 669 393 669 q 329 653 344 669 q 301 590 313 636 q 238 339 269 467 q 176 93 207 211 q 144 38 166 55 q 97 21 122 21 q 33 55 53 21 q 31 136 14 88 m 171 349 l 197 436 q 261 438 230 438 q 325 436 293 438 q 397 424 373 434 q 421 383 421 415 q 400 343 421 353 q 319 335 379 332 q 245 341 282 337 q 171 349 208 344 m 185 169 q 133 187 153 174 q 114 221 114 200 q 139 262 114 253 q 200 267 165 270 q 391 250 291 260 q 589 231 490 241 l 617 125 q 389 147 500 135 q 185 169 278 158 m 229 640 q 155 675 183 660 q 114 703 126 690 q 101 733 101 717 q 125 773 101 766 q 187 770 149 781 q 269 742 226 760 l 229 640 m 181 479 q 93 506 126 494 q 47 530 61 518 q 33 558 33 542 q 57 599 33 592 q 120 597 81 606 q 206 571 159 588 l 181 479 m 571 342 l 550 446 q 607 452 585 452 q 639 436 629 451 q 649 385 649 422 q 629 352 649 359 q 571 342 610 345 m 621 119 l 600 231 q 658 237 636 238 q 689 219 679 235 q 699 164 699 202 q 679 129 699 136 q 621 119 660 122 m 440 990 q 336 1015 383 990 q 261 1083 289 1040 q 234 1179 234 1126 q 246 1223 234 1206 q 285 1240 258 1240 q 325 1219 310 1240 q 351 1173 339 1199 q 382 1121 365 1145 q 431 1097 399 1097 q 487 1123 472 1097 q 513 1180 503 1149 q 537 1235 523 1210 q 589 1259 551 1259 q 642 1238 625 1259 q 659 1184 659 1217 q 629 1083 659 1126 q 550 1015 599 1039 q 440 990 500 990 m 417 -215 q 342 -188 367 -215 q 317 -108 317 -161 q 347 -40 317 -65 q 425 -15 377 -15 q 490 -42 463 -15 q 517 -122 517 -68 q 489 -187 517 -160 q 417 -215 460 -215 z "},"Ằ":{"ha":785,"x_min":14,"x_max":776,"o":"m 31 136 q 64 228 40 163 q 118 377 88 293 q 179 546 149 462 q 184 558 182 552 q 188 570 186 565 q 192 583 190 576 q 199 600 196 591 q 205 617 202 608 q 221 660 213 639 q 235 701 228 681 q 240 713 238 707 q 244 725 242 719 q 249 736 247 731 q 256 756 252 747 q 263 774 260 765 q 280 821 274 803 q 288 842 287 839 q 354 927 310 899 q 456 954 399 956 q 558 923 515 953 q 613 831 601 892 q 616 814 614 822 q 618 797 617 806 q 506 775 535 789 q 476 738 476 762 q 497 699 476 708 q 553 694 517 690 q 635 707 589 699 q 643 665 639 686 q 650 624 647 644 q 559 602 585 615 q 533 563 533 589 q 553 524 533 532 q 604 520 574 515 q 667 533 635 524 q 694 394 681 464 q 719 256 707 325 q 744 119 732 188 q 768 -17 757 51 q 760 -76 776 -55 q 721 -97 744 -97 q 685 -84 703 -97 q 657 -43 667 -71 q 545 278 601 113 q 436 592 490 444 q 407 651 422 633 q 368 669 393 669 q 329 653 344 669 q 301 590 313 636 q 238 339 269 467 q 176 93 207 211 q 144 38 166 55 q 97 21 122 21 q 33 55 53 21 q 31 136 14 88 m 171 349 l 197 436 q 261 438 230 438 q 325 436 293 438 q 397 424 373 434 q 421 383 421 415 q 400 343 421 353 q 319 335 379 332 q 245 341 282 337 q 171 349 208 344 m 185 169 q 133 187 153 174 q 114 221 114 200 q 139 262 114 253 q 200 267 165 270 q 391 250 291 260 q 589 231 490 241 l 617 125 q 389 147 500 135 q 185 169 278 158 m 229 640 q 155 675 183 660 q 114 703 126 690 q 101 733 101 717 q 125 773 101 766 q 187 770 149 781 q 269 742 226 760 l 229 640 m 181 479 q 93 506 126 494 q 47 530 61 518 q 33 558 33 542 q 57 599 33 592 q 120 597 81 606 q 206 571 159 588 l 181 479 m 571 342 l 550 446 q 607 452 585 452 q 639 436 629 451 q 649 385 649 422 q 629 352 649 359 q 571 342 610 345 m 621 119 l 600 231 q 658 237 636 238 q 689 219 679 235 q 699 164 699 202 q 679 129 699 136 q 621 119 660 122 m 440 990 q 336 1015 383 990 q 261 1083 289 1040 q 234 1179 234 1126 q 246 1223 234 1206 q 285 1240 258 1240 q 325 1219 310 1240 q 351 1173 339 1199 q 382 1121 365 1145 q 431 1097 399 1097 q 487 1123 472 1097 q 513 1180 503 1149 q 537 1235 523 1210 q 589 1259 551 1259 q 642 1238 625 1259 q 659 1184 659 1217 q 629 1083 659 1126 q 550 1015 599 1039 q 440 990 500 990 m 401 1272 q 307 1313 351 1292 q 217 1358 263 1333 q 172 1395 188 1374 q 156 1438 156 1415 q 177 1488 156 1467 q 229 1510 199 1510 q 294 1488 261 1510 q 377 1427 338 1458 q 461 1357 417 1396 q 490 1308 490 1332 q 477 1276 490 1288 q 442 1263 465 1263 q 401 1272 425 1263 z "},"ằ":{"ha":785,"x_min":14,"x_max":776,"o":"m 31 136 q 64 228 40 163 q 118 377 88 293 q 179 546 149 462 q 184 558 182 552 q 188 570 186 565 q 192 583 190 576 q 199 600 196 591 q 205 617 202 608 q 221 660 213 639 q 235 701 228 681 q 240 713 238 707 q 244 725 242 719 q 249 736 247 731 q 256 756 252 747 q 263 774 260 765 q 280 821 274 803 q 288 842 287 839 q 354 927 310 899 q 456 954 399 956 q 558 923 515 953 q 613 831 601 892 q 616 814 614 822 q 618 797 617 806 q 506 775 535 789 q 476 738 476 762 q 497 699 476 708 q 553 694 517 690 q 635 707 589 699 q 643 665 639 686 q 650 624 647 644 q 559 602 585 615 q 533 563 533 589 q 553 524 533 532 q 604 520 574 515 q 667 533 635 524 q 694 394 681 464 q 719 256 707 325 q 744 119 732 188 q 768 -17 757 51 q 760 -76 776 -55 q 721 -97 744 -97 q 685 -84 703 -97 q 657 -43 667 -71 q 545 278 601 113 q 436 592 490 444 q 407 651 422 633 q 368 669 393 669 q 329 653 344 669 q 301 590 313 636 q 238 339 269 467 q 176 93 207 211 q 144 38 166 55 q 97 21 122 21 q 33 55 53 21 q 31 136 14 88 m 171 349 l 197 436 q 261 438 230 438 q 325 436 293 438 q 397 424 373 434 q 421 383 421 415 q 400 343 421 353 q 319 335 379 332 q 245 341 282 337 q 171 349 208 344 m 185 169 q 133 187 153 174 q 114 221 114 200 q 139 262 114 253 q 200 267 165 270 q 391 250 291 260 q 589 231 490 241 l 617 125 q 389 147 500 135 q 185 169 278 158 m 229 640 q 155 675 183 660 q 114 703 126 690 q 101 733 101 717 q 125 773 101 766 q 187 770 149 781 q 269 742 226 760 l 229 640 m 181 479 q 93 506 126 494 q 47 530 61 518 q 33 558 33 542 q 57 599 33 592 q 120 597 81 606 q 206 571 159 588 l 181 479 m 571 342 l 550 446 q 607 452 585 452 q 639 436 629 451 q 649 385 649 422 q 629 352 649 359 q 571 342 610 345 m 621 119 l 600 231 q 658 237 636 238 q 689 219 679 235 q 699 164 699 202 q 679 129 699 136 q 621 119 660 122 m 440 990 q 336 1015 383 990 q 261 1083 289 1040 q 234 1179 234 1126 q 246 1223 234 1206 q 285 1240 258 1240 q 325 1219 310 1240 q 351 1173 339 1199 q 382 1121 365 1145 q 431 1097 399 1097 q 487 1123 472 1097 q 513 1180 503 1149 q 537 1235 523 1210 q 589 1259 551 1259 q 642 1238 625 1259 q 659 1184 659 1217 q 629 1083 659 1126 q 550 1015 599 1039 q 440 990 500 990 m 401 1272 q 307 1313 351 1292 q 217 1358 263 1333 q 172 1395 188 1374 q 156 1438 156 1415 q 177 1488 156 1467 q 229 1510 199 1510 q 294 1488 261 1510 q 377 1427 338 1458 q 461 1357 417 1396 q 490 1308 490 1332 q 477 1276 490 1288 q 442 1263 465 1263 q 401 1272 425 1263 z "},"Ẳ":{"ha":785,"x_min":14,"x_max":776,"o":"m 31 136 q 64 228 40 163 q 118 377 88 293 q 179 546 149 462 q 184 558 182 552 q 188 570 186 565 q 192 583 190 576 q 199 600 196 591 q 205 617 202 608 q 221 660 213 639 q 235 701 228 681 q 240 713 238 707 q 244 725 242 719 q 249 736 247 731 q 256 756 252 747 q 263 774 260 765 q 280 821 274 803 q 288 842 287 839 q 354 927 310 899 q 456 954 399 956 q 558 923 515 953 q 613 831 601 892 q 616 814 614 822 q 618 797 617 806 q 506 775 535 789 q 476 738 476 762 q 497 699 476 708 q 553 694 517 690 q 635 707 589 699 q 643 665 639 686 q 650 624 647 644 q 559 602 585 615 q 533 563 533 589 q 553 524 533 532 q 604 520 574 515 q 667 533 635 524 q 694 394 681 464 q 719 256 707 325 q 744 119 732 188 q 768 -17 757 51 q 760 -76 776 -55 q 721 -97 744 -97 q 685 -84 703 -97 q 657 -43 667 -71 q 545 278 601 113 q 436 592 490 444 q 407 651 422 633 q 368 669 393 669 q 329 653 344 669 q 301 590 313 636 q 238 339 269 467 q 176 93 207 211 q 144 38 166 55 q 97 21 122 21 q 33 55 53 21 q 31 136 14 88 m 171 349 l 197 436 q 261 438 230 438 q 325 436 293 438 q 397 424 373 434 q 421 383 421 415 q 400 343 421 353 q 319 335 379 332 q 245 341 282 337 q 171 349 208 344 m 185 169 q 133 187 153 174 q 114 221 114 200 q 139 262 114 253 q 200 267 165 270 q 391 250 291 260 q 589 231 490 241 l 617 125 q 389 147 500 135 q 185 169 278 158 m 229 640 q 155 675 183 660 q 114 703 126 690 q 101 733 101 717 q 125 773 101 766 q 187 770 149 781 q 269 742 226 760 l 229 640 m 181 479 q 93 506 126 494 q 47 530 61 518 q 33 558 33 542 q 57 599 33 592 q 120 597 81 606 q 206 571 159 588 l 181 479 m 571 342 l 550 446 q 607 452 585 452 q 639 436 629 451 q 649 385 649 422 q 629 352 649 359 q 571 342 610 345 m 621 119 l 600 231 q 658 237 636 238 q 689 219 679 235 q 699 164 699 202 q 679 129 699 136 q 621 119 660 122 m 440 990 q 336 1015 383 990 q 261 1083 289 1040 q 234 1179 234 1126 q 246 1223 234 1206 q 285 1240 258 1240 q 325 1219 310 1240 q 351 1173 339 1199 q 382 1121 365 1145 q 431 1097 399 1097 q 487 1123 472 1097 q 513 1180 503 1149 q 537 1235 523 1210 q 589 1259 551 1259 q 642 1238 625 1259 q 659 1184 659 1217 q 629 1083 659 1126 q 550 1015 599 1039 q 440 990 500 990 m 376 1278 q 393 1307 376 1296 q 431 1327 409 1317 q 468 1348 452 1336 q 485 1378 485 1359 q 470 1401 485 1394 q 433 1408 456 1408 q 379 1399 408 1408 q 324 1390 350 1390 q 286 1407 301 1390 q 271 1447 271 1424 q 289 1494 271 1476 q 339 1520 308 1512 q 410 1529 371 1529 q 545 1490 499 1529 q 592 1388 592 1451 q 567 1315 592 1347 q 503 1264 542 1283 q 419 1244 464 1244 q 388 1253 400 1244 q 376 1278 376 1261 z "},"ẳ":{"ha":785,"x_min":14,"x_max":776,"o":"m 31 136 q 64 228 40 163 q 118 377 88 293 q 179 546 149 462 q 184 558 182 552 q 188 570 186 565 q 192 583 190 576 q 199 600 196 591 q 205 617 202 608 q 221 660 213 639 q 235 701 228 681 q 240 713 238 707 q 244 725 242 719 q 249 736 247 731 q 256 756 252 747 q 263 774 260 765 q 280 821 274 803 q 288 842 287 839 q 354 927 310 899 q 456 954 399 956 q 558 923 515 953 q 613 831 601 892 q 616 814 614 822 q 618 797 617 806 q 506 775 535 789 q 476 738 476 762 q 497 699 476 708 q 553 694 517 690 q 635 707 589 699 q 643 665 639 686 q 650 624 647 644 q 559 602 585 615 q 533 563 533 589 q 553 524 533 532 q 604 520 574 515 q 667 533 635 524 q 694 394 681 464 q 719 256 707 325 q 744 119 732 188 q 768 -17 757 51 q 760 -76 776 -55 q 721 -97 744 -97 q 685 -84 703 -97 q 657 -43 667 -71 q 545 278 601 113 q 436 592 490 444 q 407 651 422 633 q 368 669 393 669 q 329 653 344 669 q 301 590 313 636 q 238 339 269 467 q 176 93 207 211 q 144 38 166 55 q 97 21 122 21 q 33 55 53 21 q 31 136 14 88 m 171 349 l 197 436 q 261 438 230 438 q 325 436 293 438 q 397 424 373 434 q 421 383 421 415 q 400 343 421 353 q 319 335 379 332 q 245 341 282 337 q 171 349 208 344 m 185 169 q 133 187 153 174 q 114 221 114 200 q 139 262 114 253 q 200 267 165 270 q 391 250 291 260 q 589 231 490 241 l 617 125 q 389 147 500 135 q 185 169 278 158 m 229 640 q 155 675 183 660 q 114 703 126 690 q 101 733 101 717 q 125 773 101 766 q 187 770 149 781 q 269 742 226 760 l 229 640 m 181 479 q 93 506 126 494 q 47 530 61 518 q 33 558 33 542 q 57 599 33 592 q 120 597 81 606 q 206 571 159 588 l 181 479 m 571 342 l 550 446 q 607 452 585 452 q 639 436 629 451 q 649 385 649 422 q 629 352 649 359 q 571 342 610 345 m 621 119 l 600 231 q 658 237 636 238 q 689 219 679 235 q 699 164 699 202 q 679 129 699 136 q 621 119 660 122 m 440 990 q 336 1015 383 990 q 261 1083 289 1040 q 234 1179 234 1126 q 246 1223 234 1206 q 285 1240 258 1240 q 325 1219 310 1240 q 351 1173 339 1199 q 382 1121 365 1145 q 431 1097 399 1097 q 487 1123 472 1097 q 513 1180 503 1149 q 537 1235 523 1210 q 589 1259 551 1259 q 642 1238 625 1259 q 659 1184 659 1217 q 629 1083 659 1126 q 550 1015 599 1039 q 440 990 500 990 m 376 1278 q 393 1307 376 1296 q 431 1327 409 1317 q 468 1348 452 1336 q 485 1378 485 1359 q 470 1401 485 1394 q 433 1408 456 1408 q 379 1399 408 1408 q 324 1390 350 1390 q 286 1407 301 1390 q 271 1447 271 1424 q 289 1494 271 1476 q 339 1520 308 1512 q 410 1529 371 1529 q 545 1490 499 1529 q 592 1388 592 1451 q 567 1315 592 1347 q 503 1264 542 1283 q 419 1244 464 1244 q 388 1253 400 1244 q 376 1278 376 1261 z "},"Ẵ":{"ha":785,"x_min":14,"x_max":776,"o":"m 31 136 q 64 228 40 163 q 118 377 88 293 q 179 546 149 462 q 184 558 182 552 q 188 570 186 565 q 192 583 190 576 q 199 600 196 591 q 205 617 202 608 q 221 660 213 639 q 235 701 228 681 q 240 713 238 707 q 244 725 242 719 q 249 736 247 731 q 256 756 252 747 q 263 774 260 765 q 280 821 274 803 q 288 842 287 839 q 354 927 310 899 q 456 954 399 956 q 558 923 515 953 q 613 831 601 892 q 616 814 614 822 q 618 797 617 806 q 506 775 535 789 q 476 738 476 762 q 497 699 476 708 q 553 694 517 690 q 635 707 589 699 q 643 665 639 686 q 650 624 647 644 q 559 602 585 615 q 533 563 533 589 q 553 524 533 532 q 604 520 574 515 q 667 533 635 524 q 694 394 681 464 q 719 256 707 325 q 744 119 732 188 q 768 -17 757 51 q 760 -76 776 -55 q 721 -97 744 -97 q 685 -84 703 -97 q 657 -43 667 -71 q 545 278 601 113 q 436 592 490 444 q 407 651 422 633 q 368 669 393 669 q 329 653 344 669 q 301 590 313 636 q 238 339 269 467 q 176 93 207 211 q 144 38 166 55 q 97 21 122 21 q 33 55 53 21 q 31 136 14 88 m 171 349 l 197 436 q 261 438 230 438 q 325 436 293 438 q 397 424 373 434 q 421 383 421 415 q 400 343 421 353 q 319 335 379 332 q 245 341 282 337 q 171 349 208 344 m 185 169 q 133 187 153 174 q 114 221 114 200 q 139 262 114 253 q 200 267 165 270 q 391 250 291 260 q 589 231 490 241 l 617 125 q 389 147 500 135 q 185 169 278 158 m 229 640 q 155 675 183 660 q 114 703 126 690 q 101 733 101 717 q 125 773 101 766 q 187 770 149 781 q 269 742 226 760 l 229 640 m 181 479 q 93 506 126 494 q 47 530 61 518 q 33 558 33 542 q 57 599 33 592 q 120 597 81 606 q 206 571 159 588 l 181 479 m 571 342 l 550 446 q 607 452 585 452 q 639 436 629 451 q 649 385 649 422 q 629 352 649 359 q 571 342 610 345 m 621 119 l 600 231 q 658 237 636 238 q 689 219 679 235 q 699 164 699 202 q 679 129 699 136 q 621 119 660 122 m 440 990 q 336 1015 383 990 q 261 1083 289 1040 q 234 1179 234 1126 q 246 1223 234 1206 q 285 1240 258 1240 q 325 1219 310 1240 q 351 1173 339 1199 q 382 1121 365 1145 q 431 1097 399 1097 q 487 1123 472 1097 q 513 1180 503 1149 q 537 1235 523 1210 q 589 1259 551 1259 q 642 1238 625 1259 q 659 1184 659 1217 q 629 1083 659 1126 q 550 1015 599 1039 q 440 990 500 990 m 251 1288 q 208 1305 222 1288 q 193 1346 193 1322 q 214 1413 193 1380 q 267 1469 235 1447 q 335 1492 300 1492 q 399 1477 374 1492 q 441 1442 424 1462 q 474 1407 458 1422 q 513 1392 490 1392 q 550 1408 536 1392 q 574 1445 563 1424 q 598 1482 584 1466 q 637 1498 613 1498 q 674 1483 663 1498 q 686 1443 686 1467 q 666 1365 686 1402 q 613 1304 647 1328 q 538 1281 579 1281 q 478 1295 502 1281 q 435 1328 453 1310 q 402 1362 417 1347 q 369 1376 387 1376 q 335 1363 348 1376 q 311 1332 322 1350 q 287 1301 301 1315 q 251 1288 273 1288 z "},"ẵ":{"ha":785,"x_min":14,"x_max":776,"o":"m 31 136 q 64 228 40 163 q 118 377 88 293 q 179 546 149 462 q 184 558 182 552 q 188 570 186 565 q 192 583 190 576 q 199 600 196 591 q 205 617 202 608 q 221 660 213 639 q 235 701 228 681 q 240 713 238 707 q 244 725 242 719 q 249 736 247 731 q 256 756 252 747 q 263 774 260 765 q 280 821 274 803 q 288 842 287 839 q 354 927 310 899 q 456 954 399 956 q 558 923 515 953 q 613 831 601 892 q 616 814 614 822 q 618 797 617 806 q 506 775 535 789 q 476 738 476 762 q 497 699 476 708 q 553 694 517 690 q 635 707 589 699 q 643 665 639 686 q 650 624 647 644 q 559 602 585 615 q 533 563 533 589 q 553 524 533 532 q 604 520 574 515 q 667 533 635 524 q 694 394 681 464 q 719 256 707 325 q 744 119 732 188 q 768 -17 757 51 q 760 -76 776 -55 q 721 -97 744 -97 q 685 -84 703 -97 q 657 -43 667 -71 q 545 278 601 113 q 436 592 490 444 q 407 651 422 633 q 368 669 393 669 q 329 653 344 669 q 301 590 313 636 q 238 339 269 467 q 176 93 207 211 q 144 38 166 55 q 97 21 122 21 q 33 55 53 21 q 31 136 14 88 m 171 349 l 197 436 q 261 438 230 438 q 325 436 293 438 q 397 424 373 434 q 421 383 421 415 q 400 343 421 353 q 319 335 379 332 q 245 341 282 337 q 171 349 208 344 m 185 169 q 133 187 153 174 q 114 221 114 200 q 139 262 114 253 q 200 267 165 270 q 391 250 291 260 q 589 231 490 241 l 617 125 q 389 147 500 135 q 185 169 278 158 m 229 640 q 155 675 183 660 q 114 703 126 690 q 101 733 101 717 q 125 773 101 766 q 187 770 149 781 q 269 742 226 760 l 229 640 m 181 479 q 93 506 126 494 q 47 530 61 518 q 33 558 33 542 q 57 599 33 592 q 120 597 81 606 q 206 571 159 588 l 181 479 m 571 342 l 550 446 q 607 452 585 452 q 639 436 629 451 q 649 385 649 422 q 629 352 649 359 q 571 342 610 345 m 621 119 l 600 231 q 658 237 636 238 q 689 219 679 235 q 699 164 699 202 q 679 129 699 136 q 621 119 660 122 m 440 990 q 336 1015 383 990 q 261 1083 289 1040 q 234 1179 234 1126 q 246 1223 234 1206 q 285 1240 258 1240 q 325 1219 310 1240 q 351 1173 339 1199 q 382 1121 365 1145 q 431 1097 399 1097 q 487 1123 472 1097 q 513 1180 503 1149 q 537 1235 523 1210 q 589 1259 551 1259 q 642 1238 625 1259 q 659 1184 659 1217 q 629 1083 659 1126 q 550 1015 599 1039 q 440 990 500 990 m 251 1288 q 208 1305 222 1288 q 193 1346 193 1322 q 214 1413 193 1380 q 267 1469 235 1447 q 335 1492 300 1492 q 399 1477 374 1492 q 441 1442 424 1462 q 474 1407 458 1422 q 513 1392 490 1392 q 550 1408 536 1392 q 574 1445 563 1424 q 598 1482 584 1466 q 637 1498 613 1498 q 674 1483 663 1498 q 686 1443 686 1467 q 666 1365 686 1402 q 613 1304 647 1328 q 538 1281 579 1281 q 478 1295 502 1281 q 435 1328 453 1310 q 402 1362 417 1347 q 369 1376 387 1376 q 335 1363 348 1376 q 311 1332 322 1350 q 287 1301 301 1315 q 251 1288 273 1288 z "},"Ǎ":{"ha":785,"x_min":14,"x_max":776,"o":"m 31 136 q 64 228 40 163 q 118 377 88 293 q 179 546 149 462 q 184 558 182 552 q 188 570 186 565 q 192 583 190 576 q 199 600 196 591 q 205 617 202 608 q 221 660 213 639 q 235 701 228 681 q 240 713 238 707 q 244 725 242 719 q 249 736 247 731 q 256 756 252 747 q 263 774 260 765 q 280 821 274 803 q 288 842 287 839 q 354 927 310 899 q 456 954 399 956 q 558 923 515 953 q 613 831 601 892 q 616 814 614 822 q 618 797 617 806 q 506 775 535 789 q 476 738 476 762 q 497 699 476 708 q 553 694 517 690 q 635 707 589 699 q 643 665 639 686 q 650 624 647 644 q 559 602 585 615 q 533 563 533 589 q 553 524 533 532 q 604 520 574 515 q 667 533 635 524 q 694 394 681 464 q 719 256 707 325 q 744 119 732 188 q 768 -17 757 51 q 760 -76 776 -55 q 721 -97 744 -97 q 685 -84 703 -97 q 657 -43 667 -71 q 545 278 601 113 q 436 592 490 444 q 407 651 422 633 q 368 669 393 669 q 329 653 344 669 q 301 590 313 636 q 238 339 269 467 q 176 93 207 211 q 144 38 166 55 q 97 21 122 21 q 33 55 53 21 q 31 136 14 88 m 171 349 l 197 436 q 261 438 230 438 q 325 436 293 438 q 397 424 373 434 q 421 383 421 415 q 400 343 421 353 q 319 335 379 332 q 245 341 282 337 q 171 349 208 344 m 185 169 q 133 187 153 174 q 114 221 114 200 q 139 262 114 253 q 200 267 165 270 q 391 250 291 260 q 589 231 490 241 l 617 125 q 389 147 500 135 q 185 169 278 158 m 229 640 q 155 675 183 660 q 114 703 126 690 q 101 733 101 717 q 125 773 101 766 q 187 770 149 781 q 269 742 226 760 l 229 640 m 181 479 q 93 506 126 494 q 47 530 61 518 q 33 558 33 542 q 57 599 33 592 q 120 597 81 606 q 206 571 159 588 l 181 479 m 571 342 l 550 446 q 607 452 585 452 q 639 436 629 451 q 649 385 649 422 q 629 352 649 359 q 571 342 610 345 m 621 119 l 600 231 q 658 237 636 238 q 689 219 679 235 q 699 164 699 202 q 679 129 699 136 q 621 119 660 122 m 586 1253 q 633 1271 610 1271 q 665 1259 652 1271 q 678 1228 678 1247 q 654 1174 678 1199 q 576 1091 610 1126 q 492 1015 541 1056 q 420 988 460 988 q 365 1010 388 988 q 303 1073 334 1041 q 244 1140 272 1105 q 224 1194 224 1168 q 243 1237 224 1221 q 285 1253 263 1253 q 335 1226 315 1253 q 368 1179 355 1199 q 394 1144 382 1159 q 418 1129 405 1133 q 447 1138 431 1125 q 510 1190 472 1156 q 586 1253 548 1224 z "},"ǎ":{"ha":785,"x_min":14,"x_max":776,"o":"m 31 136 q 64 228 40 163 q 118 377 88 293 q 179 546 149 462 q 184 558 182 552 q 188 570 186 565 q 192 583 190 576 q 199 600 196 591 q 205 617 202 608 q 221 660 213 639 q 235 701 228 681 q 240 713 238 707 q 244 725 242 719 q 249 736 247 731 q 256 756 252 747 q 263 774 260 765 q 280 821 274 803 q 288 842 287 839 q 354 927 310 899 q 456 954 399 956 q 558 923 515 953 q 613 831 601 892 q 616 814 614 822 q 618 797 617 806 q 506 775 535 789 q 476 738 476 762 q 497 699 476 708 q 553 694 517 690 q 635 707 589 699 q 643 665 639 686 q 650 624 647 644 q 559 602 585 615 q 533 563 533 589 q 553 524 533 532 q 604 520 574 515 q 667 533 635 524 q 694 394 681 464 q 719 256 707 325 q 744 119 732 188 q 768 -17 757 51 q 760 -76 776 -55 q 721 -97 744 -97 q 685 -84 703 -97 q 657 -43 667 -71 q 545 278 601 113 q 436 592 490 444 q 407 651 422 633 q 368 669 393 669 q 329 653 344 669 q 301 590 313 636 q 238 339 269 467 q 176 93 207 211 q 144 38 166 55 q 97 21 122 21 q 33 55 53 21 q 31 136 14 88 m 171 349 l 197 436 q 261 438 230 438 q 325 436 293 438 q 397 424 373 434 q 421 383 421 415 q 400 343 421 353 q 319 335 379 332 q 245 341 282 337 q 171 349 208 344 m 185 169 q 133 187 153 174 q 114 221 114 200 q 139 262 114 253 q 200 267 165 270 q 391 250 291 260 q 589 231 490 241 l 617 125 q 389 147 500 135 q 185 169 278 158 m 229 640 q 155 675 183 660 q 114 703 126 690 q 101 733 101 717 q 125 773 101 766 q 187 770 149 781 q 269 742 226 760 l 229 640 m 181 479 q 93 506 126 494 q 47 530 61 518 q 33 558 33 542 q 57 599 33 592 q 120 597 81 606 q 206 571 159 588 l 181 479 m 571 342 l 550 446 q 607 452 585 452 q 639 436 629 451 q 649 385 649 422 q 629 352 649 359 q 571 342 610 345 m 621 119 l 600 231 q 658 237 636 238 q 689 219 679 235 q 699 164 699 202 q 679 129 699 136 q 621 119 660 122 m 586 1253 q 633 1271 610 1271 q 665 1259 652 1271 q 678 1228 678 1247 q 654 1174 678 1199 q 576 1091 610 1126 q 492 1015 541 1056 q 420 988 460 988 q 365 1010 388 988 q 303 1073 334 1041 q 244 1140 272 1105 q 224 1194 224 1168 q 243 1237 224 1221 q 285 1253 263 1253 q 335 1226 315 1253 q 368 1179 355 1199 q 394 1144 382 1159 q 418 1129 405 1133 q 447 1138 431 1125 q 510 1190 472 1156 q 586 1253 548 1224 z "},"Â":{"ha":785,"x_min":14,"x_max":776,"o":"m 31 136 q 64 228 40 163 q 118 377 88 293 q 179 546 149 462 q 184 558 182 552 q 188 570 186 565 q 192 583 190 576 q 199 600 196 591 q 205 617 202 608 q 221 660 213 639 q 235 701 228 681 q 240 713 238 707 q 244 725 242 719 q 249 736 247 731 q 256 756 252 747 q 263 774 260 765 q 280 821 274 803 q 288 842 287 839 q 354 927 310 899 q 456 954 399 956 q 558 923 515 953 q 613 831 601 892 q 616 814 614 822 q 618 797 617 806 q 506 775 535 789 q 476 738 476 762 q 497 699 476 708 q 553 694 517 690 q 635 707 589 699 q 643 665 639 686 q 650 624 647 644 q 559 602 585 615 q 533 563 533 589 q 553 524 533 532 q 604 520 574 515 q 667 533 635 524 q 694 394 681 464 q 719 256 707 325 q 744 119 732 188 q 768 -17 757 51 q 760 -76 776 -55 q 721 -97 744 -97 q 685 -84 703 -97 q 657 -43 667 -71 q 545 278 601 113 q 436 592 490 444 q 407 651 422 633 q 368 669 393 669 q 329 653 344 669 q 301 590 313 636 q 238 339 269 467 q 176 93 207 211 q 144 38 166 55 q 97 21 122 21 q 33 55 53 21 q 31 136 14 88 m 171 349 l 197 436 q 261 438 230 438 q 325 436 293 438 q 397 424 373 434 q 421 383 421 415 q 400 343 421 353 q 319 335 379 332 q 245 341 282 337 q 171 349 208 344 m 185 169 q 133 187 153 174 q 114 221 114 200 q 139 262 114 253 q 200 267 165 270 q 391 250 291 260 q 589 231 490 241 l 617 125 q 389 147 500 135 q 185 169 278 158 m 229 640 q 155 675 183 660 q 114 703 126 690 q 101 733 101 717 q 125 773 101 766 q 187 770 149 781 q 269 742 226 760 l 229 640 m 181 479 q 93 506 126 494 q 47 530 61 518 q 33 558 33 542 q 57 599 33 592 q 120 597 81 606 q 206 571 159 588 l 181 479 m 571 342 l 550 446 q 607 452 585 452 q 639 436 629 451 q 649 385 649 422 q 629 352 649 359 q 571 342 610 345 m 621 119 l 600 231 q 658 237 636 238 q 689 219 679 235 q 699 164 699 202 q 679 129 699 136 q 621 119 660 122 m 297 963 q 250 944 273 944 q 218 956 231 944 q 206 988 206 968 q 229 1042 206 1016 q 308 1125 273 1090 q 392 1200 343 1160 q 463 1228 424 1228 q 518 1206 496 1228 q 581 1142 549 1174 q 639 1075 612 1110 q 660 1021 660 1047 q 640 978 660 994 q 598 962 621 962 q 549 989 568 962 q 515 1036 529 1016 q 489 1071 501 1056 q 466 1086 478 1083 q 436 1078 453 1090 q 374 1026 413 1060 q 297 963 336 992 z "},"â":{"ha":785,"x_min":14,"x_max":776,"o":"m 31 136 q 64 228 40 163 q 118 377 88 293 q 179 546 149 462 q 184 558 182 552 q 188 570 186 565 q 192 583 190 576 q 199 600 196 591 q 205 617 202 608 q 221 660 213 639 q 235 701 228 681 q 240 713 238 707 q 244 725 242 719 q 249 736 247 731 q 256 756 252 747 q 263 774 260 765 q 280 821 274 803 q 288 842 287 839 q 354 927 310 899 q 456 954 399 956 q 558 923 515 953 q 613 831 601 892 q 616 814 614 822 q 618 797 617 806 q 506 775 535 789 q 476 738 476 762 q 497 699 476 708 q 553 694 517 690 q 635 707 589 699 q 643 665 639 686 q 650 624 647 644 q 559 602 585 615 q 533 563 533 589 q 553 524 533 532 q 604 520 574 515 q 667 533 635 524 q 694 394 681 464 q 719 256 707 325 q 744 119 732 188 q 768 -17 757 51 q 760 -76 776 -55 q 721 -97 744 -97 q 685 -84 703 -97 q 657 -43 667 -71 q 545 278 601 113 q 436 592 490 444 q 407 651 422 633 q 368 669 393 669 q 329 653 344 669 q 301 590 313 636 q 238 339 269 467 q 176 93 207 211 q 144 38 166 55 q 97 21 122 21 q 33 55 53 21 q 31 136 14 88 m 171 349 l 197 436 q 261 438 230 438 q 325 436 293 438 q 397 424 373 434 q 421 383 421 415 q 400 343 421 353 q 319 335 379 332 q 245 341 282 337 q 171 349 208 344 m 185 169 q 133 187 153 174 q 114 221 114 200 q 139 262 114 253 q 200 267 165 270 q 391 250 291 260 q 589 231 490 241 l 617 125 q 389 147 500 135 q 185 169 278 158 m 229 640 q 155 675 183 660 q 114 703 126 690 q 101 733 101 717 q 125 773 101 766 q 187 770 149 781 q 269 742 226 760 l 229 640 m 181 479 q 93 506 126 494 q 47 530 61 518 q 33 558 33 542 q 57 599 33 592 q 120 597 81 606 q 206 571 159 588 l 181 479 m 571 342 l 550 446 q 607 452 585 452 q 639 436 629 451 q 649 385 649 422 q 629 352 649 359 q 571 342 610 345 m 621 119 l 600 231 q 658 237 636 238 q 689 219 679 235 q 699 164 699 202 q 679 129 699 136 q 621 119 660 122 m 297 963 q 250 944 273 944 q 218 956 231 944 q 206 988 206 968 q 229 1042 206 1016 q 308 1125 273 1090 q 392 1200 343 1160 q 463 1228 424 1228 q 518 1206 496 1228 q 581 1142 549 1174 q 639 1075 612 1110 q 660 1021 660 1047 q 640 978 660 994 q 598 962 621 962 q 549 989 568 962 q 515 1036 529 1016 q 489 1071 501 1056 q 466 1086 478 1083 q 436 1078 453 1090 q 374 1026 413 1060 q 297 963 336 992 z "},"Ấ":{"ha":785,"x_min":14,"x_max":838,"o":"m 31 136 q 64 228 40 163 q 118 377 88 293 q 179 546 149 462 q 184 558 182 552 q 188 570 186 565 q 192 583 190 576 q 199 600 196 591 q 205 617 202 608 q 221 660 213 639 q 235 701 228 681 q 240 713 238 707 q 244 725 242 719 q 249 736 247 731 q 256 756 252 747 q 263 774 260 765 q 280 821 274 803 q 288 842 287 839 q 354 927 310 899 q 456 954 399 956 q 558 923 515 953 q 613 831 601 892 q 616 814 614 822 q 618 797 617 806 q 506 775 535 789 q 476 738 476 762 q 497 699 476 708 q 553 694 517 690 q 635 707 589 699 q 643 665 639 686 q 650 624 647 644 q 559 602 585 615 q 533 563 533 589 q 553 524 533 532 q 604 520 574 515 q 667 533 635 524 q 694 394 681 464 q 719 256 707 325 q 744 119 732 188 q 768 -17 757 51 q 760 -76 776 -55 q 721 -97 744 -97 q 685 -84 703 -97 q 657 -43 667 -71 q 545 278 601 113 q 436 592 490 444 q 407 651 422 633 q 368 669 393 669 q 329 653 344 669 q 301 590 313 636 q 238 339 269 467 q 176 93 207 211 q 144 38 166 55 q 97 21 122 21 q 33 55 53 21 q 31 136 14 88 m 171 349 l 197 436 q 261 438 230 438 q 325 436 293 438 q 397 424 373 434 q 421 383 421 415 q 400 343 421 353 q 319 335 379 332 q 245 341 282 337 q 171 349 208 344 m 185 169 q 133 187 153 174 q 114 221 114 200 q 139 262 114 253 q 200 267 165 270 q 391 250 291 260 q 589 231 490 241 l 617 125 q 389 147 500 135 q 185 169 278 158 m 229 640 q 155 675 183 660 q 114 703 126 690 q 101 733 101 717 q 125 773 101 766 q 187 770 149 781 q 269 742 226 760 l 229 640 m 181 479 q 93 506 126 494 q 47 530 61 518 q 33 558 33 542 q 57 599 33 592 q 120 597 81 606 q 206 571 159 588 l 181 479 m 571 342 l 550 446 q 607 452 585 452 q 639 436 629 451 q 649 385 649 422 q 629 352 649 359 q 571 342 610 345 m 621 119 l 600 231 q 658 237 636 238 q 689 219 679 235 q 699 164 699 202 q 679 129 699 136 q 621 119 660 122 m 297 963 q 250 944 273 944 q 218 956 231 944 q 206 988 206 968 q 229 1042 206 1016 q 308 1125 273 1090 q 392 1200 343 1160 q 463 1228 424 1228 q 518 1206 496 1228 q 581 1142 549 1174 q 639 1075 612 1110 q 660 1021 660 1047 q 640 978 660 994 q 598 962 621 962 q 549 989 568 962 q 515 1036 529 1016 q 489 1071 501 1056 q 466 1086 478 1083 q 436 1078 453 1090 q 374 1026 413 1060 q 297 963 336 992 m 712 1152 q 687 1124 701 1133 q 656 1117 672 1114 q 631 1133 639 1121 q 626 1183 618 1151 q 642 1256 633 1217 q 659 1332 651 1294 q 676 1399 668 1369 q 713 1451 687 1433 q 774 1463 741 1471 q 824 1429 807 1455 q 837 1390 836 1413 q 822 1340 838 1367 q 766 1242 797 1295 q 712 1152 735 1190 z "},"ấ":{"ha":785,"x_min":14,"x_max":838,"o":"m 31 136 q 64 228 40 163 q 118 377 88 293 q 179 546 149 462 q 184 558 182 552 q 188 570 186 565 q 192 583 190 576 q 199 600 196 591 q 205 617 202 608 q 221 660 213 639 q 235 701 228 681 q 240 713 238 707 q 244 725 242 719 q 249 736 247 731 q 256 756 252 747 q 263 774 260 765 q 280 821 274 803 q 288 842 287 839 q 354 927 310 899 q 456 954 399 956 q 558 923 515 953 q 613 831 601 892 q 616 814 614 822 q 618 797 617 806 q 506 775 535 789 q 476 738 476 762 q 497 699 476 708 q 553 694 517 690 q 635 707 589 699 q 643 665 639 686 q 650 624 647 644 q 559 602 585 615 q 533 563 533 589 q 553 524 533 532 q 604 520 574 515 q 667 533 635 524 q 694 394 681 464 q 719 256 707 325 q 744 119 732 188 q 768 -17 757 51 q 760 -76 776 -55 q 721 -97 744 -97 q 685 -84 703 -97 q 657 -43 667 -71 q 545 278 601 113 q 436 592 490 444 q 407 651 422 633 q 368 669 393 669 q 329 653 344 669 q 301 590 313 636 q 238 339 269 467 q 176 93 207 211 q 144 38 166 55 q 97 21 122 21 q 33 55 53 21 q 31 136 14 88 m 171 349 l 197 436 q 261 438 230 438 q 325 436 293 438 q 397 424 373 434 q 421 383 421 415 q 400 343 421 353 q 319 335 379 332 q 245 341 282 337 q 171 349 208 344 m 185 169 q 133 187 153 174 q 114 221 114 200 q 139 262 114 253 q 200 267 165 270 q 391 250 291 260 q 589 231 490 241 l 617 125 q 389 147 500 135 q 185 169 278 158 m 229 640 q 155 675 183 660 q 114 703 126 690 q 101 733 101 717 q 125 773 101 766 q 187 770 149 781 q 269 742 226 760 l 229 640 m 181 479 q 93 506 126 494 q 47 530 61 518 q 33 558 33 542 q 57 599 33 592 q 120 597 81 606 q 206 571 159 588 l 181 479 m 571 342 l 550 446 q 607 452 585 452 q 639 436 629 451 q 649 385 649 422 q 629 352 649 359 q 571 342 610 345 m 621 119 l 600 231 q 658 237 636 238 q 689 219 679 235 q 699 164 699 202 q 679 129 699 136 q 621 119 660 122 m 297 963 q 250 944 273 944 q 218 956 231 944 q 206 988 206 968 q 229 1042 206 1016 q 308 1125 273 1090 q 392 1200 343 1160 q 463 1228 424 1228 q 518 1206 496 1228 q 581 1142 549 1174 q 639 1075 612 1110 q 660 1021 660 1047 q 640 978 660 994 q 598 962 621 962 q 549 989 568 962 q 515 1036 529 1016 q 489 1071 501 1056 q 466 1086 478 1083 q 436 1078 453 1090 q 374 1026 413 1060 q 297 963 336 992 m 712 1152 q 687 1124 701 1133 q 656 1117 672 1114 q 631 1133 639 1121 q 626 1183 618 1151 q 642 1256 633 1217 q 659 1332 651 1294 q 676 1399 668 1369 q 713 1451 687 1433 q 774 1463 741 1471 q 824 1429 807 1455 q 837 1390 836 1413 q 822 1340 838 1367 q 766 1242 797 1295 q 712 1152 735 1190 z "},"Ậ":{"ha":785,"x_min":14,"x_max":776,"o":"m 31 136 q 64 228 40 163 q 118 377 88 293 q 179 546 149 462 q 184 558 182 552 q 188 570 186 565 q 192 583 190 576 q 199 600 196 591 q 205 617 202 608 q 221 660 213 639 q 235 701 228 681 q 240 713 238 707 q 244 725 242 719 q 249 736 247 731 q 256 756 252 747 q 263 774 260 765 q 280 821 274 803 q 288 842 287 839 q 354 927 310 899 q 456 954 399 956 q 558 923 515 953 q 613 831 601 892 q 616 814 614 822 q 618 797 617 806 q 506 775 535 789 q 476 738 476 762 q 497 699 476 708 q 553 694 517 690 q 635 707 589 699 q 643 665 639 686 q 650 624 647 644 q 559 602 585 615 q 533 563 533 589 q 553 524 533 532 q 604 520 574 515 q 667 533 635 524 q 694 394 681 464 q 719 256 707 325 q 744 119 732 188 q 768 -17 757 51 q 760 -76 776 -55 q 721 -97 744 -97 q 685 -84 703 -97 q 657 -43 667 -71 q 545 278 601 113 q 436 592 490 444 q 407 651 422 633 q 368 669 393 669 q 329 653 344 669 q 301 590 313 636 q 238 339 269 467 q 176 93 207 211 q 144 38 166 55 q 97 21 122 21 q 33 55 53 21 q 31 136 14 88 m 171 349 l 197 436 q 261 438 230 438 q 325 436 293 438 q 397 424 373 434 q 421 383 421 415 q 400 343 421 353 q 319 335 379 332 q 245 341 282 337 q 171 349 208 344 m 185 169 q 133 187 153 174 q 114 221 114 200 q 139 262 114 253 q 200 267 165 270 q 391 250 291 260 q 589 231 490 241 l 617 125 q 389 147 500 135 q 185 169 278 158 m 229 640 q 155 675 183 660 q 114 703 126 690 q 101 733 101 717 q 125 773 101 766 q 187 770 149 781 q 269 742 226 760 l 229 640 m 181 479 q 93 506 126 494 q 47 530 61 518 q 33 558 33 542 q 57 599 33 592 q 120 597 81 606 q 206 571 159 588 l 181 479 m 571 342 l 550 446 q 607 452 585 452 q 639 436 629 451 q 649 385 649 422 q 629 352 649 359 q 571 342 610 345 m 621 119 l 600 231 q 658 237 636 238 q 689 219 679 235 q 699 164 699 202 q 679 129 699 136 q 621 119 660 122 m 297 963 q 250 944 273 944 q 218 956 231 944 q 206 988 206 968 q 229 1042 206 1016 q 308 1125 273 1090 q 392 1200 343 1160 q 463 1228 424 1228 q 518 1206 496 1228 q 581 1142 549 1174 q 639 1075 612 1110 q 660 1021 660 1047 q 640 978 660 994 q 598 962 621 962 q 549 989 568 962 q 515 1036 529 1016 q 489 1071 501 1056 q 466 1086 478 1083 q 436 1078 453 1090 q 374 1026 413 1060 q 297 963 336 992 m 417 -215 q 342 -188 367 -215 q 317 -108 317 -161 q 347 -40 317 -65 q 425 -15 377 -15 q 490 -42 463 -15 q 517 -122 517 -68 q 489 -187 517 -160 q 417 -215 460 -215 z "},"ậ":{"ha":785,"x_min":14,"x_max":776,"o":"m 31 136 q 64 228 40 163 q 118 377 88 293 q 179 546 149 462 q 184 558 182 552 q 188 570 186 565 q 192 583 190 576 q 199 600 196 591 q 205 617 202 608 q 221 660 213 639 q 235 701 228 681 q 240 713 238 707 q 244 725 242 719 q 249 736 247 731 q 256 756 252 747 q 263 774 260 765 q 280 821 274 803 q 288 842 287 839 q 354 927 310 899 q 456 954 399 956 q 558 923 515 953 q 613 831 601 892 q 616 814 614 822 q 618 797 617 806 q 506 775 535 789 q 476 738 476 762 q 497 699 476 708 q 553 694 517 690 q 635 707 589 699 q 643 665 639 686 q 650 624 647 644 q 559 602 585 615 q 533 563 533 589 q 553 524 533 532 q 604 520 574 515 q 667 533 635 524 q 694 394 681 464 q 719 256 707 325 q 744 119 732 188 q 768 -17 757 51 q 760 -76 776 -55 q 721 -97 744 -97 q 685 -84 703 -97 q 657 -43 667 -71 q 545 278 601 113 q 436 592 490 444 q 407 651 422 633 q 368 669 393 669 q 329 653 344 669 q 301 590 313 636 q 238 339 269 467 q 176 93 207 211 q 144 38 166 55 q 97 21 122 21 q 33 55 53 21 q 31 136 14 88 m 171 349 l 197 436 q 261 438 230 438 q 325 436 293 438 q 397 424 373 434 q 421 383 421 415 q 400 343 421 353 q 319 335 379 332 q 245 341 282 337 q 171 349 208 344 m 185 169 q 133 187 153 174 q 114 221 114 200 q 139 262 114 253 q 200 267 165 270 q 391 250 291 260 q 589 231 490 241 l 617 125 q 389 147 500 135 q 185 169 278 158 m 229 640 q 155 675 183 660 q 114 703 126 690 q 101 733 101 717 q 125 773 101 766 q 187 770 149 781 q 269 742 226 760 l 229 640 m 181 479 q 93 506 126 494 q 47 530 61 518 q 33 558 33 542 q 57 599 33 592 q 120 597 81 606 q 206 571 159 588 l 181 479 m 571 342 l 550 446 q 607 452 585 452 q 639 436 629 451 q 649 385 649 422 q 629 352 649 359 q 571 342 610 345 m 621 119 l 600 231 q 658 237 636 238 q 689 219 679 235 q 699 164 699 202 q 679 129 699 136 q 621 119 660 122 m 297 963 q 250 944 273 944 q 218 956 231 944 q 206 988 206 968 q 229 1042 206 1016 q 308 1125 273 1090 q 392 1200 343 1160 q 463 1228 424 1228 q 518 1206 496 1228 q 581 1142 549 1174 q 639 1075 612 1110 q 660 1021 660 1047 q 640 978 660 994 q 598 962 621 962 q 549 989 568 962 q 515 1036 529 1016 q 489 1071 501 1056 q 466 1086 478 1083 q 436 1078 453 1090 q 374 1026 413 1060 q 297 963 336 992 m 417 -215 q 342 -188 367 -215 q 317 -108 317 -161 q 347 -40 317 -65 q 425 -15 377 -15 q 490 -42 463 -15 q 517 -122 517 -68 q 489 -187 517 -160 q 417 -215 460 -215 z "},"Ầ":{"ha":785,"x_min":14,"x_max":785,"o":"m 31 136 q 64 228 40 163 q 118 377 88 293 q 179 546 149 462 q 184 558 182 552 q 188 570 186 565 q 192 583 190 576 q 199 600 196 591 q 205 617 202 608 q 221 660 213 639 q 235 701 228 681 q 240 713 238 707 q 244 725 242 719 q 249 736 247 731 q 256 756 252 747 q 263 774 260 765 q 280 821 274 803 q 288 842 287 839 q 354 927 310 899 q 456 954 399 956 q 558 923 515 953 q 613 831 601 892 q 616 814 614 822 q 618 797 617 806 q 506 775 535 789 q 476 738 476 762 q 497 699 476 708 q 553 694 517 690 q 635 707 589 699 q 643 665 639 686 q 650 624 647 644 q 559 602 585 615 q 533 563 533 589 q 553 524 533 532 q 604 520 574 515 q 667 533 635 524 q 694 394 681 464 q 719 256 707 325 q 744 119 732 188 q 768 -17 757 51 q 760 -76 776 -55 q 721 -97 744 -97 q 685 -84 703 -97 q 657 -43 667 -71 q 545 278 601 113 q 436 592 490 444 q 407 651 422 633 q 368 669 393 669 q 329 653 344 669 q 301 590 313 636 q 238 339 269 467 q 176 93 207 211 q 144 38 166 55 q 97 21 122 21 q 33 55 53 21 q 31 136 14 88 m 171 349 l 197 436 q 261 438 230 438 q 325 436 293 438 q 397 424 373 434 q 421 383 421 415 q 400 343 421 353 q 319 335 379 332 q 245 341 282 337 q 171 349 208 344 m 185 169 q 133 187 153 174 q 114 221 114 200 q 139 262 114 253 q 200 267 165 270 q 391 250 291 260 q 589 231 490 241 l 617 125 q 389 147 500 135 q 185 169 278 158 m 229 640 q 155 675 183 660 q 114 703 126 690 q 101 733 101 717 q 125 773 101 766 q 187 770 149 781 q 269 742 226 760 l 229 640 m 181 479 q 93 506 126 494 q 47 530 61 518 q 33 558 33 542 q 57 599 33 592 q 120 597 81 606 q 206 571 159 588 l 181 479 m 571 342 l 550 446 q 607 452 585 452 q 639 436 629 451 q 649 385 649 422 q 629 352 649 359 q 571 342 610 345 m 621 119 l 600 231 q 658 237 636 238 q 689 219 679 235 q 699 164 699 202 q 679 129 699 136 q 621 119 660 122 m 297 963 q 250 944 273 944 q 218 956 231 944 q 206 988 206 968 q 229 1042 206 1016 q 308 1125 273 1090 q 392 1200 343 1160 q 463 1228 424 1228 q 518 1206 496 1228 q 581 1142 549 1174 q 639 1075 612 1110 q 660 1021 660 1047 q 640 978 660 994 q 598 962 621 962 q 549 989 568 962 q 515 1036 529 1016 q 489 1071 501 1056 q 466 1086 478 1083 q 436 1078 453 1090 q 374 1026 413 1060 q 297 963 336 992 m 679 1128 q 609 1203 641 1167 q 544 1281 576 1240 q 517 1332 524 1308 q 520 1378 511 1357 q 560 1416 532 1404 q 616 1415 588 1427 q 667 1368 645 1402 q 718 1280 695 1324 q 767 1182 742 1235 q 775 1125 785 1148 q 750 1101 767 1108 q 713 1103 733 1095 q 679 1128 697 1110 z "},"ầ":{"ha":785,"x_min":14,"x_max":785,"o":"m 31 136 q 64 228 40 163 q 118 377 88 293 q 179 546 149 462 q 184 558 182 552 q 188 570 186 565 q 192 583 190 576 q 199 600 196 591 q 205 617 202 608 q 221 660 213 639 q 235 701 228 681 q 240 713 238 707 q 244 725 242 719 q 249 736 247 731 q 256 756 252 747 q 263 774 260 765 q 280 821 274 803 q 288 842 287 839 q 354 927 310 899 q 456 954 399 956 q 558 923 515 953 q 613 831 601 892 q 616 814 614 822 q 618 797 617 806 q 506 775 535 789 q 476 738 476 762 q 497 699 476 708 q 553 694 517 690 q 635 707 589 699 q 643 665 639 686 q 650 624 647 644 q 559 602 585 615 q 533 563 533 589 q 553 524 533 532 q 604 520 574 515 q 667 533 635 524 q 694 394 681 464 q 719 256 707 325 q 744 119 732 188 q 768 -17 757 51 q 760 -76 776 -55 q 721 -97 744 -97 q 685 -84 703 -97 q 657 -43 667 -71 q 545 278 601 113 q 436 592 490 444 q 407 651 422 633 q 368 669 393 669 q 329 653 344 669 q 301 590 313 636 q 238 339 269 467 q 176 93 207 211 q 144 38 166 55 q 97 21 122 21 q 33 55 53 21 q 31 136 14 88 m 171 349 l 197 436 q 261 438 230 438 q 325 436 293 438 q 397 424 373 434 q 421 383 421 415 q 400 343 421 353 q 319 335 379 332 q 245 341 282 337 q 171 349 208 344 m 185 169 q 133 187 153 174 q 114 221 114 200 q 139 262 114 253 q 200 267 165 270 q 391 250 291 260 q 589 231 490 241 l 617 125 q 389 147 500 135 q 185 169 278 158 m 229 640 q 155 675 183 660 q 114 703 126 690 q 101 733 101 717 q 125 773 101 766 q 187 770 149 781 q 269 742 226 760 l 229 640 m 181 479 q 93 506 126 494 q 47 530 61 518 q 33 558 33 542 q 57 599 33 592 q 120 597 81 606 q 206 571 159 588 l 181 479 m 571 342 l 550 446 q 607 452 585 452 q 639 436 629 451 q 649 385 649 422 q 629 352 649 359 q 571 342 610 345 m 621 119 l 600 231 q 658 237 636 238 q 689 219 679 235 q 699 164 699 202 q 679 129 699 136 q 621 119 660 122 m 297 963 q 250 944 273 944 q 218 956 231 944 q 206 988 206 968 q 229 1042 206 1016 q 308 1125 273 1090 q 392 1200 343 1160 q 463 1228 424 1228 q 518 1206 496 1228 q 581 1142 549 1174 q 639 1075 612 1110 q 660 1021 660 1047 q 640 978 660 994 q 598 962 621 962 q 549 989 568 962 q 515 1036 529 1016 q 489 1071 501 1056 q 466 1086 478 1083 q 436 1078 453 1090 q 374 1026 413 1060 q 297 963 336 992 m 679 1128 q 609 1203 641 1167 q 544 1281 576 1240 q 517 1332 524 1308 q 520 1378 511 1357 q 560 1416 532 1404 q 616 1415 588 1427 q 667 1368 645 1402 q 718 1280 695 1324 q 767 1182 742 1235 q 775 1125 785 1148 q 750 1101 767 1108 q 713 1103 733 1095 q 679 1128 697 1110 z "},"Ẩ":{"ha":785,"x_min":14,"x_max":844,"o":"m 31 136 q 64 228 40 163 q 118 377 88 293 q 179 546 149 462 q 184 558 182 552 q 188 570 186 565 q 192 583 190 576 q 199 600 196 591 q 205 617 202 608 q 221 660 213 639 q 235 701 228 681 q 240 713 238 707 q 244 725 242 719 q 249 736 247 731 q 256 756 252 747 q 263 774 260 765 q 280 821 274 803 q 288 842 287 839 q 354 927 310 899 q 456 954 399 956 q 558 923 515 953 q 613 831 601 892 q 616 814 614 822 q 618 797 617 806 q 506 775 535 789 q 476 738 476 762 q 497 699 476 708 q 553 694 517 690 q 635 707 589 699 q 643 665 639 686 q 650 624 647 644 q 559 602 585 615 q 533 563 533 589 q 553 524 533 532 q 604 520 574 515 q 667 533 635 524 q 694 394 681 464 q 719 256 707 325 q 744 119 732 188 q 768 -17 757 51 q 760 -76 776 -55 q 721 -97 744 -97 q 685 -84 703 -97 q 657 -43 667 -71 q 545 278 601 113 q 436 592 490 444 q 407 651 422 633 q 368 669 393 669 q 329 653 344 669 q 301 590 313 636 q 238 339 269 467 q 176 93 207 211 q 144 38 166 55 q 97 21 122 21 q 33 55 53 21 q 31 136 14 88 m 171 349 l 197 436 q 261 438 230 438 q 325 436 293 438 q 397 424 373 434 q 421 383 421 415 q 400 343 421 353 q 319 335 379 332 q 245 341 282 337 q 171 349 208 344 m 185 169 q 133 187 153 174 q 114 221 114 200 q 139 262 114 253 q 200 267 165 270 q 391 250 291 260 q 589 231 490 241 l 617 125 q 389 147 500 135 q 185 169 278 158 m 229 640 q 155 675 183 660 q 114 703 126 690 q 101 733 101 717 q 125 773 101 766 q 187 770 149 781 q 269 742 226 760 l 229 640 m 181 479 q 93 506 126 494 q 47 530 61 518 q 33 558 33 542 q 57 599 33 592 q 120 597 81 606 q 206 571 159 588 l 181 479 m 571 342 l 550 446 q 607 452 585 452 q 639 436 629 451 q 649 385 649 422 q 629 352 649 359 q 571 342 610 345 m 621 119 l 600 231 q 658 237 636 238 q 689 219 679 235 q 699 164 699 202 q 679 129 699 136 q 621 119 660 122 m 297 965 q 250 947 273 947 q 218 959 231 947 q 206 990 206 971 q 229 1044 206 1019 q 308 1127 273 1092 q 392 1203 343 1163 q 463 1231 424 1231 q 518 1208 496 1231 q 581 1145 549 1177 q 639 1078 612 1113 q 660 1024 660 1050 q 640 981 660 997 q 598 965 621 965 q 549 992 568 965 q 515 1039 529 1019 q 489 1074 501 1059 q 466 1089 478 1085 q 436 1081 453 1093 q 374 1029 413 1063 q 297 965 336 994 m 629 1172 q 645 1201 629 1190 q 683 1221 662 1212 q 721 1242 705 1231 q 738 1272 738 1253 q 723 1295 738 1288 q 686 1303 709 1303 q 632 1294 660 1303 q 576 1285 603 1285 q 539 1301 553 1285 q 524 1342 524 1318 q 542 1388 524 1370 q 592 1415 560 1406 q 663 1424 624 1424 q 798 1385 751 1424 q 844 1282 844 1346 q 820 1209 844 1242 q 756 1158 795 1177 q 672 1139 717 1139 q 641 1147 653 1139 q 629 1172 629 1156 z "},"ẩ":{"ha":785,"x_min":14,"x_max":844,"o":"m 31 136 q 64 228 40 163 q 118 377 88 293 q 179 546 149 462 q 184 558 182 552 q 188 570 186 565 q 192 583 190 576 q 199 600 196 591 q 205 617 202 608 q 221 660 213 639 q 235 701 228 681 q 240 713 238 707 q 244 725 242 719 q 249 736 247 731 q 256 756 252 747 q 263 774 260 765 q 280 821 274 803 q 288 842 287 839 q 354 927 310 899 q 456 954 399 956 q 558 923 515 953 q 613 831 601 892 q 616 814 614 822 q 618 797 617 806 q 506 775 535 789 q 476 738 476 762 q 497 699 476 708 q 553 694 517 690 q 635 707 589 699 q 643 665 639 686 q 650 624 647 644 q 559 602 585 615 q 533 563 533 589 q 553 524 533 532 q 604 520 574 515 q 667 533 635 524 q 694 394 681 464 q 719 256 707 325 q 744 119 732 188 q 768 -17 757 51 q 760 -76 776 -55 q 721 -97 744 -97 q 685 -84 703 -97 q 657 -43 667 -71 q 545 278 601 113 q 436 592 490 444 q 407 651 422 633 q 368 669 393 669 q 329 653 344 669 q 301 590 313 636 q 238 339 269 467 q 176 93 207 211 q 144 38 166 55 q 97 21 122 21 q 33 55 53 21 q 31 136 14 88 m 171 349 l 197 436 q 261 438 230 438 q 325 436 293 438 q 397 424 373 434 q 421 383 421 415 q 400 343 421 353 q 319 335 379 332 q 245 341 282 337 q 171 349 208 344 m 185 169 q 133 187 153 174 q 114 221 114 200 q 139 262 114 253 q 200 267 165 270 q 391 250 291 260 q 589 231 490 241 l 617 125 q 389 147 500 135 q 185 169 278 158 m 229 640 q 155 675 183 660 q 114 703 126 690 q 101 733 101 717 q 125 773 101 766 q 187 770 149 781 q 269 742 226 760 l 229 640 m 181 479 q 93 506 126 494 q 47 530 61 518 q 33 558 33 542 q 57 599 33 592 q 120 597 81 606 q 206 571 159 588 l 181 479 m 571 342 l 550 446 q 607 452 585 452 q 639 436 629 451 q 649 385 649 422 q 629 352 649 359 q 571 342 610 345 m 621 119 l 600 231 q 658 237 636 238 q 689 219 679 235 q 699 164 699 202 q 679 129 699 136 q 621 119 660 122 m 297 965 q 250 947 273 947 q 218 959 231 947 q 206 990 206 971 q 229 1044 206 1019 q 308 1127 273 1092 q 392 1203 343 1163 q 463 1231 424 1231 q 518 1208 496 1231 q 581 1145 549 1177 q 639 1078 612 1113 q 660 1024 660 1050 q 640 981 660 997 q 598 965 621 965 q 549 992 568 965 q 515 1039 529 1019 q 489 1074 501 1059 q 466 1089 478 1085 q 436 1081 453 1093 q 374 1029 413 1063 q 297 965 336 994 m 629 1172 q 645 1201 629 1190 q 683 1221 662 1212 q 721 1242 705 1231 q 738 1272 738 1253 q 723 1295 738 1288 q 686 1303 709 1303 q 632 1294 660 1303 q 576 1285 603 1285 q 539 1301 553 1285 q 524 1342 524 1318 q 542 1388 524 1370 q 592 1415 560 1406 q 663 1424 624 1424 q 798 1385 751 1424 q 844 1282 844 1346 q 820 1209 844 1242 q 756 1158 795 1177 q 672 1139 717 1139 q 641 1147 653 1139 q 629 1172 629 1156 z "},"Ẫ":{"ha":785,"x_min":14,"x_max":776,"o":"m 31 136 q 64 228 40 163 q 118 377 88 293 q 179 546 149 462 q 184 558 182 552 q 188 570 186 565 q 192 583 190 576 q 199 600 196 591 q 205 617 202 608 q 221 660 213 639 q 235 701 228 681 q 240 713 238 707 q 244 725 242 719 q 249 736 247 731 q 256 756 252 747 q 263 774 260 765 q 280 821 274 803 q 288 842 287 839 q 354 927 310 899 q 456 954 399 956 q 558 923 515 953 q 613 831 601 892 q 616 814 614 822 q 618 797 617 806 q 506 775 535 789 q 476 738 476 762 q 497 699 476 708 q 553 694 517 690 q 635 707 589 699 q 643 665 639 686 q 650 624 647 644 q 559 602 585 615 q 533 563 533 589 q 553 524 533 532 q 604 520 574 515 q 667 533 635 524 q 694 394 681 464 q 719 256 707 325 q 744 119 732 188 q 768 -17 757 51 q 760 -76 776 -55 q 721 -97 744 -97 q 685 -84 703 -97 q 657 -43 667 -71 q 545 278 601 113 q 436 592 490 444 q 407 651 422 633 q 368 669 393 669 q 329 653 344 669 q 301 590 313 636 q 238 339 269 467 q 176 93 207 211 q 144 38 166 55 q 97 21 122 21 q 33 55 53 21 q 31 136 14 88 m 171 349 l 197 436 q 261 438 230 438 q 325 436 293 438 q 397 424 373 434 q 421 383 421 415 q 400 343 421 353 q 319 335 379 332 q 245 341 282 337 q 171 349 208 344 m 185 169 q 133 187 153 174 q 114 221 114 200 q 139 262 114 253 q 200 267 165 270 q 391 250 291 260 q 589 231 490 241 l 617 125 q 389 147 500 135 q 185 169 278 158 m 229 640 q 155 675 183 660 q 114 703 126 690 q 101 733 101 717 q 125 773 101 766 q 187 770 149 781 q 269 742 226 760 l 229 640 m 181 479 q 93 506 126 494 q 47 530 61 518 q 33 558 33 542 q 57 599 33 592 q 120 597 81 606 q 206 571 159 588 l 181 479 m 571 342 l 550 446 q 607 452 585 452 q 639 436 629 451 q 649 385 649 422 q 629 352 649 359 q 571 342 610 345 m 621 119 l 600 231 q 658 237 636 238 q 689 219 679 235 q 699 164 699 202 q 679 129 699 136 q 621 119 660 122 m 297 963 q 250 944 273 944 q 218 956 231 944 q 206 988 206 968 q 229 1042 206 1016 q 308 1125 273 1090 q 392 1200 343 1160 q 463 1228 424 1228 q 518 1206 496 1228 q 581 1142 549 1174 q 639 1075 612 1110 q 660 1021 660 1047 q 640 978 660 994 q 598 962 621 962 q 549 989 568 962 q 515 1036 529 1016 q 489 1071 501 1056 q 466 1086 478 1083 q 436 1078 453 1090 q 374 1026 413 1060 q 297 963 336 992 m 267 1249 q 224 1266 239 1249 q 210 1307 210 1283 q 231 1374 210 1341 q 284 1430 251 1408 q 351 1453 317 1453 q 416 1438 391 1453 q 457 1403 440 1423 q 491 1368 474 1383 q 529 1353 507 1353 q 566 1369 553 1353 q 590 1406 580 1385 q 615 1443 601 1427 q 653 1459 629 1459 q 691 1444 679 1459 q 703 1404 703 1428 q 683 1326 703 1363 q 630 1265 663 1289 q 554 1242 596 1242 q 494 1256 519 1242 q 452 1290 470 1271 q 419 1323 434 1308 q 386 1338 403 1338 q 351 1324 365 1338 q 328 1293 338 1311 q 303 1263 317 1276 q 267 1249 290 1249 z "},"ẫ":{"ha":785,"x_min":14,"x_max":776,"o":"m 31 136 q 64 228 40 163 q 118 377 88 293 q 179 546 149 462 q 184 558 182 552 q 188 570 186 565 q 192 583 190 576 q 199 600 196 591 q 205 617 202 608 q 221 660 213 639 q 235 701 228 681 q 240 713 238 707 q 244 725 242 719 q 249 736 247 731 q 256 756 252 747 q 263 774 260 765 q 280 821 274 803 q 288 842 287 839 q 354 927 310 899 q 456 954 399 956 q 558 923 515 953 q 613 831 601 892 q 616 814 614 822 q 618 797 617 806 q 506 775 535 789 q 476 738 476 762 q 497 699 476 708 q 553 694 517 690 q 635 707 589 699 q 643 665 639 686 q 650 624 647 644 q 559 602 585 615 q 533 563 533 589 q 553 524 533 532 q 604 520 574 515 q 667 533 635 524 q 694 394 681 464 q 719 256 707 325 q 744 119 732 188 q 768 -17 757 51 q 760 -76 776 -55 q 721 -97 744 -97 q 685 -84 703 -97 q 657 -43 667 -71 q 545 278 601 113 q 436 592 490 444 q 407 651 422 633 q 368 669 393 669 q 329 653 344 669 q 301 590 313 636 q 238 339 269 467 q 176 93 207 211 q 144 38 166 55 q 97 21 122 21 q 33 55 53 21 q 31 136 14 88 m 171 349 l 197 436 q 261 438 230 438 q 325 436 293 438 q 397 424 373 434 q 421 383 421 415 q 400 343 421 353 q 319 335 379 332 q 245 341 282 337 q 171 349 208 344 m 185 169 q 133 187 153 174 q 114 221 114 200 q 139 262 114 253 q 200 267 165 270 q 391 250 291 260 q 589 231 490 241 l 617 125 q 389 147 500 135 q 185 169 278 158 m 229 640 q 155 675 183 660 q 114 703 126 690 q 101 733 101 717 q 125 773 101 766 q 187 770 149 781 q 269 742 226 760 l 229 640 m 181 479 q 93 506 126 494 q 47 530 61 518 q 33 558 33 542 q 57 599 33 592 q 120 597 81 606 q 206 571 159 588 l 181 479 m 571 342 l 550 446 q 607 452 585 452 q 639 436 629 451 q 649 385 649 422 q 629 352 649 359 q 571 342 610 345 m 621 119 l 600 231 q 658 237 636 238 q 689 219 679 235 q 699 164 699 202 q 679 129 699 136 q 621 119 660 122 m 297 963 q 250 944 273 944 q 218 956 231 944 q 206 988 206 968 q 229 1042 206 1016 q 308 1125 273 1090 q 392 1200 343 1160 q 463 1228 424 1228 q 518 1206 496 1228 q 581 1142 549 1174 q 639 1075 612 1110 q 660 1021 660 1047 q 640 978 660 994 q 598 962 621 962 q 549 989 568 962 q 515 1036 529 1016 q 489 1071 501 1056 q 466 1086 478 1083 q 436 1078 453 1090 q 374 1026 413 1060 q 297 963 336 992 m 267 1249 q 224 1266 239 1249 q 210 1307 210 1283 q 231 1374 210 1341 q 284 1430 251 1408 q 351 1453 317 1453 q 416 1438 391 1453 q 457 1403 440 1423 q 491 1368 474 1383 q 529 1353 507 1353 q 566 1369 553 1353 q 590 1406 580 1385 q 615 1443 601 1427 q 653 1459 629 1459 q 691 1444 679 1459 q 703 1404 703 1428 q 683 1326 703 1363 q 630 1265 663 1289 q 554 1242 596 1242 q 494 1256 519 1242 q 452 1290 470 1271 q 419 1323 434 1308 q 386 1338 403 1338 q 351 1324 365 1338 q 328 1293 338 1311 q 303 1263 317 1276 q 267 1249 290 1249 z "},"Ȁ":{"ha":785,"x_min":14,"x_max":776,"o":"m 31 136 q 64 228 40 163 q 118 377 88 293 q 179 546 149 462 q 184 558 182 552 q 188 570 186 565 q 192 583 190 576 q 199 600 196 591 q 205 617 202 608 q 221 660 213 639 q 235 701 228 681 q 240 713 238 707 q 244 725 242 719 q 249 736 247 731 q 256 756 252 747 q 263 774 260 765 q 280 821 274 803 q 288 842 287 839 q 354 927 310 899 q 456 954 399 956 q 558 923 515 953 q 613 831 601 892 q 616 814 614 822 q 618 797 617 806 q 506 775 535 789 q 476 738 476 762 q 497 699 476 708 q 553 694 517 690 q 635 707 589 699 q 643 665 639 686 q 650 624 647 644 q 559 602 585 615 q 533 563 533 589 q 553 524 533 532 q 604 520 574 515 q 667 533 635 524 q 694 394 681 464 q 719 256 707 325 q 744 119 732 188 q 768 -17 757 51 q 760 -76 776 -55 q 721 -97 744 -97 q 685 -84 703 -97 q 657 -43 667 -71 q 545 278 601 113 q 436 592 490 444 q 407 651 422 633 q 368 669 393 669 q 329 653 344 669 q 301 590 313 636 q 238 339 269 467 q 176 93 207 211 q 144 38 166 55 q 97 21 122 21 q 33 55 53 21 q 31 136 14 88 m 171 349 l 197 436 q 261 438 230 438 q 325 436 293 438 q 397 424 373 434 q 421 383 421 415 q 400 343 421 353 q 319 335 379 332 q 245 341 282 337 q 171 349 208 344 m 185 169 q 133 187 153 174 q 114 221 114 200 q 139 262 114 253 q 200 267 165 270 q 391 250 291 260 q 589 231 490 241 l 617 125 q 389 147 500 135 q 185 169 278 158 m 229 640 q 155 675 183 660 q 114 703 126 690 q 101 733 101 717 q 125 773 101 766 q 187 770 149 781 q 269 742 226 760 l 229 640 m 181 479 q 93 506 126 494 q 47 530 61 518 q 33 558 33 542 q 57 599 33 592 q 120 597 81 606 q 206 571 159 588 l 181 479 m 571 342 l 550 446 q 607 452 585 452 q 639 436 629 451 q 649 385 649 422 q 629 352 649 359 q 571 342 610 345 m 621 119 l 600 231 q 658 237 636 238 q 689 219 679 235 q 699 164 699 202 q 679 129 699 136 q 621 119 660 122 m 335 974 q 300 985 318 974 q 267 1014 283 997 q 214 1079 241 1044 q 164 1142 187 1114 q 140 1205 140 1173 q 162 1253 140 1235 q 210 1272 184 1272 q 246 1261 228 1272 q 275 1231 263 1251 q 315 1159 295 1197 q 354 1081 335 1120 q 369 1044 364 1061 q 374 1015 374 1028 q 362 985 374 995 q 335 974 351 974 m 536 986 q 495 1000 515 986 q 463 1044 476 1015 q 436 1108 451 1072 q 407 1183 422 1144 q 397 1214 401 1199 q 394 1242 394 1229 q 406 1276 394 1265 q 438 1288 419 1288 q 473 1275 456 1288 q 501 1242 490 1263 q 544 1171 522 1208 q 586 1094 565 1134 q 596 1070 592 1083 q 599 1047 599 1058 q 580 1002 599 1018 q 536 986 560 986 z "},"ȁ":{"ha":785,"x_min":14,"x_max":776,"o":"m 31 136 q 64 228 40 163 q 118 377 88 293 q 179 546 149 462 q 184 558 182 552 q 188 570 186 565 q 192 583 190 576 q 199 600 196 591 q 205 617 202 608 q 221 660 213 639 q 235 701 228 681 q 240 713 238 707 q 244 725 242 719 q 249 736 247 731 q 256 756 252 747 q 263 774 260 765 q 280 821 274 803 q 288 842 287 839 q 354 927 310 899 q 456 954 399 956 q 558 923 515 953 q 613 831 601 892 q 616 814 614 822 q 618 797 617 806 q 506 775 535 789 q 476 738 476 762 q 497 699 476 708 q 553 694 517 690 q 635 707 589 699 q 643 665 639 686 q 650 624 647 644 q 559 602 585 615 q 533 563 533 589 q 553 524 533 532 q 604 520 574 515 q 667 533 635 524 q 694 394 681 464 q 719 256 707 325 q 744 119 732 188 q 768 -17 757 51 q 760 -76 776 -55 q 721 -97 744 -97 q 685 -84 703 -97 q 657 -43 667 -71 q 545 278 601 113 q 436 592 490 444 q 407 651 422 633 q 368 669 393 669 q 329 653 344 669 q 301 590 313 636 q 238 339 269 467 q 176 93 207 211 q 144 38 166 55 q 97 21 122 21 q 33 55 53 21 q 31 136 14 88 m 171 349 l 197 436 q 261 438 230 438 q 325 436 293 438 q 397 424 373 434 q 421 383 421 415 q 400 343 421 353 q 319 335 379 332 q 245 341 282 337 q 171 349 208 344 m 185 169 q 133 187 153 174 q 114 221 114 200 q 139 262 114 253 q 200 267 165 270 q 391 250 291 260 q 589 231 490 241 l 617 125 q 389 147 500 135 q 185 169 278 158 m 229 640 q 155 675 183 660 q 114 703 126 690 q 101 733 101 717 q 125 773 101 766 q 187 770 149 781 q 269 742 226 760 l 229 640 m 181 479 q 93 506 126 494 q 47 530 61 518 q 33 558 33 542 q 57 599 33 592 q 120 597 81 606 q 206 571 159 588 l 181 479 m 571 342 l 550 446 q 607 452 585 452 q 639 436 629 451 q 649 385 649 422 q 629 352 649 359 q 571 342 610 345 m 621 119 l 600 231 q 658 237 636 238 q 689 219 679 235 q 699 164 699 202 q 679 129 699 136 q 621 119 660 122 m 335 974 q 300 985 318 974 q 267 1014 283 997 q 214 1079 241 1044 q 164 1142 187 1114 q 140 1205 140 1173 q 162 1253 140 1235 q 210 1272 184 1272 q 246 1261 228 1272 q 275 1231 263 1251 q 315 1159 295 1197 q 354 1081 335 1120 q 369 1044 364 1061 q 374 1015 374 1028 q 362 985 374 995 q 335 974 351 974 m 536 986 q 495 1000 515 986 q 463 1044 476 1015 q 436 1108 451 1072 q 407 1183 422 1144 q 397 1214 401 1199 q 394 1242 394 1229 q 406 1276 394 1265 q 438 1288 419 1288 q 473 1275 456 1288 q 501 1242 490 1263 q 544 1171 522 1208 q 586 1094 565 1134 q 596 1070 592 1083 q 599 1047 599 1058 q 580 1002 599 1018 q 536 986 560 986 z "},"Ä":{"ha":785,"x_min":14,"x_max":776,"o":"m 31 136 q 64 228 40 163 q 118 377 88 293 q 179 546 149 462 q 184 558 182 552 q 188 570 186 565 q 192 583 190 576 q 199 600 196 591 q 205 617 202 608 q 221 660 213 639 q 235 701 228 681 q 240 713 238 707 q 244 725 242 719 q 249 736 247 731 q 256 756 252 747 q 263 774 260 765 q 280 821 274 803 q 288 842 287 839 q 354 927 310 899 q 456 954 399 956 q 558 923 515 953 q 613 831 601 892 q 616 814 614 822 q 618 797 617 806 q 506 775 535 789 q 476 738 476 762 q 497 699 476 708 q 553 694 517 690 q 635 707 589 699 q 643 665 639 686 q 650 624 647 644 q 559 602 585 615 q 533 563 533 589 q 553 524 533 532 q 604 520 574 515 q 667 533 635 524 q 694 394 681 464 q 719 256 707 325 q 744 119 732 188 q 768 -17 757 51 q 760 -76 776 -55 q 721 -97 744 -97 q 685 -84 703 -97 q 657 -43 667 -71 q 545 278 601 113 q 436 592 490 444 q 407 651 422 633 q 368 669 393 669 q 329 653 344 669 q 301 590 313 636 q 238 339 269 467 q 176 93 207 211 q 144 38 166 55 q 97 21 122 21 q 33 55 53 21 q 31 136 14 88 m 171 349 l 197 436 q 261 438 230 438 q 325 436 293 438 q 397 424 373 434 q 421 383 421 415 q 400 343 421 353 q 319 335 379 332 q 245 341 282 337 q 171 349 208 344 m 185 169 q 133 187 153 174 q 114 221 114 200 q 139 262 114 253 q 200 267 165 270 q 391 250 291 260 q 589 231 490 241 l 617 125 q 389 147 500 135 q 185 169 278 158 m 229 640 q 155 675 183 660 q 114 703 126 690 q 101 733 101 717 q 125 773 101 766 q 187 770 149 781 q 269 742 226 760 l 229 640 m 181 479 q 93 506 126 494 q 47 530 61 518 q 33 558 33 542 q 57 599 33 592 q 120 597 81 606 q 206 571 159 588 l 181 479 m 571 342 l 550 446 q 607 452 585 452 q 639 436 629 451 q 649 385 649 422 q 629 352 649 359 q 571 342 610 345 m 621 119 l 600 231 q 658 237 636 238 q 689 219 679 235 q 699 164 699 202 q 679 129 699 136 q 621 119 660 122 m 326 969 q 249 996 274 969 q 224 1057 224 1023 q 252 1136 224 1109 q 322 1164 280 1164 q 394 1139 369 1164 q 418 1074 418 1115 q 392 995 418 1021 q 326 969 366 969 m 571 986 q 507 1010 531 986 q 483 1069 483 1033 q 505 1134 483 1109 q 581 1160 526 1160 q 637 1138 617 1160 q 657 1078 657 1115 q 635 1011 657 1035 q 571 986 614 986 z "},"ä":{"ha":785,"x_min":14,"x_max":776,"o":"m 31 136 q 64 228 40 163 q 118 377 88 293 q 179 546 149 462 q 184 558 182 552 q 188 570 186 565 q 192 583 190 576 q 199 600 196 591 q 205 617 202 608 q 221 660 213 639 q 235 701 228 681 q 240 713 238 707 q 244 725 242 719 q 249 736 247 731 q 256 756 252 747 q 263 774 260 765 q 280 821 274 803 q 288 842 287 839 q 354 927 310 899 q 456 954 399 956 q 558 923 515 953 q 613 831 601 892 q 616 814 614 822 q 618 797 617 806 q 506 775 535 789 q 476 738 476 762 q 497 699 476 708 q 553 694 517 690 q 635 707 589 699 q 643 665 639 686 q 650 624 647 644 q 559 602 585 615 q 533 563 533 589 q 553 524 533 532 q 604 520 574 515 q 667 533 635 524 q 694 394 681 464 q 719 256 707 325 q 744 119 732 188 q 768 -17 757 51 q 760 -76 776 -55 q 721 -97 744 -97 q 685 -84 703 -97 q 657 -43 667 -71 q 545 278 601 113 q 436 592 490 444 q 407 651 422 633 q 368 669 393 669 q 329 653 344 669 q 301 590 313 636 q 238 339 269 467 q 176 93 207 211 q 144 38 166 55 q 97 21 122 21 q 33 55 53 21 q 31 136 14 88 m 171 349 l 197 436 q 261 438 230 438 q 325 436 293 438 q 397 424 373 434 q 421 383 421 415 q 400 343 421 353 q 319 335 379 332 q 245 341 282 337 q 171 349 208 344 m 185 169 q 133 187 153 174 q 114 221 114 200 q 139 262 114 253 q 200 267 165 270 q 391 250 291 260 q 589 231 490 241 l 617 125 q 389 147 500 135 q 185 169 278 158 m 229 640 q 155 675 183 660 q 114 703 126 690 q 101 733 101 717 q 125 773 101 766 q 187 770 149 781 q 269 742 226 760 l 229 640 m 181 479 q 93 506 126 494 q 47 530 61 518 q 33 558 33 542 q 57 599 33 592 q 120 597 81 606 q 206 571 159 588 l 181 479 m 571 342 l 550 446 q 607 452 585 452 q 639 436 629 451 q 649 385 649 422 q 629 352 649 359 q 571 342 610 345 m 621 119 l 600 231 q 658 237 636 238 q 689 219 679 235 q 699 164 699 202 q 679 129 699 136 q 621 119 660 122 m 326 969 q 249 996 274 969 q 224 1057 224 1023 q 252 1136 224 1109 q 322 1164 280 1164 q 394 1139 369 1164 q 418 1074 418 1115 q 392 995 418 1021 q 326 969 366 969 m 571 986 q 507 1010 531 986 q 483 1069 483 1033 q 505 1134 483 1109 q 581 1160 526 1160 q 637 1138 617 1160 q 657 1078 657 1115 q 635 1011 657 1035 q 571 986 614 986 z "},"Ạ":{"ha":785,"x_min":14,"x_max":776,"o":"m 31 136 q 64 228 40 163 q 118 377 88 293 q 179 546 149 462 q 184 558 182 552 q 188 570 186 565 q 192 583 190 576 q 199 600 196 591 q 205 617 202 608 q 221 660 213 639 q 235 701 228 681 q 240 713 238 707 q 244 725 242 719 q 249 736 247 731 q 256 756 252 747 q 263 774 260 765 q 280 821 274 803 q 288 842 287 839 q 354 927 310 899 q 456 954 399 956 q 558 923 515 953 q 613 831 601 892 q 616 814 614 822 q 618 797 617 806 q 506 775 535 789 q 476 738 476 762 q 497 699 476 708 q 553 694 517 690 q 635 707 589 699 q 643 665 639 686 q 650 624 647 644 q 559 602 585 615 q 533 563 533 589 q 553 524 533 532 q 604 520 574 515 q 667 533 635 524 q 694 394 681 464 q 719 256 707 325 q 744 119 732 188 q 768 -17 757 51 q 760 -76 776 -55 q 721 -97 744 -97 q 685 -84 703 -97 q 657 -43 667 -71 q 545 278 601 113 q 436 592 490 444 q 407 651 422 633 q 368 669 393 669 q 329 653 344 669 q 301 590 313 636 q 238 339 269 467 q 176 93 207 211 q 144 38 166 55 q 97 21 122 21 q 33 55 53 21 q 31 136 14 88 m 171 349 l 197 436 q 261 438 230 438 q 325 436 293 438 q 397 424 373 434 q 421 383 421 415 q 400 343 421 353 q 319 335 379 332 q 245 341 282 337 q 171 349 208 344 m 185 169 q 133 187 153 174 q 114 221 114 200 q 139 262 114 253 q 200 267 165 270 q 391 250 291 260 q 589 231 490 241 l 617 125 q 389 147 500 135 q 185 169 278 158 m 229 640 q 155 675 183 660 q 114 703 126 690 q 101 733 101 717 q 125 773 101 766 q 187 770 149 781 q 269 742 226 760 l 229 640 m 181 479 q 93 506 126 494 q 47 530 61 518 q 33 558 33 542 q 57 599 33 592 q 120 597 81 606 q 206 571 159 588 l 181 479 m 571 342 l 550 446 q 607 452 585 452 q 639 436 629 451 q 649 385 649 422 q 629 352 649 359 q 571 342 610 345 m 621 119 l 600 231 q 658 237 636 238 q 689 219 679 235 q 699 164 699 202 q 679 129 699 136 q 621 119 660 122 m 417 -215 q 342 -188 367 -215 q 317 -108 317 -161 q 347 -40 317 -65 q 425 -15 377 -15 q 490 -42 463 -15 q 517 -122 517 -68 q 489 -187 517 -160 q 417 -215 460 -215 z "},"ạ":{"ha":785,"x_min":14,"x_max":776,"o":"m 31 136 q 64 228 40 163 q 118 377 88 293 q 179 546 149 462 q 184 558 182 552 q 188 570 186 565 q 192 583 190 576 q 199 600 196 591 q 205 617 202 608 q 221 660 213 639 q 235 701 228 681 q 240 713 238 707 q 244 725 242 719 q 249 736 247 731 q 256 756 252 747 q 263 774 260 765 q 280 821 274 803 q 288 842 287 839 q 354 927 310 899 q 456 954 399 956 q 558 923 515 953 q 613 831 601 892 q 616 814 614 822 q 618 797 617 806 q 506 775 535 789 q 476 738 476 762 q 497 699 476 708 q 553 694 517 690 q 635 707 589 699 q 643 665 639 686 q 650 624 647 644 q 559 602 585 615 q 533 563 533 589 q 553 524 533 532 q 604 520 574 515 q 667 533 635 524 q 694 394 681 464 q 719 256 707 325 q 744 119 732 188 q 768 -17 757 51 q 760 -76 776 -55 q 721 -97 744 -97 q 685 -84 703 -97 q 657 -43 667 -71 q 545 278 601 113 q 436 592 490 444 q 407 651 422 633 q 368 669 393 669 q 329 653 344 669 q 301 590 313 636 q 238 339 269 467 q 176 93 207 211 q 144 38 166 55 q 97 21 122 21 q 33 55 53 21 q 31 136 14 88 m 171 349 l 197 436 q 261 438 230 438 q 325 436 293 438 q 397 424 373 434 q 421 383 421 415 q 400 343 421 353 q 319 335 379 332 q 245 341 282 337 q 171 349 208 344 m 185 169 q 133 187 153 174 q 114 221 114 200 q 139 262 114 253 q 200 267 165 270 q 391 250 291 260 q 589 231 490 241 l 617 125 q 389 147 500 135 q 185 169 278 158 m 229 640 q 155 675 183 660 q 114 703 126 690 q 101 733 101 717 q 125 773 101 766 q 187 770 149 781 q 269 742 226 760 l 229 640 m 181 479 q 93 506 126 494 q 47 530 61 518 q 33 558 33 542 q 57 599 33 592 q 120 597 81 606 q 206 571 159 588 l 181 479 m 571 342 l 550 446 q 607 452 585 452 q 639 436 629 451 q 649 385 649 422 q 629 352 649 359 q 571 342 610 345 m 621 119 l 600 231 q 658 237 636 238 q 689 219 679 235 q 699 164 699 202 q 679 129 699 136 q 621 119 660 122 m 417 -215 q 342 -188 367 -215 q 317 -108 317 -161 q 347 -40 317 -65 q 425 -15 377 -15 q 490 -42 463 -15 q 517 -122 517 -68 q 489 -187 517 -160 q 417 -215 460 -215 z "},"À":{"ha":785,"x_min":14,"x_max":776,"o":"m 31 136 q 64 228 40 163 q 118 377 88 293 q 179 546 149 462 q 184 558 182 552 q 188 570 186 565 q 192 583 190 576 q 199 600 196 591 q 205 617 202 608 q 221 660 213 639 q 235 701 228 681 q 240 713 238 707 q 244 725 242 719 q 249 736 247 731 q 256 756 252 747 q 263 774 260 765 q 280 821 274 803 q 288 842 287 839 q 354 927 310 899 q 456 954 399 956 q 558 923 515 953 q 613 831 601 892 q 616 814 614 822 q 618 797 617 806 q 506 775 535 789 q 476 738 476 762 q 497 699 476 708 q 553 694 517 690 q 635 707 589 699 q 643 665 639 686 q 650 624 647 644 q 559 602 585 615 q 533 563 533 589 q 553 524 533 532 q 604 520 574 515 q 667 533 635 524 q 694 394 681 464 q 719 256 707 325 q 744 119 732 188 q 768 -17 757 51 q 760 -76 776 -55 q 721 -97 744 -97 q 685 -84 703 -97 q 657 -43 667 -71 q 545 278 601 113 q 436 592 490 444 q 407 651 422 633 q 368 669 393 669 q 329 653 344 669 q 301 590 313 636 q 238 339 269 467 q 176 93 207 211 q 144 38 166 55 q 97 21 122 21 q 33 55 53 21 q 31 136 14 88 m 171 349 l 197 436 q 261 438 230 438 q 325 436 293 438 q 397 424 373 434 q 421 383 421 415 q 400 343 421 353 q 319 335 379 332 q 245 341 282 337 q 171 349 208 344 m 185 169 q 133 187 153 174 q 114 221 114 200 q 139 262 114 253 q 200 267 165 270 q 391 250 291 260 q 589 231 490 241 l 617 125 q 389 147 500 135 q 185 169 278 158 m 229 640 q 155 675 183 660 q 114 703 126 690 q 101 733 101 717 q 125 773 101 766 q 187 770 149 781 q 269 742 226 760 l 229 640 m 181 479 q 93 506 126 494 q 47 530 61 518 q 33 558 33 542 q 57 599 33 592 q 120 597 81 606 q 206 571 159 588 l 181 479 m 571 342 l 550 446 q 607 452 585 452 q 639 436 629 451 q 649 385 649 422 q 629 352 649 359 q 571 342 610 345 m 621 119 l 600 231 q 658 237 636 238 q 689 219 679 235 q 699 164 699 202 q 679 129 699 136 q 621 119 660 122 m 465 1007 q 371 1048 415 1027 q 281 1093 326 1068 q 236 1130 251 1109 q 220 1172 220 1150 q 241 1223 220 1201 q 293 1244 263 1244 q 358 1222 325 1244 q 441 1162 402 1193 q 525 1092 481 1131 q 554 1042 554 1067 q 541 1010 554 1023 q 506 998 528 998 q 465 1007 489 998 z "},"à":{"ha":785,"x_min":14,"x_max":776,"o":"m 31 136 q 64 228 40 163 q 118 377 88 293 q 179 546 149 462 q 184 558 182 552 q 188 570 186 565 q 192 583 190 576 q 199 600 196 591 q 205 617 202 608 q 221 660 213 639 q 235 701 228 681 q 240 713 238 707 q 244 725 242 719 q 249 736 247 731 q 256 756 252 747 q 263 774 260 765 q 280 821 274 803 q 288 842 287 839 q 354 927 310 899 q 456 954 399 956 q 558 923 515 953 q 613 831 601 892 q 616 814 614 822 q 618 797 617 806 q 506 775 535 789 q 476 738 476 762 q 497 699 476 708 q 553 694 517 690 q 635 707 589 699 q 643 665 639 686 q 650 624 647 644 q 559 602 585 615 q 533 563 533 589 q 553 524 533 532 q 604 520 574 515 q 667 533 635 524 q 694 394 681 464 q 719 256 707 325 q 744 119 732 188 q 768 -17 757 51 q 760 -76 776 -55 q 721 -97 744 -97 q 685 -84 703 -97 q 657 -43 667 -71 q 545 278 601 113 q 436 592 490 444 q 407 651 422 633 q 368 669 393 669 q 329 653 344 669 q 301 590 313 636 q 238 339 269 467 q 176 93 207 211 q 144 38 166 55 q 97 21 122 21 q 33 55 53 21 q 31 136 14 88 m 171 349 l 197 436 q 261 438 230 438 q 325 436 293 438 q 397 424 373 434 q 421 383 421 415 q 400 343 421 353 q 319 335 379 332 q 245 341 282 337 q 171 349 208 344 m 185 169 q 133 187 153 174 q 114 221 114 200 q 139 262 114 253 q 200 267 165 270 q 391 250 291 260 q 589 231 490 241 l 617 125 q 389 147 500 135 q 185 169 278 158 m 229 640 q 155 675 183 660 q 114 703 126 690 q 101 733 101 717 q 125 773 101 766 q 187 770 149 781 q 269 742 226 760 l 229 640 m 181 479 q 93 506 126 494 q 47 530 61 518 q 33 558 33 542 q 57 599 33 592 q 120 597 81 606 q 206 571 159 588 l 181 479 m 571 342 l 550 446 q 607 452 585 452 q 639 436 629 451 q 649 385 649 422 q 629 352 649 359 q 571 342 610 345 m 621 119 l 600 231 q 658 237 636 238 q 689 219 679 235 q 699 164 699 202 q 679 129 699 136 q 621 119 660 122 m 465 1007 q 371 1048 415 1027 q 281 1093 326 1068 q 236 1130 251 1109 q 220 1172 220 1150 q 241 1223 220 1201 q 293 1244 263 1244 q 358 1222 325 1244 q 441 1162 402 1193 q 525 1092 481 1131 q 554 1042 554 1067 q 541 1010 554 1023 q 506 998 528 998 q 465 1007 489 998 z "},"Ả":{"ha":785,"x_min":14,"x_max":776,"o":"m 31 136 q 64 228 40 163 q 118 377 88 293 q 179 546 149 462 q 184 558 182 552 q 188 570 186 565 q 192 583 190 576 q 199 600 196 591 q 205 617 202 608 q 221 660 213 639 q 235 701 228 681 q 240 713 238 707 q 244 725 242 719 q 249 736 247 731 q 256 756 252 747 q 263 774 260 765 q 280 821 274 803 q 288 842 287 839 q 354 927 310 899 q 456 954 399 956 q 558 923 515 953 q 613 831 601 892 q 616 814 614 822 q 618 797 617 806 q 506 775 535 789 q 476 738 476 762 q 497 699 476 708 q 553 694 517 690 q 635 707 589 699 q 643 665 639 686 q 650 624 647 644 q 559 602 585 615 q 533 563 533 589 q 553 524 533 532 q 604 520 574 515 q 667 533 635 524 q 694 394 681 464 q 719 256 707 325 q 744 119 732 188 q 768 -17 757 51 q 760 -76 776 -55 q 721 -97 744 -97 q 685 -84 703 -97 q 657 -43 667 -71 q 545 278 601 113 q 436 592 490 444 q 407 651 422 633 q 368 669 393 669 q 329 653 344 669 q 301 590 313 636 q 238 339 269 467 q 176 93 207 211 q 144 38 166 55 q 97 21 122 21 q 33 55 53 21 q 31 136 14 88 m 171 349 l 197 436 q 261 438 230 438 q 325 436 293 438 q 397 424 373 434 q 421 383 421 415 q 400 343 421 353 q 319 335 379 332 q 245 341 282 337 q 171 349 208 344 m 185 169 q 133 187 153 174 q 114 221 114 200 q 139 262 114 253 q 200 267 165 270 q 391 250 291 260 q 589 231 490 241 l 617 125 q 389 147 500 135 q 185 169 278 158 m 229 640 q 155 675 183 660 q 114 703 126 690 q 101 733 101 717 q 125 773 101 766 q 187 770 149 781 q 269 742 226 760 l 229 640 m 181 479 q 93 506 126 494 q 47 530 61 518 q 33 558 33 542 q 57 599 33 592 q 120 597 81 606 q 206 571 159 588 l 181 479 m 571 342 l 550 446 q 607 452 585 452 q 639 436 629 451 q 649 385 649 422 q 629 352 649 359 q 571 342 610 345 m 621 119 l 600 231 q 658 237 636 238 q 689 219 679 235 q 699 164 699 202 q 679 129 699 136 q 621 119 660 122 m 399 1026 q 415 1055 399 1044 q 453 1075 431 1066 q 491 1096 474 1085 q 507 1126 507 1108 q 493 1150 507 1142 q 456 1157 478 1157 q 401 1148 430 1157 q 346 1139 372 1139 q 308 1156 323 1139 q 293 1196 293 1172 q 311 1242 293 1224 q 361 1269 330 1260 q 432 1278 393 1278 q 567 1239 521 1278 q 614 1136 614 1200 q 589 1064 614 1096 q 525 1012 565 1031 q 442 993 486 993 q 410 1001 422 993 q 399 1026 399 1010 z "},"ả":{"ha":785,"x_min":14,"x_max":776,"o":"m 31 136 q 64 228 40 163 q 118 377 88 293 q 179 546 149 462 q 184 558 182 552 q 188 570 186 565 q 192 583 190 576 q 199 600 196 591 q 205 617 202 608 q 221 660 213 639 q 235 701 228 681 q 240 713 238 707 q 244 725 242 719 q 249 736 247 731 q 256 756 252 747 q 263 774 260 765 q 280 821 274 803 q 288 842 287 839 q 354 927 310 899 q 456 954 399 956 q 558 923 515 953 q 613 831 601 892 q 616 814 614 822 q 618 797 617 806 q 506 775 535 789 q 476 738 476 762 q 497 699 476 708 q 553 694 517 690 q 635 707 589 699 q 643 665 639 686 q 650 624 647 644 q 559 602 585 615 q 533 563 533 589 q 553 524 533 532 q 604 520 574 515 q 667 533 635 524 q 694 394 681 464 q 719 256 707 325 q 744 119 732 188 q 768 -17 757 51 q 760 -76 776 -55 q 721 -97 744 -97 q 685 -84 703 -97 q 657 -43 667 -71 q 545 278 601 113 q 436 592 490 444 q 407 651 422 633 q 368 669 393 669 q 329 653 344 669 q 301 590 313 636 q 238 339 269 467 q 176 93 207 211 q 144 38 166 55 q 97 21 122 21 q 33 55 53 21 q 31 136 14 88 m 171 349 l 197 436 q 261 438 230 438 q 325 436 293 438 q 397 424 373 434 q 421 383 421 415 q 400 343 421 353 q 319 335 379 332 q 245 341 282 337 q 171 349 208 344 m 185 169 q 133 187 153 174 q 114 221 114 200 q 139 262 114 253 q 200 267 165 270 q 391 250 291 260 q 589 231 490 241 l 617 125 q 389 147 500 135 q 185 169 278 158 m 229 640 q 155 675 183 660 q 114 703 126 690 q 101 733 101 717 q 125 773 101 766 q 187 770 149 781 q 269 742 226 760 l 229 640 m 181 479 q 93 506 126 494 q 47 530 61 518 q 33 558 33 542 q 57 599 33 592 q 120 597 81 606 q 206 571 159 588 l 181 479 m 571 342 l 550 446 q 607 452 585 452 q 639 436 629 451 q 649 385 649 422 q 629 352 649 359 q 571 342 610 345 m 621 119 l 600 231 q 658 237 636 238 q 689 219 679 235 q 699 164 699 202 q 679 129 699 136 q 621 119 660 122 m 399 1026 q 415 1055 399 1044 q 453 1075 431 1066 q 491 1096 474 1085 q 507 1126 507 1108 q 493 1150 507 1142 q 456 1157 478 1157 q 401 1148 430 1157 q 346 1139 372 1139 q 308 1156 323 1139 q 293 1196 293 1172 q 311 1242 293 1224 q 361 1269 330 1260 q 432 1278 393 1278 q 567 1239 521 1278 q 614 1136 614 1200 q 589 1064 614 1096 q 525 1012 565 1031 q 442 993 486 993 q 410 1001 422 993 q 399 1026 399 1010 z "},"Ȃ":{"ha":785,"x_min":14,"x_max":776,"o":"m 31 136 q 64 228 40 163 q 118 377 88 293 q 179 546 149 462 q 184 558 182 552 q 188 570 186 565 q 192 583 190 576 q 199 600 196 591 q 205 617 202 608 q 221 660 213 639 q 235 701 228 681 q 240 713 238 707 q 244 725 242 719 q 249 736 247 731 q 256 756 252 747 q 263 774 260 765 q 280 821 274 803 q 288 842 287 839 q 354 927 310 899 q 456 954 399 956 q 558 923 515 953 q 613 831 601 892 q 616 814 614 822 q 618 797 617 806 q 506 775 535 789 q 476 738 476 762 q 497 699 476 708 q 553 694 517 690 q 635 707 589 699 q 643 665 639 686 q 650 624 647 644 q 559 602 585 615 q 533 563 533 589 q 553 524 533 532 q 604 520 574 515 q 667 533 635 524 q 694 394 681 464 q 719 256 707 325 q 744 119 732 188 q 768 -17 757 51 q 760 -76 776 -55 q 721 -97 744 -97 q 685 -84 703 -97 q 657 -43 667 -71 q 545 278 601 113 q 436 592 490 444 q 407 651 422 633 q 368 669 393 669 q 329 653 344 669 q 301 590 313 636 q 238 339 269 467 q 176 93 207 211 q 144 38 166 55 q 97 21 122 21 q 33 55 53 21 q 31 136 14 88 m 171 349 l 197 436 q 261 438 230 438 q 325 436 293 438 q 397 424 373 434 q 421 383 421 415 q 400 343 421 353 q 319 335 379 332 q 245 341 282 337 q 171 349 208 344 m 185 169 q 133 187 153 174 q 114 221 114 200 q 139 262 114 253 q 200 267 165 270 q 391 250 291 260 q 589 231 490 241 l 617 125 q 389 147 500 135 q 185 169 278 158 m 229 640 q 155 675 183 660 q 114 703 126 690 q 101 733 101 717 q 125 773 101 766 q 187 770 149 781 q 269 742 226 760 l 229 640 m 181 479 q 93 506 126 494 q 47 530 61 518 q 33 558 33 542 q 57 599 33 592 q 120 597 81 606 q 206 571 159 588 l 181 479 m 571 342 l 550 446 q 607 452 585 452 q 639 436 629 451 q 649 385 649 422 q 629 352 649 359 q 571 342 610 345 m 621 119 l 600 231 q 658 237 636 238 q 689 219 679 235 q 699 164 699 202 q 679 129 699 136 q 621 119 660 122 m 453 1233 q 558 1208 511 1233 q 632 1140 605 1183 q 660 1044 660 1097 q 646 1001 660 1016 q 608 984 633 985 q 576 998 588 984 q 554 1034 563 1013 q 534 1076 544 1055 q 506 1112 523 1098 q 463 1126 490 1126 q 414 1110 430 1126 q 389 1070 397 1094 q 373 1022 381 1046 q 350 981 365 997 q 304 965 335 965 q 252 984 270 965 q 234 1039 234 1004 q 264 1141 234 1097 q 343 1209 294 1185 q 453 1233 393 1233 z "},"ȃ":{"ha":785,"x_min":14,"x_max":776,"o":"m 31 136 q 64 228 40 163 q 118 377 88 293 q 179 546 149 462 q 184 558 182 552 q 188 570 186 565 q 192 583 190 576 q 199 600 196 591 q 205 617 202 608 q 221 660 213 639 q 235 701 228 681 q 240 713 238 707 q 244 725 242 719 q 249 736 247 731 q 256 756 252 747 q 263 774 260 765 q 280 821 274 803 q 288 842 287 839 q 354 927 310 899 q 456 954 399 956 q 558 923 515 953 q 613 831 601 892 q 616 814 614 822 q 618 797 617 806 q 506 775 535 789 q 476 738 476 762 q 497 699 476 708 q 553 694 517 690 q 635 707 589 699 q 643 665 639 686 q 650 624 647 644 q 559 602 585 615 q 533 563 533 589 q 553 524 533 532 q 604 520 574 515 q 667 533 635 524 q 694 394 681 464 q 719 256 707 325 q 744 119 732 188 q 768 -17 757 51 q 760 -76 776 -55 q 721 -97 744 -97 q 685 -84 703 -97 q 657 -43 667 -71 q 545 278 601 113 q 436 592 490 444 q 407 651 422 633 q 368 669 393 669 q 329 653 344 669 q 301 590 313 636 q 238 339 269 467 q 176 93 207 211 q 144 38 166 55 q 97 21 122 21 q 33 55 53 21 q 31 136 14 88 m 171 349 l 197 436 q 261 438 230 438 q 325 436 293 438 q 397 424 373 434 q 421 383 421 415 q 400 343 421 353 q 319 335 379 332 q 245 341 282 337 q 171 349 208 344 m 185 169 q 133 187 153 174 q 114 221 114 200 q 139 262 114 253 q 200 267 165 270 q 391 250 291 260 q 589 231 490 241 l 617 125 q 389 147 500 135 q 185 169 278 158 m 229 640 q 155 675 183 660 q 114 703 126 690 q 101 733 101 717 q 125 773 101 766 q 187 770 149 781 q 269 742 226 760 l 229 640 m 181 479 q 93 506 126 494 q 47 530 61 518 q 33 558 33 542 q 57 599 33 592 q 120 597 81 606 q 206 571 159 588 l 181 479 m 571 342 l 550 446 q 607 452 585 452 q 639 436 629 451 q 649 385 649 422 q 629 352 649 359 q 571 342 610 345 m 621 119 l 600 231 q 658 237 636 238 q 689 219 679 235 q 699 164 699 202 q 679 129 699 136 q 621 119 660 122 m 453 1233 q 558 1208 511 1233 q 632 1140 605 1183 q 660 1044 660 1097 q 646 1001 660 1016 q 608 984 633 985 q 576 998 588 984 q 554 1034 563 1013 q 534 1076 544 1055 q 506 1112 523 1098 q 463 1126 490 1126 q 414 1110 430 1126 q 389 1070 397 1094 q 373 1022 381 1046 q 350 981 365 997 q 304 965 335 965 q 252 984 270 965 q 234 1039 234 1004 q 264 1141 234 1097 q 343 1209 294 1185 q 453 1233 393 1233 z "},"Ā":{"ha":785,"x_min":14,"x_max":776,"o":"m 31 136 q 64 228 40 163 q 118 377 88 293 q 179 546 149 462 q 184 558 182 552 q 188 570 186 565 q 192 583 190 576 q 199 600 196 591 q 205 617 202 608 q 221 660 213 639 q 235 701 228 681 q 240 713 238 707 q 244 725 242 719 q 249 736 247 731 q 256 756 252 747 q 263 774 260 765 q 280 821 274 803 q 288 842 287 839 q 354 927 310 899 q 456 954 399 956 q 558 923 515 953 q 613 831 601 892 q 616 814 614 822 q 618 797 617 806 q 506 775 535 789 q 476 738 476 762 q 497 699 476 708 q 553 694 517 690 q 635 707 589 699 q 643 665 639 686 q 650 624 647 644 q 559 602 585 615 q 533 563 533 589 q 553 524 533 532 q 604 520 574 515 q 667 533 635 524 q 694 394 681 464 q 719 256 707 325 q 744 119 732 188 q 768 -17 757 51 q 760 -76 776 -55 q 721 -97 744 -97 q 685 -84 703 -97 q 657 -43 667 -71 q 545 278 601 113 q 436 592 490 444 q 407 651 422 633 q 368 669 393 669 q 329 653 344 669 q 301 590 313 636 q 238 339 269 467 q 176 93 207 211 q 144 38 166 55 q 97 21 122 21 q 33 55 53 21 q 31 136 14 88 m 171 349 l 197 436 q 261 438 230 438 q 325 436 293 438 q 397 424 373 434 q 421 383 421 415 q 400 343 421 353 q 319 335 379 332 q 245 341 282 337 q 171 349 208 344 m 185 169 q 133 187 153 174 q 114 221 114 200 q 139 262 114 253 q 200 267 165 270 q 391 250 291 260 q 589 231 490 241 l 617 125 q 389 147 500 135 q 185 169 278 158 m 229 640 q 155 675 183 660 q 114 703 126 690 q 101 733 101 717 q 125 773 101 766 q 187 770 149 781 q 269 742 226 760 l 229 640 m 181 479 q 93 506 126 494 q 47 530 61 518 q 33 558 33 542 q 57 599 33 592 q 120 597 81 606 q 206 571 159 588 l 181 479 m 571 342 l 550 446 q 607 452 585 452 q 639 436 629 451 q 649 385 649 422 q 629 352 649 359 q 571 342 610 345 m 621 119 l 600 231 q 658 237 636 238 q 689 219 679 235 q 699 164 699 202 q 679 129 699 136 q 621 119 660 122 m 290 1132 q 389 1137 341 1134 q 483 1143 436 1140 q 581 1147 531 1146 q 638 1133 619 1149 q 656 1085 656 1117 q 638 1036 656 1055 q 583 1017 621 1017 q 486 1019 535 1017 q 388 1023 438 1021 q 286 1028 338 1026 q 243 1040 261 1029 q 225 1075 225 1051 q 244 1117 225 1103 q 290 1132 263 1131 z "},"ā":{"ha":785,"x_min":14,"x_max":776,"o":"m 31 136 q 64 228 40 163 q 118 377 88 293 q 179 546 149 462 q 184 558 182 552 q 188 570 186 565 q 192 583 190 576 q 199 600 196 591 q 205 617 202 608 q 221 660 213 639 q 235 701 228 681 q 240 713 238 707 q 244 725 242 719 q 249 736 247 731 q 256 756 252 747 q 263 774 260 765 q 280 821 274 803 q 288 842 287 839 q 354 927 310 899 q 456 954 399 956 q 558 923 515 953 q 613 831 601 892 q 616 814 614 822 q 618 797 617 806 q 506 775 535 789 q 476 738 476 762 q 497 699 476 708 q 553 694 517 690 q 635 707 589 699 q 643 665 639 686 q 650 624 647 644 q 559 602 585 615 q 533 563 533 589 q 553 524 533 532 q 604 520 574 515 q 667 533 635 524 q 694 394 681 464 q 719 256 707 325 q 744 119 732 188 q 768 -17 757 51 q 760 -76 776 -55 q 721 -97 744 -97 q 685 -84 703 -97 q 657 -43 667 -71 q 545 278 601 113 q 436 592 490 444 q 407 651 422 633 q 368 669 393 669 q 329 653 344 669 q 301 590 313 636 q 238 339 269 467 q 176 93 207 211 q 144 38 166 55 q 97 21 122 21 q 33 55 53 21 q 31 136 14 88 m 171 349 l 197 436 q 261 438 230 438 q 325 436 293 438 q 397 424 373 434 q 421 383 421 415 q 400 343 421 353 q 319 335 379 332 q 245 341 282 337 q 171 349 208 344 m 185 169 q 133 187 153 174 q 114 221 114 200 q 139 262 114 253 q 200 267 165 270 q 391 250 291 260 q 589 231 490 241 l 617 125 q 389 147 500 135 q 185 169 278 158 m 229 640 q 155 675 183 660 q 114 703 126 690 q 101 733 101 717 q 125 773 101 766 q 187 770 149 781 q 269 742 226 760 l 229 640 m 181 479 q 93 506 126 494 q 47 530 61 518 q 33 558 33 542 q 57 599 33 592 q 120 597 81 606 q 206 571 159 588 l 181 479 m 571 342 l 550 446 q 607 452 585 452 q 639 436 629 451 q 649 385 649 422 q 629 352 649 359 q 571 342 610 345 m 621 119 l 600 231 q 658 237 636 238 q 689 219 679 235 q 699 164 699 202 q 679 129 699 136 q 621 119 660 122 m 290 1132 q 389 1137 341 1134 q 483 1143 436 1140 q 581 1147 531 1146 q 638 1133 619 1149 q 656 1085 656 1117 q 638 1036 656 1055 q 583 1017 621 1017 q 486 1019 535 1017 q 388 1023 438 1021 q 286 1028 338 1026 q 243 1040 261 1029 q 225 1075 225 1051 q 244 1117 225 1103 q 290 1132 263 1131 z "},"Ą":{"ha":785,"x_min":10,"x_max":776,"o":"m 26 136 q 109 365 67 249 q 194 599 151 481 q 199 613 197 606 q 204 626 201 619 q 210 640 207 633 q 214 652 212 646 q 218 664 216 658 q 222 675 220 669 q 233 702 228 689 q 242 728 238 715 q 246 740 244 734 q 250 753 248 747 q 254 765 252 759 q 261 785 258 775 q 269 804 265 795 q 277 823 273 814 q 283 842 281 833 q 350 927 306 899 q 451 954 394 956 q 554 923 511 953 q 608 831 597 892 q 611 814 610 822 q 614 797 613 806 q 501 775 531 788 q 472 738 472 762 q 492 699 472 708 q 549 695 513 690 q 631 707 585 699 q 639 665 635 686 q 646 624 643 644 q 555 602 581 616 q 528 563 528 588 q 548 524 528 533 q 598 520 567 515 q 663 533 629 524 q 711 274 690 395 q 753 24 732 153 q 746 -31 759 -15 q 703 -62 733 -48 q 598 -120 636 -94 q 560 -179 560 -147 q 577 -214 560 -201 q 628 -226 594 -226 q 680 -220 657 -226 q 724 -214 702 -214 q 762 -227 748 -214 q 776 -265 776 -241 q 733 -327 776 -308 q 633 -347 689 -347 q 495 -308 545 -347 q 444 -193 444 -269 q 488 -84 444 -126 q 600 -7 531 -42 q 626 17 621 3 q 622 54 631 31 q 530 319 576 189 q 432 592 484 449 q 403 651 417 633 q 364 669 389 669 q 325 653 340 669 q 297 590 309 636 q 234 339 265 467 q 172 93 203 211 q 140 38 162 55 q 93 21 117 21 q 29 55 49 21 q 26 136 10 88 m 167 349 l 193 436 q 257 438 226 438 q 321 436 289 438 q 397 422 378 434 q 417 388 416 410 q 398 344 418 356 q 315 335 377 332 q 241 341 278 337 q 167 349 203 344 m 181 169 q 130 186 149 173 q 110 221 110 199 q 135 262 110 253 q 196 267 160 270 q 386 250 287 260 q 585 231 486 241 l 613 125 q 385 147 496 135 q 181 169 274 158 m 225 640 q 125 688 160 669 q 75 721 89 707 q 60 749 60 735 q 90 794 60 789 q 167 784 119 800 q 268 744 215 769 l 225 640 m 176 479 q 81 509 117 496 q 31 535 46 522 q 16 565 16 548 q 42 604 16 599 q 110 599 67 610 q 201 571 152 588 l 176 479 m 567 342 l 546 446 q 622 447 600 456 q 644 385 644 439 q 625 352 644 359 q 567 342 606 344 m 617 119 l 596 231 q 673 231 651 242 q 695 164 695 220 q 675 128 694 136 q 617 119 656 121 z "},"ą":{"ha":785,"x_min":10,"x_max":776,"o":"m 26 136 q 109 365 67 249 q 194 599 151 481 q 199 613 197 606 q 204 626 201 619 q 210 640 207 633 q 214 652 212 646 q 218 664 216 658 q 222 675 220 669 q 233 702 228 689 q 242 728 238 715 q 246 740 244 734 q 250 753 248 747 q 254 765 252 759 q 261 785 258 775 q 269 804 265 795 q 277 823 273 814 q 283 842 281 833 q 350 927 306 899 q 451 954 394 956 q 554 923 511 953 q 608 831 597 892 q 611 814 610 822 q 614 797 613 806 q 501 775 531 788 q 472 738 472 762 q 492 699 472 708 q 549 695 513 690 q 631 707 585 699 q 639 665 635 686 q 646 624 643 644 q 555 602 581 616 q 528 563 528 588 q 548 524 528 533 q 598 520 567 515 q 663 533 629 524 q 711 274 690 395 q 753 24 732 153 q 746 -31 759 -15 q 703 -62 733 -48 q 598 -120 636 -94 q 560 -179 560 -147 q 577 -214 560 -201 q 628 -226 594 -226 q 680 -220 657 -226 q 724 -214 702 -214 q 762 -227 748 -214 q 776 -265 776 -241 q 733 -327 776 -308 q 633 -347 689 -347 q 495 -308 545 -347 q 444 -193 444 -269 q 488 -84 444 -126 q 600 -7 531 -42 q 626 17 621 3 q 622 54 631 31 q 530 319 576 189 q 432 592 484 449 q 403 651 417 633 q 364 669 389 669 q 325 653 340 669 q 297 590 309 636 q 234 339 265 467 q 172 93 203 211 q 140 38 162 55 q 93 21 117 21 q 29 55 49 21 q 26 136 10 88 m 167 349 l 193 436 q 257 438 226 438 q 321 436 289 438 q 397 422 378 434 q 417 388 416 410 q 398 344 418 356 q 315 335 377 332 q 241 341 278 337 q 167 349 203 344 m 181 169 q 130 186 149 173 q 110 221 110 199 q 135 262 110 253 q 196 267 160 270 q 386 250 287 260 q 585 231 486 241 l 613 125 q 385 147 496 135 q 181 169 274 158 m 225 640 q 125 688 160 669 q 75 721 89 707 q 60 749 60 735 q 90 794 60 789 q 167 784 119 800 q 268 744 215 769 l 225 640 m 176 479 q 81 509 117 496 q 31 535 46 522 q 16 565 16 548 q 42 604 16 599 q 110 599 67 610 q 201 571 152 588 l 176 479 m 567 342 l 546 446 q 622 447 600 456 q 644 385 644 439 q 625 352 644 359 q 567 342 606 344 m 617 119 l 596 231 q 673 231 651 242 q 695 164 695 220 q 675 128 694 136 q 617 119 656 121 z "},"Å":{"ha":785,"x_min":14,"x_max":776,"o":"m 31 136 q 64 228 40 163 q 118 377 88 293 q 179 546 149 462 q 184 558 182 552 q 188 570 186 565 q 192 583 190 576 q 199 600 196 591 q 205 617 202 608 q 221 660 213 639 q 235 701 228 681 q 240 713 238 707 q 244 725 242 719 q 249 736 247 731 q 256 756 252 747 q 263 774 260 765 q 280 821 274 803 q 288 842 287 839 q 354 927 310 899 q 456 954 399 956 q 558 923 515 953 q 613 831 601 892 q 616 814 614 822 q 618 797 617 806 q 506 775 535 789 q 476 738 476 762 q 497 699 476 708 q 553 694 517 690 q 635 707 589 699 q 643 665 639 686 q 650 624 647 644 q 559 602 585 615 q 533 563 533 589 q 553 524 533 532 q 604 520 574 515 q 667 533 635 524 q 694 394 681 464 q 719 256 707 325 q 744 119 732 188 q 768 -17 757 51 q 760 -76 776 -55 q 721 -97 744 -97 q 685 -84 703 -97 q 657 -43 667 -71 q 545 278 601 113 q 436 592 490 444 q 407 651 422 633 q 368 669 393 669 q 329 653 344 669 q 301 590 313 636 q 238 339 269 467 q 176 93 207 211 q 144 38 166 55 q 97 21 122 21 q 33 55 53 21 q 31 136 14 88 m 171 349 l 197 436 q 261 438 230 438 q 325 436 293 438 q 397 424 373 434 q 421 383 421 415 q 400 343 421 353 q 319 335 379 332 q 245 341 282 337 q 171 349 208 344 m 185 169 q 133 187 153 174 q 114 221 114 200 q 139 262 114 253 q 200 267 165 270 q 391 250 291 260 q 589 231 490 241 l 617 125 q 389 147 500 135 q 185 169 278 158 m 229 640 q 155 675 183 660 q 114 703 126 690 q 101 733 101 717 q 125 773 101 766 q 187 770 149 781 q 269 742 226 760 l 229 640 m 181 479 q 93 506 126 494 q 47 530 61 518 q 33 558 33 542 q 57 599 33 592 q 120 597 81 606 q 206 571 159 588 l 181 479 m 571 342 l 550 446 q 607 452 585 452 q 639 436 629 451 q 649 385 649 422 q 629 352 649 359 q 571 342 610 345 m 621 119 l 600 231 q 658 237 636 238 q 689 219 679 235 q 699 164 699 202 q 679 129 699 136 q 621 119 660 122 m 424 990 q 298 1031 342 990 q 254 1143 254 1072 q 308 1251 254 1211 q 446 1292 363 1292 q 573 1256 523 1292 q 624 1153 624 1219 q 594 1066 624 1103 q 519 1010 565 1030 q 424 990 474 990 m 431 1063 q 484 1078 463 1063 q 506 1122 506 1093 q 483 1169 506 1151 q 425 1186 460 1186 q 373 1169 392 1186 q 354 1124 354 1152 q 375 1078 354 1094 q 431 1063 397 1063 z "},"å":{"ha":785,"x_min":14,"x_max":776,"o":"m 31 136 q 64 228 40 163 q 118 377 88 293 q 179 546 149 462 q 184 558 182 552 q 188 570 186 565 q 192 583 190 576 q 199 600 196 591 q 205 617 202 608 q 221 660 213 639 q 235 701 228 681 q 240 713 238 707 q 244 725 242 719 q 249 736 247 731 q 256 756 252 747 q 263 774 260 765 q 280 821 274 803 q 288 842 287 839 q 354 927 310 899 q 456 954 399 956 q 558 923 515 953 q 613 831 601 892 q 616 814 614 822 q 618 797 617 806 q 506 775 535 789 q 476 738 476 762 q 497 699 476 708 q 553 694 517 690 q 635 707 589 699 q 643 665 639 686 q 650 624 647 644 q 559 602 585 615 q 533 563 533 589 q 553 524 533 532 q 604 520 574 515 q 667 533 635 524 q 694 394 681 464 q 719 256 707 325 q 744 119 732 188 q 768 -17 757 51 q 760 -76 776 -55 q 721 -97 744 -97 q 685 -84 703 -97 q 657 -43 667 -71 q 545 278 601 113 q 436 592 490 444 q 407 651 422 633 q 368 669 393 669 q 329 653 344 669 q 301 590 313 636 q 238 339 269 467 q 176 93 207 211 q 144 38 166 55 q 97 21 122 21 q 33 55 53 21 q 31 136 14 88 m 171 349 l 197 436 q 261 438 230 438 q 325 436 293 438 q 397 424 373 434 q 421 383 421 415 q 400 343 421 353 q 319 335 379 332 q 245 341 282 337 q 171 349 208 344 m 185 169 q 133 187 153 174 q 114 221 114 200 q 139 262 114 253 q 200 267 165 270 q 391 250 291 260 q 589 231 490 241 l 617 125 q 389 147 500 135 q 185 169 278 158 m 229 640 q 155 675 183 660 q 114 703 126 690 q 101 733 101 717 q 125 773 101 766 q 187 770 149 781 q 269 742 226 760 l 229 640 m 181 479 q 93 506 126 494 q 47 530 61 518 q 33 558 33 542 q 57 599 33 592 q 120 597 81 606 q 206 571 159 588 l 181 479 m 571 342 l 550 446 q 607 452 585 452 q 639 436 629 451 q 649 385 649 422 q 629 352 649 359 q 571 342 610 345 m 621 119 l 600 231 q 658 237 636 238 q 689 219 679 235 q 699 164 699 202 q 679 129 699 136 q 621 119 660 122 m 424 990 q 298 1031 342 990 q 254 1143 254 1072 q 308 1251 254 1211 q 446 1292 363 1292 q 573 1256 523 1292 q 624 1153 624 1219 q 594 1066 624 1103 q 519 1010 565 1030 q 424 990 474 990 m 431 1063 q 484 1078 463 1063 q 506 1122 506 1093 q 483 1169 506 1151 q 425 1186 460 1186 q 373 1169 392 1186 q 354 1124 354 1152 q 375 1078 354 1094 q 431 1063 397 1063 z "},"Ǻ":{"ha":785,"x_min":14,"x_max":776,"o":"m 31 136 q 64 228 40 163 q 118 377 88 293 q 179 546 149 462 q 184 558 182 552 q 188 570 186 565 q 192 583 190 576 q 199 600 196 591 q 205 617 202 608 q 221 660 213 639 q 235 701 228 681 q 240 713 238 707 q 244 725 242 719 q 249 736 247 731 q 256 756 252 747 q 263 774 260 765 q 280 821 274 803 q 288 842 287 839 q 354 927 310 899 q 456 954 399 956 q 558 923 515 953 q 613 831 601 892 q 616 814 614 822 q 618 797 617 806 q 506 775 535 789 q 476 738 476 762 q 497 699 476 708 q 553 694 517 690 q 635 707 589 699 q 643 665 639 686 q 650 624 647 644 q 559 602 585 615 q 533 563 533 589 q 553 524 533 532 q 604 520 574 515 q 667 533 635 524 q 694 394 681 464 q 719 256 707 325 q 744 119 732 188 q 768 -17 757 51 q 760 -76 776 -55 q 721 -97 744 -97 q 685 -84 703 -97 q 657 -43 667 -71 q 545 278 601 113 q 436 592 490 444 q 407 651 422 633 q 368 669 393 669 q 329 653 344 669 q 301 590 313 636 q 238 339 269 467 q 176 93 207 211 q 144 38 166 55 q 97 21 122 21 q 33 55 53 21 q 31 136 14 88 m 171 349 l 197 436 q 261 438 230 438 q 325 436 293 438 q 397 424 373 434 q 421 383 421 415 q 400 343 421 353 q 319 335 379 332 q 245 341 282 337 q 171 349 208 344 m 185 169 q 133 187 153 174 q 114 221 114 200 q 139 262 114 253 q 200 267 165 270 q 391 250 291 260 q 589 231 490 241 l 617 125 q 389 147 500 135 q 185 169 278 158 m 229 640 q 155 675 183 660 q 114 703 126 690 q 101 733 101 717 q 125 773 101 766 q 187 770 149 781 q 269 742 226 760 l 229 640 m 181 479 q 93 506 126 494 q 47 530 61 518 q 33 558 33 542 q 57 599 33 592 q 120 597 81 606 q 206 571 159 588 l 181 479 m 571 342 l 550 446 q 607 452 585 452 q 639 436 629 451 q 649 385 649 422 q 629 352 649 359 q 571 342 610 345 m 621 119 l 600 231 q 658 237 636 238 q 689 219 679 235 q 699 164 699 202 q 679 129 699 136 q 621 119 660 122 m 424 988 q 298 1029 342 988 q 254 1141 254 1070 q 308 1249 254 1209 q 446 1290 363 1290 q 573 1253 523 1290 q 624 1151 624 1217 q 594 1064 624 1101 q 519 1008 565 1028 q 424 988 474 988 m 431 1060 q 484 1076 463 1060 q 506 1120 506 1091 q 483 1167 506 1149 q 425 1184 460 1184 q 373 1167 392 1184 q 354 1122 354 1150 q 375 1076 354 1092 q 431 1060 397 1060 m 413 1331 q 376 1322 392 1322 q 347 1334 358 1322 q 335 1360 335 1346 q 358 1404 335 1383 q 413 1456 384 1428 q 470 1508 442 1483 q 522 1554 499 1534 q 582 1577 551 1577 q 639 1552 617 1577 q 662 1496 662 1526 q 650 1456 662 1476 q 610 1424 638 1437 q 508 1375 563 1401 q 413 1331 453 1349 z "},"ǻ":{"ha":785,"x_min":14,"x_max":776,"o":"m 31 136 q 64 228 40 163 q 118 377 88 293 q 179 546 149 462 q 184 558 182 552 q 188 570 186 565 q 192 583 190 576 q 199 600 196 591 q 205 617 202 608 q 221 660 213 639 q 235 701 228 681 q 240 713 238 707 q 244 725 242 719 q 249 736 247 731 q 256 756 252 747 q 263 774 260 765 q 280 821 274 803 q 288 842 287 839 q 354 927 310 899 q 456 954 399 956 q 558 923 515 953 q 613 831 601 892 q 616 814 614 822 q 618 797 617 806 q 506 775 535 789 q 476 738 476 762 q 497 699 476 708 q 553 694 517 690 q 635 707 589 699 q 643 665 639 686 q 650 624 647 644 q 559 602 585 615 q 533 563 533 589 q 553 524 533 532 q 604 520 574 515 q 667 533 635 524 q 694 394 681 464 q 719 256 707 325 q 744 119 732 188 q 768 -17 757 51 q 760 -76 776 -55 q 721 -97 744 -97 q 685 -84 703 -97 q 657 -43 667 -71 q 545 278 601 113 q 436 592 490 444 q 407 651 422 633 q 368 669 393 669 q 329 653 344 669 q 301 590 313 636 q 238 339 269 467 q 176 93 207 211 q 144 38 166 55 q 97 21 122 21 q 33 55 53 21 q 31 136 14 88 m 171 349 l 197 436 q 261 438 230 438 q 325 436 293 438 q 397 424 373 434 q 421 383 421 415 q 400 343 421 353 q 319 335 379 332 q 245 341 282 337 q 171 349 208 344 m 185 169 q 133 187 153 174 q 114 221 114 200 q 139 262 114 253 q 200 267 165 270 q 391 250 291 260 q 589 231 490 241 l 617 125 q 389 147 500 135 q 185 169 278 158 m 229 640 q 155 675 183 660 q 114 703 126 690 q 101 733 101 717 q 125 773 101 766 q 187 770 149 781 q 269 742 226 760 l 229 640 m 181 479 q 93 506 126 494 q 47 530 61 518 q 33 558 33 542 q 57 599 33 592 q 120 597 81 606 q 206 571 159 588 l 181 479 m 571 342 l 550 446 q 607 452 585 452 q 639 436 629 451 q 649 385 649 422 q 629 352 649 359 q 571 342 610 345 m 621 119 l 600 231 q 658 237 636 238 q 689 219 679 235 q 699 164 699 202 q 679 129 699 136 q 621 119 660 122 m 424 988 q 298 1029 342 988 q 254 1141 254 1070 q 308 1249 254 1209 q 446 1290 363 1290 q 573 1253 523 1290 q 624 1151 624 1217 q 594 1064 624 1101 q 519 1008 565 1028 q 424 988 474 988 m 431 1060 q 484 1076 463 1060 q 506 1120 506 1091 q 483 1167 506 1149 q 425 1184 460 1184 q 373 1167 392 1184 q 354 1122 354 1150 q 375 1076 354 1092 q 431 1060 397 1060 m 413 1331 q 376 1322 392 1322 q 347 1334 358 1322 q 335 1360 335 1346 q 358 1404 335 1383 q 413 1456 384 1428 q 470 1508 442 1483 q 522 1554 499 1534 q 582 1577 551 1577 q 639 1552 617 1577 q 662 1496 662 1526 q 650 1456 662 1476 q 610 1424 638 1437 q 508 1375 563 1401 q 413 1331 453 1349 z "},"Ã":{"ha":785,"x_min":14,"x_max":776,"o":"m 31 136 q 64 228 40 163 q 118 377 88 293 q 179 546 149 462 q 184 558 182 552 q 188 570 186 565 q 192 583 190 576 q 199 600 196 591 q 205 617 202 608 q 221 660 213 639 q 235 701 228 681 q 240 713 238 707 q 244 725 242 719 q 249 736 247 731 q 256 756 252 747 q 263 774 260 765 q 280 821 274 803 q 288 842 287 839 q 354 927 310 899 q 456 954 399 956 q 558 923 515 953 q 613 831 601 892 q 616 814 614 822 q 618 797 617 806 q 506 775 535 789 q 476 738 476 762 q 497 699 476 708 q 553 694 517 690 q 635 707 589 699 q 643 665 639 686 q 650 624 647 644 q 559 602 585 615 q 533 563 533 589 q 553 524 533 532 q 604 520 574 515 q 667 533 635 524 q 694 394 681 464 q 719 256 707 325 q 744 119 732 188 q 768 -17 757 51 q 760 -76 776 -55 q 721 -97 744 -97 q 685 -84 703 -97 q 657 -43 667 -71 q 545 278 601 113 q 436 592 490 444 q 407 651 422 633 q 368 669 393 669 q 329 653 344 669 q 301 590 313 636 q 238 339 269 467 q 176 93 207 211 q 144 38 166 55 q 97 21 122 21 q 33 55 53 21 q 31 136 14 88 m 171 349 l 197 436 q 261 438 230 438 q 325 436 293 438 q 397 424 373 434 q 421 383 421 415 q 400 343 421 353 q 319 335 379 332 q 245 341 282 337 q 171 349 208 344 m 185 169 q 133 187 153 174 q 114 221 114 200 q 139 262 114 253 q 200 267 165 270 q 391 250 291 260 q 589 231 490 241 l 617 125 q 389 147 500 135 q 185 169 278 158 m 229 640 q 155 675 183 660 q 114 703 126 690 q 101 733 101 717 q 125 773 101 766 q 187 770 149 781 q 269 742 226 760 l 229 640 m 181 479 q 93 506 126 494 q 47 530 61 518 q 33 558 33 542 q 57 599 33 592 q 120 597 81 606 q 206 571 159 588 l 181 479 m 571 342 l 550 446 q 607 452 585 452 q 639 436 629 451 q 649 385 649 422 q 629 352 649 359 q 571 342 610 345 m 621 119 l 600 231 q 658 237 636 238 q 689 219 679 235 q 699 164 699 202 q 679 129 699 136 q 621 119 660 122 m 259 995 q 216 1012 231 995 q 201 1053 201 1028 q 222 1120 201 1087 q 276 1176 243 1153 q 343 1199 308 1199 q 407 1184 383 1199 q 449 1149 432 1169 q 482 1114 466 1129 q 521 1099 499 1099 q 558 1115 544 1099 q 582 1152 572 1131 q 607 1189 592 1173 q 645 1205 621 1205 q 683 1190 671 1205 q 694 1150 694 1174 q 675 1072 694 1109 q 621 1011 655 1035 q 546 988 588 988 q 486 1002 510 988 q 444 1035 462 1017 q 410 1069 426 1054 q 378 1083 395 1083 q 343 1070 356 1083 q 319 1039 330 1057 q 295 1008 309 1022 q 259 995 281 995 z "},"ã":{"ha":785,"x_min":14,"x_max":776,"o":"m 31 136 q 64 228 40 163 q 118 377 88 293 q 179 546 149 462 q 184 558 182 552 q 188 570 186 565 q 192 583 190 576 q 199 600 196 591 q 205 617 202 608 q 221 660 213 639 q 235 701 228 681 q 240 713 238 707 q 244 725 242 719 q 249 736 247 731 q 256 756 252 747 q 263 774 260 765 q 280 821 274 803 q 288 842 287 839 q 354 927 310 899 q 456 954 399 956 q 558 923 515 953 q 613 831 601 892 q 616 814 614 822 q 618 797 617 806 q 506 775 535 789 q 476 738 476 762 q 497 699 476 708 q 553 694 517 690 q 635 707 589 699 q 643 665 639 686 q 650 624 647 644 q 559 602 585 615 q 533 563 533 589 q 553 524 533 532 q 604 520 574 515 q 667 533 635 524 q 694 394 681 464 q 719 256 707 325 q 744 119 732 188 q 768 -17 757 51 q 760 -76 776 -55 q 721 -97 744 -97 q 685 -84 703 -97 q 657 -43 667 -71 q 545 278 601 113 q 436 592 490 444 q 407 651 422 633 q 368 669 393 669 q 329 653 344 669 q 301 590 313 636 q 238 339 269 467 q 176 93 207 211 q 144 38 166 55 q 97 21 122 21 q 33 55 53 21 q 31 136 14 88 m 171 349 l 197 436 q 261 438 230 438 q 325 436 293 438 q 397 424 373 434 q 421 383 421 415 q 400 343 421 353 q 319 335 379 332 q 245 341 282 337 q 171 349 208 344 m 185 169 q 133 187 153 174 q 114 221 114 200 q 139 262 114 253 q 200 267 165 270 q 391 250 291 260 q 589 231 490 241 l 617 125 q 389 147 500 135 q 185 169 278 158 m 229 640 q 155 675 183 660 q 114 703 126 690 q 101 733 101 717 q 125 773 101 766 q 187 770 149 781 q 269 742 226 760 l 229 640 m 181 479 q 93 506 126 494 q 47 530 61 518 q 33 558 33 542 q 57 599 33 592 q 120 597 81 606 q 206 571 159 588 l 181 479 m 571 342 l 550 446 q 607 452 585 452 q 639 436 629 451 q 649 385 649 422 q 629 352 649 359 q 571 342 610 345 m 621 119 l 600 231 q 658 237 636 238 q 689 219 679 235 q 699 164 699 202 q 679 129 699 136 q 621 119 660 122 m 259 995 q 216 1012 231 995 q 201 1053 201 1028 q 222 1120 201 1087 q 276 1176 243 1153 q 343 1199 308 1199 q 407 1184 383 1199 q 449 1149 432 1169 q 482 1114 466 1129 q 521 1099 499 1099 q 558 1115 544 1099 q 582 1152 572 1131 q 607 1189 592 1173 q 645 1205 621 1205 q 683 1190 671 1205 q 694 1150 694 1174 q 675 1072 694 1109 q 621 1011 655 1035 q 546 988 588 988 q 486 1002 510 988 q 444 1035 462 1017 q 410 1069 426 1054 q 378 1083 395 1083 q 343 1070 356 1083 q 319 1039 330 1057 q 295 1008 309 1022 q 259 995 281 995 z "},"Æ":{"ha":1074,"x_min":19,"x_max":1088,"o":"m 507 403 q 528 412 523 404 q 535 435 534 419 q 542 525 539 476 q 549 629 546 575 q 535 714 552 689 q 476 739 517 739 q 411 711 436 739 q 361 614 385 683 q 325 508 346 566 q 283 393 303 449 q 357 396 319 394 q 433 400 395 398 q 507 403 472 401 m 932 986 q 930 886 931 940 q 925 801 929 833 q 909 728 921 747 q 872 710 897 710 q 839 729 849 709 q 826 794 830 749 q 825 856 826 821 q 824 925 824 890 q 825 983 824 959 q 839 1069 826 1043 q 879 1096 851 1096 q 922 1068 910 1098 q 932 986 933 1038 m 733 1000 q 738 952 737 979 q 740 907 740 926 q 732 867 742 880 q 696 856 722 855 q 653 867 666 856 q 638 903 640 878 q 636 946 637 919 q 635 994 635 973 q 647 1057 635 1040 q 685 1074 659 1075 q 733 1000 725 1074 m 788 150 q 749 137 765 150 q 733 93 733 124 q 747 57 733 72 q 782 42 761 42 q 825 57 813 42 q 836 92 836 72 q 823 134 836 119 q 788 150 810 150 m 628 147 q 592 134 603 147 q 581 107 581 122 q 593 68 581 83 q 626 53 605 53 q 662 65 649 53 q 675 103 675 78 q 662 134 675 121 q 628 147 649 147 m 950 171 q 911 156 927 171 q 894 118 894 141 q 911 72 894 84 q 949 60 927 60 q 994 74 978 60 q 1011 113 1011 88 q 997 154 1011 138 q 950 171 983 171 m 75 18 q 75 18 75 18 q 75 18 75 18 q 75 18 75 18 q 75 18 75 18 q 75 18 75 18 q 75 18 75 18 q 75 18 75 18 q 75 18 75 18 m 111 78 q 111 78 111 78 q 111 78 111 78 q 111 78 111 78 q 111 78 111 78 q 111 78 111 78 q 111 78 111 78 q 111 78 111 78 q 111 78 111 78 m 175 388 l 135 276 q 53 283 87 276 q 19 326 19 290 q 39 363 20 351 q 92 380 58 375 q 175 388 127 385 m 249 279 q 215 174 238 248 q 161 11 192 100 q 131 -33 151 -19 q 90 -47 111 -47 q 49 -30 67 -47 q 31 19 31 -12 q 32 39 31 29 q 38 60 33 49 q 135 320 86 191 q 227 563 183 449 q 304 763 270 677 q 390 886 335 840 q 525 936 445 932 q 657 942 590 940 q 802 948 724 945 q 981 956 881 951 q 1064 940 1040 958 q 1088 888 1088 922 q 1061 830 1088 848 q 989 815 1034 813 q 897 822 947 818 q 799 829 847 826 q 715 832 751 832 q 681 817 694 832 q 667 753 668 802 q 664 676 665 715 q 664 599 664 636 q 678 568 664 579 q 721 558 693 558 q 829 562 779 560 q 914 561 878 563 q 961 545 943 559 q 979 500 979 531 q 959 452 979 468 q 906 436 938 435 q 791 441 842 438 q 701 444 740 444 q 670 431 680 444 q 660 392 660 417 q 660 344 660 372 q 663 289 661 317 q 665 240 664 260 q 679 214 667 222 q 713 211 692 207 q 818 233 770 222 q 911 253 865 244 q 1035 238 986 269 q 1085 121 1085 208 q 1042 0 1085 35 q 918 -33 999 -36 q 843 -30 886 -32 q 746 -25 800 -28 q 626 -18 692 -22 q 536 17 567 -15 q 508 111 504 49 q 514 189 510 151 q 519 260 517 228 q 512 285 521 278 q 481 290 503 292 q 410 288 449 289 q 328 285 370 287 q 249 279 286 283 z "},"æ":{"ha":1074,"x_min":19,"x_max":1088,"o":"m 507 403 q 528 412 523 404 q 535 435 534 419 q 542 525 539 476 q 549 629 546 575 q 535 714 552 689 q 476 739 517 739 q 411 711 436 739 q 361 614 385 683 q 325 508 346 566 q 283 393 303 449 q 357 396 319 394 q 433 400 395 398 q 507 403 472 401 m 932 986 q 930 886 931 940 q 925 801 929 833 q 909 728 921 747 q 872 710 897 710 q 839 729 849 709 q 826 794 830 749 q 825 856 826 821 q 824 925 824 890 q 825 983 824 959 q 839 1069 826 1043 q 879 1096 851 1096 q 922 1068 910 1098 q 932 986 933 1038 m 733 1000 q 738 952 737 979 q 740 907 740 926 q 732 867 742 880 q 696 856 722 855 q 653 867 666 856 q 638 903 640 878 q 636 946 637 919 q 635 994 635 973 q 647 1057 635 1040 q 685 1074 659 1075 q 733 1000 725 1074 m 788 150 q 749 137 765 150 q 733 93 733 124 q 747 57 733 72 q 782 42 761 42 q 825 57 813 42 q 836 92 836 72 q 823 134 836 119 q 788 150 810 150 m 628 147 q 592 134 603 147 q 581 107 581 122 q 593 68 581 83 q 626 53 605 53 q 662 65 649 53 q 675 103 675 78 q 662 134 675 121 q 628 147 649 147 m 950 171 q 911 156 927 171 q 894 118 894 141 q 911 72 894 84 q 949 60 927 60 q 994 74 978 60 q 1011 113 1011 88 q 997 154 1011 138 q 950 171 983 171 m 75 18 q 75 18 75 18 q 75 18 75 18 q 75 18 75 18 q 75 18 75 18 q 75 18 75 18 q 75 18 75 18 q 75 18 75 18 q 75 18 75 18 m 111 78 q 111 78 111 78 q 111 78 111 78 q 111 78 111 78 q 111 78 111 78 q 111 78 111 78 q 111 78 111 78 q 111 78 111 78 q 111 78 111 78 m 175 388 l 135 276 q 53 283 87 276 q 19 326 19 290 q 39 363 20 351 q 92 380 58 375 q 175 388 127 385 m 249 279 q 215 174 238 248 q 161 11 192 100 q 131 -33 151 -19 q 90 -47 111 -47 q 49 -30 67 -47 q 31 19 31 -12 q 32 39 31 29 q 38 60 33 49 q 135 320 86 191 q 227 563 183 449 q 304 763 270 677 q 390 886 335 840 q 525 936 445 932 q 657 942 590 940 q 802 948 724 945 q 981 956 881 951 q 1064 940 1040 958 q 1088 888 1088 922 q 1061 830 1088 848 q 989 815 1034 813 q 897 822 947 818 q 799 829 847 826 q 715 832 751 832 q 681 817 694 832 q 667 753 668 802 q 664 676 665 715 q 664 599 664 636 q 678 568 664 579 q 721 558 693 558 q 829 562 779 560 q 914 561 878 563 q 961 545 943 559 q 979 500 979 531 q 959 452 979 468 q 906 436 938 435 q 791 441 842 438 q 701 444 740 444 q 670 431 680 444 q 660 392 660 417 q 660 344 660 372 q 663 289 661 317 q 665 240 664 260 q 679 214 667 222 q 713 211 692 207 q 818 233 770 222 q 911 253 865 244 q 1035 238 986 269 q 1085 121 1085 208 q 1042 0 1085 35 q 918 -33 999 -36 q 843 -30 886 -32 q 746 -25 800 -28 q 626 -18 692 -22 q 536 17 567 -15 q 508 111 504 49 q 514 189 510 151 q 519 260 517 228 q 512 285 521 278 q 481 290 503 292 q 410 288 449 289 q 328 285 370 287 q 249 279 286 283 z "},"Ǽ":{"ha":1074,"x_min":19,"x_max":1088,"o":"m 507 403 q 528 412 523 404 q 535 435 534 419 q 542 525 539 476 q 549 629 546 575 q 535 714 552 689 q 476 739 517 739 q 411 711 436 739 q 361 614 385 683 q 325 508 346 566 q 283 393 303 449 q 357 396 319 394 q 433 400 395 398 q 507 403 472 401 m 932 986 q 930 886 931 940 q 925 801 929 833 q 909 728 921 747 q 872 710 897 710 q 839 729 849 709 q 826 794 830 749 q 825 856 826 821 q 824 925 824 890 q 825 983 824 959 q 839 1069 826 1043 q 879 1096 851 1096 q 922 1068 910 1098 q 932 986 933 1038 m 733 1000 q 738 952 737 979 q 740 907 740 926 q 732 867 742 880 q 696 856 722 855 q 653 867 666 856 q 638 903 640 878 q 636 946 637 919 q 635 994 635 973 q 647 1057 635 1040 q 685 1074 659 1075 q 733 1000 725 1074 m 788 150 q 749 137 765 150 q 733 93 733 124 q 747 57 733 72 q 782 42 761 42 q 825 57 813 42 q 836 92 836 72 q 823 134 836 119 q 788 150 810 150 m 628 147 q 592 134 603 147 q 581 107 581 122 q 593 68 581 83 q 626 53 605 53 q 662 65 649 53 q 675 103 675 78 q 662 134 675 121 q 628 147 649 147 m 950 171 q 911 156 927 171 q 894 118 894 141 q 911 72 894 84 q 949 60 927 60 q 994 74 978 60 q 1011 113 1011 88 q 997 154 1011 138 q 950 171 983 171 m 75 18 q 75 18 75 18 q 75 18 75 18 q 75 18 75 18 q 75 18 75 18 q 75 18 75 18 q 75 18 75 18 q 75 18 75 18 q 75 18 75 18 m 111 78 q 111 78 111 78 q 111 78 111 78 q 111 78 111 78 q 111 78 111 78 q 111 78 111 78 q 111 78 111 78 q 111 78 111 78 q 111 78 111 78 m 175 388 l 135 276 q 53 283 87 276 q 19 326 19 290 q 39 363 20 351 q 92 380 58 375 q 175 388 127 385 m 249 279 q 215 174 238 248 q 161 11 192 100 q 131 -33 151 -19 q 90 -47 111 -47 q 49 -30 67 -47 q 31 19 31 -12 q 32 39 31 29 q 38 60 33 49 q 135 320 86 191 q 227 563 183 449 q 304 763 270 677 q 390 886 335 840 q 525 936 445 932 q 657 942 590 940 q 802 948 724 945 q 981 956 881 951 q 1064 940 1040 958 q 1088 888 1088 922 q 1061 830 1088 848 q 989 815 1034 813 q 897 822 947 818 q 799 829 847 826 q 715 832 751 832 q 681 817 694 832 q 667 753 668 802 q 664 676 665 715 q 664 599 664 636 q 678 568 664 579 q 721 558 693 558 q 829 562 779 560 q 914 561 878 563 q 961 545 943 559 q 979 500 979 531 q 959 452 979 468 q 906 436 938 435 q 791 441 842 438 q 701 444 740 444 q 670 431 680 444 q 660 392 660 417 q 660 344 660 372 q 663 289 661 317 q 665 240 664 260 q 679 214 667 222 q 713 211 692 207 q 818 233 770 222 q 911 253 865 244 q 1035 238 986 269 q 1085 121 1085 208 q 1042 0 1085 35 q 918 -33 999 -36 q 843 -30 886 -32 q 746 -25 800 -28 q 626 -18 692 -22 q 536 17 567 -15 q 508 111 504 49 q 514 189 510 151 q 519 260 517 228 q 512 285 521 278 q 481 290 503 292 q 410 288 449 289 q 328 285 370 287 q 249 279 286 283 m 478 998 q 442 985 459 987 q 412 994 424 983 q 397 1020 399 1006 q 417 1066 395 1042 q 466 1122 440 1092 q 518 1181 492 1152 q 565 1231 543 1209 q 622 1260 590 1257 q 681 1241 656 1264 q 710 1188 706 1218 q 701 1147 712 1167 q 665 1110 691 1126 q 569 1051 621 1083 q 478 998 517 1019 z "},"ǽ":{"ha":1074,"x_min":19,"x_max":1088,"o":"m 507 403 q 528 412 523 404 q 535 435 534 419 q 542 525 539 476 q 549 629 546 575 q 535 714 552 689 q 476 739 517 739 q 411 711 436 739 q 361 614 385 683 q 325 508 346 566 q 283 393 303 449 q 357 396 319 394 q 433 400 395 398 q 507 403 472 401 m 932 986 q 930 886 931 940 q 925 801 929 833 q 909 728 921 747 q 872 710 897 710 q 839 729 849 709 q 826 794 830 749 q 825 856 826 821 q 824 925 824 890 q 825 983 824 959 q 839 1069 826 1043 q 879 1096 851 1096 q 922 1068 910 1098 q 932 986 933 1038 m 733 1000 q 738 952 737 979 q 740 907 740 926 q 732 867 742 880 q 696 856 722 855 q 653 867 666 856 q 638 903 640 878 q 636 946 637 919 q 635 994 635 973 q 647 1057 635 1040 q 685 1074 659 1075 q 733 1000 725 1074 m 788 150 q 749 137 765 150 q 733 93 733 124 q 747 57 733 72 q 782 42 761 42 q 825 57 813 42 q 836 92 836 72 q 823 134 836 119 q 788 150 810 150 m 628 147 q 592 134 603 147 q 581 107 581 122 q 593 68 581 83 q 626 53 605 53 q 662 65 649 53 q 675 103 675 78 q 662 134 675 121 q 628 147 649 147 m 950 171 q 911 156 927 171 q 894 118 894 141 q 911 72 894 84 q 949 60 927 60 q 994 74 978 60 q 1011 113 1011 88 q 997 154 1011 138 q 950 171 983 171 m 75 18 q 75 18 75 18 q 75 18 75 18 q 75 18 75 18 q 75 18 75 18 q 75 18 75 18 q 75 18 75 18 q 75 18 75 18 q 75 18 75 18 m 111 78 q 111 78 111 78 q 111 78 111 78 q 111 78 111 78 q 111 78 111 78 q 111 78 111 78 q 111 78 111 78 q 111 78 111 78 q 111 78 111 78 m 175 388 l 135 276 q 53 283 87 276 q 19 326 19 290 q 39 363 20 351 q 92 380 58 375 q 175 388 127 385 m 249 279 q 215 174 238 248 q 161 11 192 100 q 131 -33 151 -19 q 90 -47 111 -47 q 49 -30 67 -47 q 31 19 31 -12 q 32 39 31 29 q 38 60 33 49 q 135 320 86 191 q 227 563 183 449 q 304 763 270 677 q 390 886 335 840 q 525 936 445 932 q 657 942 590 940 q 802 948 724 945 q 981 956 881 951 q 1064 940 1040 958 q 1088 888 1088 922 q 1061 830 1088 848 q 989 815 1034 813 q 897 822 947 818 q 799 829 847 826 q 715 832 751 832 q 681 817 694 832 q 667 753 668 802 q 664 676 665 715 q 664 599 664 636 q 678 568 664 579 q 721 558 693 558 q 829 562 779 560 q 914 561 878 563 q 961 545 943 559 q 979 500 979 531 q 959 452 979 468 q 906 436 938 435 q 791 441 842 438 q 701 444 740 444 q 670 431 680 444 q 660 392 660 417 q 660 344 660 372 q 663 289 661 317 q 665 240 664 260 q 679 214 667 222 q 713 211 692 207 q 818 233 770 222 q 911 253 865 244 q 1035 238 986 269 q 1085 121 1085 208 q 1042 0 1085 35 q 918 -33 999 -36 q 843 -30 886 -32 q 746 -25 800 -28 q 626 -18 692 -22 q 536 17 567 -15 q 508 111 504 49 q 514 189 510 151 q 519 260 517 228 q 512 285 521 278 q 481 290 503 292 q 410 288 449 289 q 328 285 370 287 q 249 279 286 283 m 478 998 q 442 985 459 987 q 412 994 424 983 q 397 1020 399 1006 q 417 1066 395 1042 q 466 1122 440 1092 q 518 1181 492 1152 q 565 1231 543 1209 q 622 1260 590 1257 q 681 1241 656 1264 q 710 1188 706 1218 q 701 1147 712 1167 q 665 1110 691 1126 q 569 1051 621 1083 q 478 998 517 1019 z "},"B":{"ha":789,"x_min":74,"x_max":758,"o":"m 133 160 q 120 271 128 203 q 105 418 113 340 q 90 572 97 497 q 78 704 83 647 q 74 785 74 761 q 109 851 74 827 q 199 887 144 876 q 316 902 254 899 q 433 906 378 906 q 541 887 496 906 q 610 834 586 869 q 635 749 635 799 q 620 667 635 699 q 587 618 606 636 q 553 588 568 599 q 539 567 539 577 q 543 559 539 562 q 554 554 547 556 q 663 514 619 542 q 730 436 708 487 q 753 306 753 386 q 700 127 753 199 q 556 19 647 56 q 351 -17 465 -17 q 228 1 272 -17 q 163 57 183 18 q 133 160 142 95 m 408 817 q 306 797 340 817 q 260 734 272 777 q 249 621 249 690 q 255 587 249 600 q 272 568 260 574 q 299 562 283 562 q 371 577 333 562 q 444 616 410 592 q 501 672 479 641 q 524 733 524 702 q 511 780 524 762 q 473 808 498 799 q 408 817 447 817 m 246 181 q 253 131 246 151 q 273 101 260 111 q 303 90 285 90 q 357 113 328 90 q 412 173 385 136 q 461 251 439 210 q 496 332 483 293 q 509 398 509 372 q 502 436 509 420 q 481 463 494 452 q 450 478 468 473 q 410 483 432 483 q 315 452 351 483 q 263 354 279 421 q 246 181 246 287 m 629 303 q 662 315 650 303 q 674 349 674 327 q 663 381 674 369 q 625 392 652 392 q 596 381 608 392 q 585 346 585 370 q 597 315 585 326 q 629 303 608 303 m 599 158 q 633 174 619 158 q 647 213 647 189 q 633 249 647 237 q 603 261 619 261 q 558 248 572 261 q 544 210 544 235 q 559 172 544 185 q 599 158 574 158 m 497 65 q 526 78 514 65 q 538 111 538 90 q 527 143 538 131 q 497 154 516 154 q 460 143 472 154 q 449 107 449 132 q 460 77 449 88 q 497 65 472 65 m 244 864 l 160 849 q 131 975 138 931 q 134 1036 124 1019 q 172 1053 144 1053 q 208 1037 195 1053 q 229 981 221 1022 q 244 864 237 940 m 426 874 l 329 879 q 343 980 336 944 q 363 1029 351 1015 q 394 1043 374 1043 q 428 1027 419 1043 q 436 975 438 1012 q 426 874 435 938 m 543 801 l 497 863 q 566 931 537 903 q 615 971 594 958 q 650 984 635 984 q 670 979 661 984 q 683 966 678 974 q 688 945 688 957 q 653 892 688 924 q 543 801 617 861 m 499 826 l 433 843 q 440 866 436 857 q 449 880 443 876 q 463 885 454 885 q 492 878 481 885 q 506 859 503 872 q 499 826 508 846 m 607 753 q 592 748 600 751 q 576 742 585 745 q 553 741 562 737 q 538 763 545 745 q 535 783 533 772 q 544 797 536 793 q 560 806 551 801 q 578 814 569 811 q 591 815 585 817 q 604 807 598 813 q 614 793 610 801 q 618 777 617 785 q 617 763 619 769 q 607 753 614 756 m 553 656 l 586 736 q 703 708 667 719 q 749 684 739 696 q 758 655 758 672 q 738 622 758 629 q 672 624 717 615 q 553 656 626 633 m 292 31 q 288 25 290 28 q 285 19 287 23 q 262 2 276 5 q 236 1 249 -1 q 211 21 221 7 q 210 50 201 35 q 213 56 211 53 q 215 61 214 58 q 218 67 217 64 q 245 87 228 85 q 276 81 263 89 q 295 59 289 74 q 292 31 301 45 z "},"b":{"ha":789,"x_min":74,"x_max":758,"o":"m 133 160 q 120 271 128 203 q 105 418 113 340 q 90 572 97 497 q 78 704 83 647 q 74 785 74 761 q 109 851 74 827 q 199 887 144 876 q 316 902 254 899 q 433 906 378 906 q 541 887 496 906 q 610 834 586 869 q 635 749 635 799 q 620 667 635 699 q 587 618 606 636 q 553 588 568 599 q 539 567 539 577 q 543 559 539 562 q 554 554 547 556 q 663 514 619 542 q 730 436 708 487 q 753 306 753 386 q 700 127 753 199 q 556 19 647 56 q 351 -17 465 -17 q 228 1 272 -17 q 163 57 183 18 q 133 160 142 95 m 408 817 q 306 797 340 817 q 260 734 272 777 q 249 621 249 690 q 255 587 249 600 q 272 568 260 574 q 299 562 283 562 q 371 577 333 562 q 444 616 410 592 q 501 672 479 641 q 524 733 524 702 q 511 780 524 762 q 473 808 498 799 q 408 817 447 817 m 246 181 q 253 131 246 151 q 273 101 260 111 q 303 90 285 90 q 357 113 328 90 q 412 173 385 136 q 461 251 439 210 q 496 332 483 293 q 509 398 509 372 q 502 436 509 420 q 481 463 494 452 q 450 478 468 473 q 410 483 432 483 q 315 452 351 483 q 263 354 279 421 q 246 181 246 287 m 629 303 q 662 315 650 303 q 674 349 674 327 q 663 381 674 369 q 625 392 652 392 q 596 381 608 392 q 585 346 585 370 q 597 315 585 326 q 629 303 608 303 m 599 158 q 633 174 619 158 q 647 213 647 189 q 633 249 647 237 q 603 261 619 261 q 558 248 572 261 q 544 210 544 235 q 559 172 544 185 q 599 158 574 158 m 497 65 q 526 78 514 65 q 538 111 538 90 q 527 143 538 131 q 497 154 516 154 q 460 143 472 154 q 449 107 449 132 q 460 77 449 88 q 497 65 472 65 m 244 864 l 160 849 q 131 975 138 931 q 134 1036 124 1019 q 172 1053 144 1053 q 208 1037 195 1053 q 229 981 221 1022 q 244 864 237 940 m 426 874 l 329 879 q 343 980 336 944 q 363 1029 351 1015 q 394 1043 374 1043 q 428 1027 419 1043 q 436 975 438 1012 q 426 874 435 938 m 543 801 l 497 863 q 566 931 537 903 q 615 971 594 958 q 650 984 635 984 q 670 979 661 984 q 683 966 678 974 q 688 945 688 957 q 653 892 688 924 q 543 801 617 861 m 499 826 l 433 843 q 440 866 436 857 q 449 880 443 876 q 463 885 454 885 q 492 878 481 885 q 506 859 503 872 q 499 826 508 846 m 607 753 q 592 748 600 751 q 576 742 585 745 q 553 741 562 737 q 538 763 545 745 q 535 783 533 772 q 544 797 536 793 q 560 806 551 801 q 578 814 569 811 q 591 815 585 817 q 604 807 598 813 q 614 793 610 801 q 618 777 617 785 q 617 763 619 769 q 607 753 614 756 m 553 656 l 586 736 q 703 708 667 719 q 749 684 739 696 q 758 655 758 672 q 738 622 758 629 q 672 624 717 615 q 553 656 626 633 m 292 31 q 288 25 290 28 q 285 19 287 23 q 262 2 276 5 q 236 1 249 -1 q 211 21 221 7 q 210 50 201 35 q 213 56 211 53 q 215 61 214 58 q 218 67 217 64 q 245 87 228 85 q 276 81 263 89 q 295 59 289 74 q 292 31 301 45 z "},"C":{"ha":714,"x_min":56,"x_max":682,"o":"m 403 -17 q 225 31 303 -17 q 101 180 147 78 q 56 442 56 281 q 111 733 56 611 q 263 922 167 856 q 478 988 358 988 q 580 973 533 988 q 654 934 626 959 q 682 878 682 909 q 670 845 682 855 q 642 835 658 835 q 615 840 626 835 q 594 850 603 845 q 586 855 590 853 q 579 858 583 856 q 572 862 575 860 q 560 867 566 865 q 550 871 555 869 q 540 874 545 873 q 524 878 532 876 q 508 881 516 880 q 496 881 503 881 q 483 882 490 881 q 468 882 476 882 q 457 882 463 882 q 445 881 451 881 q 433 880 439 881 q 298 814 354 870 q 211 673 241 758 q 181 489 181 588 q 191 403 181 440 q 219 344 202 367 q 254 313 236 322 q 268 307 263 308 q 279 303 273 305 q 285 184 273 213 q 322 156 297 155 q 354 182 342 157 q 368 292 366 208 q 406 295 385 292 q 444 301 427 299 q 448 177 442 217 q 464 126 453 138 q 492 114 475 114 q 523 130 512 114 q 533 190 533 145 q 521 321 533 234 q 544 327 533 325 q 571 329 556 329 q 643 287 618 329 q 668 192 668 245 q 647 100 668 140 q 590 35 626 61 q 505 -4 553 9 q 403 -17 457 -17 m 479 1058 q 501 914 490 992 q 521 765 512 836 q 520 727 524 743 q 505 703 516 712 q 474 695 493 695 q 441 711 452 695 q 422 754 429 727 q 392 897 408 820 q 364 1038 376 973 q 364 1084 359 1065 q 384 1114 369 1103 q 424 1124 399 1124 q 459 1110 444 1124 q 479 1058 473 1096 m 229 954 q 257 920 243 938 q 283 881 270 903 q 295 843 296 861 q 281 811 295 825 q 246 795 264 794 q 210 814 228 797 q 172 853 188 835 q 143 888 156 871 q 114 945 117 923 q 131 986 110 967 q 176 994 149 1004 q 229 954 203 983 m 392 458 q 330 480 351 458 q 308 533 308 502 q 328 594 308 575 q 379 614 347 614 q 442 593 420 614 q 464 535 464 572 q 445 478 464 499 q 392 458 427 458 m 596 88 q 598 84 597 85 q 600 81 599 83 q 592 57 608 67 q 560 47 575 47 q 551 49 556 47 q 543 54 546 51 q 539 60 541 58 q 536 65 538 63 l 596 88 m 425 69 q 426 64 425 67 q 426 57 426 60 q 410 33 428 42 q 373 24 392 24 q 344 30 357 24 q 329 51 331 35 q 329 59 329 55 q 329 67 329 63 q 345 92 328 83 q 376 100 361 100 q 408 93 394 100 q 425 69 423 86 z "},"c":{"ha":714,"x_min":56,"x_max":682,"o":"m 403 -17 q 225 31 303 -17 q 101 180 147 78 q 56 442 56 281 q 111 733 56 611 q 263 922 167 856 q 478 988 358 988 q 580 973 533 988 q 654 934 626 959 q 682 878 682 909 q 670 845 682 855 q 642 835 658 835 q 615 840 626 835 q 594 850 603 845 q 586 855 590 853 q 579 858 583 856 q 572 862 575 860 q 560 867 566 865 q 550 871 555 869 q 540 874 545 873 q 524 878 532 876 q 508 881 516 880 q 496 881 503 881 q 483 882 490 881 q 468 882 476 882 q 457 882 463 882 q 445 881 451 881 q 433 880 439 881 q 298 814 354 870 q 211 673 241 758 q 181 489 181 588 q 191 403 181 440 q 219 344 202 367 q 254 313 236 322 q 268 307 263 308 q 279 303 273 305 q 285 184 273 213 q 322 156 297 155 q 354 182 342 157 q 368 292 366 208 q 406 295 385 292 q 444 301 427 299 q 448 177 442 217 q 464 126 453 138 q 492 114 475 114 q 523 130 512 114 q 533 190 533 145 q 521 321 533 234 q 544 327 533 325 q 571 329 556 329 q 643 287 618 329 q 668 192 668 245 q 647 100 668 140 q 590 35 626 61 q 505 -4 553 9 q 403 -17 457 -17 m 479 1058 q 501 914 490 992 q 521 765 512 836 q 520 727 524 743 q 505 703 516 712 q 474 695 493 695 q 441 711 452 695 q 422 754 429 727 q 392 897 408 820 q 364 1038 376 973 q 364 1084 359 1065 q 384 1114 369 1103 q 424 1124 399 1124 q 459 1110 444 1124 q 479 1058 473 1096 m 229 954 q 257 920 243 938 q 283 881 270 903 q 295 843 296 861 q 281 811 295 825 q 246 795 264 794 q 210 814 228 797 q 172 853 188 835 q 143 888 156 871 q 114 945 117 923 q 131 986 110 967 q 176 994 149 1004 q 229 954 203 983 m 392 458 q 330 480 351 458 q 308 533 308 502 q 328 594 308 575 q 379 614 347 614 q 442 593 420 614 q 464 535 464 572 q 445 478 464 499 q 392 458 427 458 m 596 88 q 598 84 597 85 q 600 81 599 83 q 592 57 608 67 q 560 47 575 47 q 551 49 556 47 q 543 54 546 51 q 539 60 541 58 q 536 65 538 63 l 596 88 m 425 69 q 426 64 425 67 q 426 57 426 60 q 410 33 428 42 q 373 24 392 24 q 344 30 357 24 q 329 51 331 35 q 329 59 329 55 q 329 67 329 63 q 345 92 328 83 q 376 100 361 100 q 408 93 394 100 q 425 69 423 86 z "},"Ć":{"ha":714,"x_min":56,"x_max":682,"o":"m 403 -17 q 225 31 303 -17 q 101 180 147 78 q 56 442 56 281 q 111 733 56 611 q 263 922 167 856 q 478 988 358 988 q 580 973 533 988 q 654 934 626 959 q 682 878 682 909 q 670 845 682 855 q 642 835 658 835 q 615 840 626 835 q 594 850 603 845 q 586 855 590 853 q 579 858 583 856 q 572 862 575 860 q 560 867 566 865 q 550 871 555 869 q 540 874 545 873 q 524 878 532 876 q 508 881 516 880 q 496 881 503 881 q 483 882 490 881 q 468 882 476 882 q 457 882 463 882 q 445 881 451 881 q 433 880 439 881 q 298 814 354 870 q 211 673 241 758 q 181 489 181 588 q 191 403 181 440 q 219 344 202 367 q 254 313 236 322 q 268 307 263 308 q 279 303 273 305 q 285 184 273 213 q 322 156 297 155 q 354 182 342 157 q 368 292 366 208 q 406 295 385 292 q 444 301 427 299 q 448 177 442 217 q 464 126 453 138 q 492 114 475 114 q 523 130 512 114 q 533 190 533 145 q 521 321 533 234 q 544 327 533 325 q 571 329 556 329 q 643 287 618 329 q 668 192 668 245 q 647 100 668 140 q 590 35 626 61 q 505 -4 553 9 q 403 -17 457 -17 m 506 889 q 517 819 512 853 q 522 750 522 785 q 515 716 524 728 q 488 697 506 703 q 453 702 469 692 q 429 736 438 711 q 411 801 420 767 q 394 868 403 834 q 403 919 388 901 q 442 940 419 938 q 482 930 463 942 q 506 889 501 918 m 229 954 q 257 920 243 938 q 283 881 270 903 q 295 843 296 861 q 281 811 295 825 q 246 795 264 794 q 210 814 228 797 q 172 853 188 835 q 143 888 156 871 q 114 945 117 923 q 131 986 110 967 q 176 994 149 1004 q 229 954 203 983 m 386 458 q 331 481 354 458 q 308 536 308 504 q 331 591 308 569 q 386 614 354 614 q 441 591 419 614 q 464 536 464 569 q 441 481 464 504 q 386 458 419 458 m 596 88 q 598 84 597 85 q 600 81 599 83 q 600 65 606 72 q 583 53 594 57 q 561 48 573 48 q 543 54 549 47 q 540 60 541 58 q 536 65 538 63 q 537 82 531 74 q 553 96 542 91 q 576 100 563 101 q 596 88 589 99 m 425 69 q 426 64 425 67 q 426 57 426 60 q 413 35 428 44 q 379 24 398 26 q 347 29 362 23 q 331 51 332 35 q 330 59 331 56 q 329 67 329 63 q 341 90 328 81 q 371 100 354 98 q 406 94 390 101 q 425 69 423 88 m 421 1055 q 384 1046 401 1046 q 355 1058 367 1046 q 343 1085 343 1070 q 367 1128 343 1107 q 421 1180 392 1153 q 478 1233 450 1207 q 531 1278 507 1258 q 590 1301 559 1301 q 648 1276 625 1301 q 670 1220 670 1251 q 658 1181 670 1200 q 618 1148 646 1161 q 517 1099 572 1125 q 421 1055 462 1073 z "},"ć":{"ha":714,"x_min":56,"x_max":682,"o":"m 403 -17 q 225 31 303 -17 q 101 180 147 78 q 56 442 56 281 q 111 733 56 611 q 263 922 167 856 q 478 988 358 988 q 580 973 533 988 q 654 934 626 959 q 682 878 682 909 q 670 845 682 855 q 642 835 658 835 q 615 840 626 835 q 594 850 603 845 q 586 855 590 853 q 579 858 583 856 q 572 862 575 860 q 560 867 566 865 q 550 871 555 869 q 540 874 545 873 q 524 878 532 876 q 508 881 516 880 q 496 881 503 881 q 483 882 490 881 q 468 882 476 882 q 457 882 463 882 q 445 881 451 881 q 433 880 439 881 q 298 814 354 870 q 211 673 241 758 q 181 489 181 588 q 191 403 181 440 q 219 344 202 367 q 254 313 236 322 q 268 307 263 308 q 279 303 273 305 q 285 184 273 213 q 322 156 297 155 q 354 182 342 157 q 368 292 366 208 q 406 295 385 292 q 444 301 427 299 q 448 177 442 217 q 464 126 453 138 q 492 114 475 114 q 523 130 512 114 q 533 190 533 145 q 521 321 533 234 q 544 327 533 325 q 571 329 556 329 q 643 287 618 329 q 668 192 668 245 q 647 100 668 140 q 590 35 626 61 q 505 -4 553 9 q 403 -17 457 -17 m 506 889 q 517 819 512 853 q 522 750 522 785 q 515 716 524 728 q 488 697 506 703 q 453 702 469 692 q 429 736 438 711 q 411 801 420 767 q 394 868 403 834 q 403 919 388 901 q 442 940 419 938 q 482 930 463 942 q 506 889 501 918 m 229 954 q 257 920 243 938 q 283 881 270 903 q 295 843 296 861 q 281 811 295 825 q 246 795 264 794 q 210 814 228 797 q 172 853 188 835 q 143 888 156 871 q 114 945 117 923 q 131 986 110 967 q 176 994 149 1004 q 229 954 203 983 m 386 458 q 331 481 354 458 q 308 536 308 504 q 331 591 308 569 q 386 614 354 614 q 441 591 419 614 q 464 536 464 569 q 441 481 464 504 q 386 458 419 458 m 596 88 q 598 84 597 85 q 600 81 599 83 q 600 65 606 72 q 583 53 594 57 q 561 48 573 48 q 543 54 549 47 q 540 60 541 58 q 536 65 538 63 q 537 82 531 74 q 553 96 542 91 q 576 100 563 101 q 596 88 589 99 m 425 69 q 426 64 425 67 q 426 57 426 60 q 413 35 428 44 q 379 24 398 26 q 347 29 362 23 q 331 51 332 35 q 330 59 331 56 q 329 67 329 63 q 341 90 328 81 q 371 100 354 98 q 406 94 390 101 q 425 69 423 88 m 421 1055 q 384 1046 401 1046 q 355 1058 367 1046 q 343 1085 343 1070 q 367 1128 343 1107 q 421 1180 392 1153 q 478 1233 450 1207 q 531 1278 507 1258 q 590 1301 559 1301 q 648 1276 625 1301 q 670 1220 670 1251 q 658 1181 670 1200 q 618 1148 646 1161 q 517 1099 572 1125 q 421 1055 462 1073 z "},"Č":{"ha":714,"x_min":56,"x_max":682,"o":"m 403 -17 q 225 31 303 -17 q 101 180 147 78 q 56 442 56 281 q 111 733 56 611 q 263 922 167 856 q 478 988 358 988 q 580 973 533 988 q 654 934 626 959 q 682 878 682 909 q 670 845 682 855 q 642 835 658 835 q 615 840 626 835 q 594 850 603 845 q 586 855 590 853 q 579 858 583 856 q 572 862 575 860 q 560 867 566 865 q 550 871 555 869 q 540 874 545 873 q 524 878 532 876 q 508 881 516 880 q 496 881 503 881 q 483 882 490 881 q 468 882 476 882 q 457 882 463 882 q 445 881 451 881 q 433 880 439 881 q 298 814 354 870 q 211 673 241 758 q 181 489 181 588 q 191 403 181 440 q 219 344 202 367 q 254 313 236 322 q 268 307 263 308 q 279 303 273 305 q 285 184 273 213 q 322 156 297 155 q 354 182 342 157 q 368 292 366 208 q 406 295 385 292 q 444 301 427 299 q 448 177 442 217 q 464 126 453 138 q 492 114 475 114 q 523 130 512 114 q 533 190 533 145 q 521 321 533 234 q 544 327 533 325 q 571 329 556 329 q 643 287 618 329 q 668 192 668 245 q 647 100 668 140 q 590 35 626 61 q 505 -4 553 9 q 403 -17 457 -17 m 506 889 q 517 819 512 853 q 522 750 522 785 q 515 716 524 728 q 488 697 506 703 q 453 702 469 692 q 429 736 438 711 q 411 801 420 767 q 394 868 403 834 q 403 919 388 901 q 442 940 419 938 q 482 930 463 942 q 506 889 501 918 m 229 954 q 257 920 243 938 q 283 881 270 903 q 295 843 296 861 q 281 811 295 825 q 246 795 264 794 q 210 814 228 797 q 172 853 188 835 q 143 888 156 871 q 114 945 117 923 q 131 986 110 967 q 176 994 149 1004 q 229 954 203 983 m 386 458 q 331 481 354 458 q 308 536 308 504 q 331 591 308 569 q 386 614 354 614 q 441 591 419 614 q 464 536 464 569 q 441 481 464 504 q 386 458 419 458 m 596 88 q 598 84 597 85 q 600 81 599 83 q 600 65 606 72 q 583 53 594 57 q 561 48 573 48 q 543 54 549 47 q 540 60 541 58 q 536 65 538 63 q 537 82 531 74 q 553 96 542 91 q 576 100 563 101 q 596 88 589 99 m 425 69 q 426 64 425 67 q 426 57 426 60 q 413 35 428 44 q 379 24 398 26 q 347 29 362 23 q 331 51 332 35 q 330 59 331 56 q 329 67 329 63 q 341 90 328 81 q 371 100 354 98 q 406 94 390 101 q 425 69 423 88 m 590 1295 q 638 1313 615 1313 q 669 1301 656 1313 q 682 1270 682 1290 q 658 1216 682 1242 q 580 1133 615 1168 q 496 1058 545 1099 q 424 1030 464 1030 q 369 1052 392 1030 q 307 1115 338 1083 q 249 1183 276 1147 q 228 1237 228 1210 q 247 1280 228 1263 q 290 1296 267 1296 q 339 1269 319 1296 q 373 1222 359 1242 q 399 1187 386 1201 q 422 1172 409 1176 q 451 1180 435 1167 q 514 1232 476 1198 q 590 1295 552 1266 z "},"č":{"ha":714,"x_min":56,"x_max":682,"o":"m 403 -17 q 225 31 303 -17 q 101 180 147 78 q 56 442 56 281 q 111 733 56 611 q 263 922 167 856 q 478 988 358 988 q 580 973 533 988 q 654 934 626 959 q 682 878 682 909 q 670 845 682 855 q 642 835 658 835 q 615 840 626 835 q 594 850 603 845 q 586 855 590 853 q 579 858 583 856 q 572 862 575 860 q 560 867 566 865 q 550 871 555 869 q 540 874 545 873 q 524 878 532 876 q 508 881 516 880 q 496 881 503 881 q 483 882 490 881 q 468 882 476 882 q 457 882 463 882 q 445 881 451 881 q 433 880 439 881 q 298 814 354 870 q 211 673 241 758 q 181 489 181 588 q 191 403 181 440 q 219 344 202 367 q 254 313 236 322 q 268 307 263 308 q 279 303 273 305 q 285 184 273 213 q 322 156 297 155 q 354 182 342 157 q 368 292 366 208 q 406 295 385 292 q 444 301 427 299 q 448 177 442 217 q 464 126 453 138 q 492 114 475 114 q 523 130 512 114 q 533 190 533 145 q 521 321 533 234 q 544 327 533 325 q 571 329 556 329 q 643 287 618 329 q 668 192 668 245 q 647 100 668 140 q 590 35 626 61 q 505 -4 553 9 q 403 -17 457 -17 m 506 889 q 517 819 512 853 q 522 750 522 785 q 515 716 524 728 q 488 697 506 703 q 453 702 469 692 q 429 736 438 711 q 411 801 420 767 q 394 868 403 834 q 403 919 388 901 q 442 940 419 938 q 482 930 463 942 q 506 889 501 918 m 229 954 q 257 920 243 938 q 283 881 270 903 q 295 843 296 861 q 281 811 295 825 q 246 795 264 794 q 210 814 228 797 q 172 853 188 835 q 143 888 156 871 q 114 945 117 923 q 131 986 110 967 q 176 994 149 1004 q 229 954 203 983 m 386 458 q 331 481 354 458 q 308 536 308 504 q 331 591 308 569 q 386 614 354 614 q 441 591 419 614 q 464 536 464 569 q 441 481 464 504 q 386 458 419 458 m 596 88 q 598 84 597 85 q 600 81 599 83 q 600 65 606 72 q 583 53 594 57 q 561 48 573 48 q 543 54 549 47 q 540 60 541 58 q 536 65 538 63 q 537 82 531 74 q 553 96 542 91 q 576 100 563 101 q 596 88 589 99 m 425 69 q 426 64 425 67 q 426 57 426 60 q 413 35 428 44 q 379 24 398 26 q 347 29 362 23 q 331 51 332 35 q 330 59 331 56 q 329 67 329 63 q 341 90 328 81 q 371 100 354 98 q 406 94 390 101 q 425 69 423 88 m 590 1295 q 638 1313 615 1313 q 669 1301 656 1313 q 682 1270 682 1290 q 658 1216 682 1242 q 580 1133 615 1168 q 496 1058 545 1099 q 424 1030 464 1030 q 369 1052 392 1030 q 307 1115 338 1083 q 249 1183 276 1147 q 228 1237 228 1210 q 247 1280 228 1263 q 290 1296 267 1296 q 339 1269 319 1296 q 373 1222 359 1242 q 399 1187 386 1201 q 422 1172 409 1176 q 451 1180 435 1167 q 514 1232 476 1198 q 590 1295 552 1266 z "},"Ç":{"ha":714,"x_min":56,"x_max":700,"o":"m 431 -350 q 347 -332 385 -350 q 286 -292 308 -313 q 265 -257 270 -276 q 267 -224 260 -237 q 296 -210 274 -210 q 325 -215 309 -210 q 360 -225 342 -220 q 397 -231 378 -231 q 424 -225 415 -231 q 432 -207 432 -219 q 413 -181 432 -192 q 369 -158 394 -171 q 326 -124 344 -146 q 307 -65 307 -102 q 309 -42 307 -49 q 312 -21 312 -35 q 308 -9 312 -13 q 293 -1 305 -4 q 171 71 225 18 q 86 215 117 124 q 56 436 56 306 q 114 731 56 607 q 271 921 172 854 q 496 988 371 988 q 598 973 551 988 q 672 934 644 959 q 700 878 700 909 q 688 845 700 855 q 660 835 676 835 q 633 840 644 835 q 613 850 621 845 q 602 856 608 853 q 592 861 597 858 q 582 865 587 863 q 574 868 578 867 q 565 872 570 870 q 556 875 560 874 q 538 880 547 878 q 519 882 529 881 q 507 883 513 883 q 496 882 501 883 q 486 882 491 882 q 477 882 482 882 q 466 881 472 881 q 454 879 460 880 q 318 822 380 870 q 218 689 256 773 q 181 489 181 605 q 191 403 181 440 q 219 344 202 367 q 254 313 236 322 q 268 307 263 308 q 279 303 273 305 q 285 184 273 213 q 322 156 297 155 q 354 182 342 157 q 368 292 366 208 q 406 295 385 292 q 444 301 427 299 q 448 177 442 217 q 464 126 453 138 q 492 114 475 114 q 523 130 512 114 q 533 190 533 145 q 521 321 533 234 q 544 327 533 325 q 571 329 556 329 q 634 300 610 329 q 665 228 658 271 q 663 140 673 185 q 622 64 652 95 q 545 10 592 32 q 429 -16 497 -12 q 411 -25 417 -17 q 406 -47 406 -33 q 421 -86 406 -72 q 460 -113 437 -101 q 506 -138 483 -124 q 544 -173 528 -151 q 560 -228 560 -194 q 526 -316 560 -282 q 431 -350 493 -350 m 479 1058 q 501 914 490 992 q 521 765 512 836 q 517 719 525 738 q 483 696 510 700 q 444 708 458 692 q 422 754 430 724 q 392 897 408 820 q 364 1038 376 973 q 370 1099 357 1081 q 408 1122 383 1118 q 454 1114 435 1126 q 479 1058 472 1102 m 229 954 q 257 920 243 938 q 283 881 270 903 q 295 843 296 861 q 281 811 295 825 q 246 795 264 794 q 210 814 228 797 q 172 853 188 835 q 143 888 156 871 q 114 945 117 923 q 131 986 110 967 q 176 994 149 1004 q 229 954 203 983 m 386 458 q 331 481 354 458 q 308 536 308 504 q 331 591 308 569 q 386 614 354 614 q 441 591 419 614 q 464 536 464 569 q 441 481 464 504 q 386 458 419 458 z "},"ç":{"ha":714,"x_min":56,"x_max":700,"o":"m 431 -350 q 347 -332 385 -350 q 286 -292 308 -313 q 265 -257 270 -276 q 267 -224 260 -237 q 296 -210 274 -210 q 325 -215 309 -210 q 360 -225 342 -220 q 397 -231 378 -231 q 424 -225 415 -231 q 432 -207 432 -219 q 413 -181 432 -192 q 369 -158 394 -171 q 326 -124 344 -146 q 307 -65 307 -102 q 309 -42 307 -49 q 312 -21 312 -35 q 308 -9 312 -13 q 293 -1 305 -4 q 171 71 225 18 q 86 215 117 124 q 56 436 56 306 q 114 731 56 607 q 271 921 172 854 q 496 988 371 988 q 598 973 551 988 q 672 934 644 959 q 700 878 700 909 q 688 845 700 855 q 660 835 676 835 q 633 840 644 835 q 613 850 621 845 q 602 856 608 853 q 592 861 597 858 q 582 865 587 863 q 574 868 578 867 q 565 872 570 870 q 556 875 560 874 q 538 880 547 878 q 519 882 529 881 q 507 883 513 883 q 496 882 501 883 q 486 882 491 882 q 477 882 482 882 q 466 881 472 881 q 454 879 460 880 q 318 822 380 870 q 218 689 256 773 q 181 489 181 605 q 191 403 181 440 q 219 344 202 367 q 254 313 236 322 q 268 307 263 308 q 279 303 273 305 q 285 184 273 213 q 322 156 297 155 q 354 182 342 157 q 368 292 366 208 q 406 295 385 292 q 444 301 427 299 q 448 177 442 217 q 464 126 453 138 q 492 114 475 114 q 523 130 512 114 q 533 190 533 145 q 521 321 533 234 q 544 327 533 325 q 571 329 556 329 q 634 300 610 329 q 665 228 658 271 q 663 140 673 185 q 622 64 652 95 q 545 10 592 32 q 429 -16 497 -12 q 411 -25 417 -17 q 406 -47 406 -33 q 421 -86 406 -72 q 460 -113 437 -101 q 506 -138 483 -124 q 544 -173 528 -151 q 560 -228 560 -194 q 526 -316 560 -282 q 431 -350 493 -350 m 479 1058 q 501 914 490 992 q 521 765 512 836 q 517 719 525 738 q 483 696 510 700 q 444 708 458 692 q 422 754 430 724 q 392 897 408 820 q 364 1038 376 973 q 370 1099 357 1081 q 408 1122 383 1118 q 454 1114 435 1126 q 479 1058 472 1102 m 229 954 q 257 920 243 938 q 283 881 270 903 q 295 843 296 861 q 281 811 295 825 q 246 795 264 794 q 210 814 228 797 q 172 853 188 835 q 143 888 156 871 q 114 945 117 923 q 131 986 110 967 q 176 994 149 1004 q 229 954 203 983 m 386 458 q 331 481 354 458 q 308 536 308 504 q 331 591 308 569 q 386 614 354 614 q 441 591 419 614 q 464 536 464 569 q 441 481 464 504 q 386 458 419 458 z "},"Ḉ":{"ha":714,"x_min":56,"x_max":682,"o":"m 403 -17 q 225 31 303 -17 q 101 180 147 78 q 56 442 56 281 q 111 733 56 611 q 263 922 167 856 q 478 988 358 988 q 580 973 533 988 q 654 934 626 959 q 682 878 682 909 q 670 845 682 855 q 642 835 658 835 q 615 840 626 835 q 594 850 603 845 q 586 855 590 853 q 579 858 583 856 q 572 862 575 860 q 560 867 566 865 q 550 871 555 869 q 540 874 545 873 q 524 878 532 876 q 508 881 516 880 q 496 881 503 881 q 483 882 490 881 q 468 882 476 882 q 457 882 463 882 q 445 881 451 881 q 433 880 439 881 q 298 814 354 870 q 211 673 241 758 q 181 489 181 588 q 191 403 181 440 q 219 344 202 367 q 254 313 236 322 q 268 307 263 308 q 279 303 273 305 q 285 184 273 213 q 322 156 297 155 q 354 182 342 157 q 368 292 366 208 q 406 295 385 292 q 444 301 427 299 q 448 177 442 217 q 464 126 453 138 q 492 114 475 114 q 523 130 512 114 q 533 190 533 145 q 521 321 533 234 q 544 327 533 325 q 571 329 556 329 q 643 287 618 329 q 668 192 668 245 q 647 100 668 140 q 590 35 626 61 q 505 -4 553 9 q 403 -17 457 -17 m 229 954 q 257 920 243 938 q 283 881 270 903 q 295 843 296 861 q 281 811 295 825 q 246 795 264 794 q 210 814 228 797 q 172 853 188 835 q 143 888 156 871 q 114 945 117 923 q 131 986 110 967 q 176 994 149 1004 q 229 954 203 983 m 386 458 q 331 481 354 458 q 308 536 308 504 q 331 591 308 569 q 386 614 354 614 q 441 591 419 614 q 464 536 464 569 q 441 481 464 504 q 386 458 419 458 m 296 -210 q 325 -215 309 -210 q 360 -225 342 -220 q 397 -231 378 -231 q 424 -225 415 -231 q 432 -207 432 -219 q 413 -181 432 -192 q 369 -158 394 -171 q 326 -124 344 -146 q 307 -64 307 -102 q 314 -14 307 -42 q 338 44 321 15 q 382 80 357 77 q 423 69 408 83 q 428 33 438 54 q 415 4 419 17 q 408 -21 410 -9 q 406 -47 406 -33 q 421 -86 406 -72 q 460 -113 437 -101 q 506 -138 483 -124 q 544 -173 528 -151 q 560 -228 560 -194 q 526 -316 560 -282 q 431 -350 493 -350 q 355 -335 394 -350 q 289 -295 315 -320 q 263 -242 263 -270 q 270 -219 263 -228 q 296 -210 278 -210 m 407 1050 q 370 1041 387 1041 q 341 1053 353 1041 q 329 1080 329 1065 q 353 1124 329 1102 q 407 1175 378 1148 q 465 1228 436 1202 q 517 1274 493 1253 q 576 1297 545 1297 q 634 1271 611 1297 q 656 1215 656 1246 q 644 1176 656 1195 q 604 1143 632 1156 q 503 1094 558 1120 q 407 1050 448 1068 z "},"ḉ":{"ha":714,"x_min":56,"x_max":682,"o":"m 403 -17 q 225 31 303 -17 q 101 180 147 78 q 56 442 56 281 q 111 733 56 611 q 263 922 167 856 q 478 988 358 988 q 580 973 533 988 q 654 934 626 959 q 682 878 682 909 q 670 845 682 855 q 642 835 658 835 q 615 840 626 835 q 594 850 603 845 q 586 855 590 853 q 579 858 583 856 q 572 862 575 860 q 560 867 566 865 q 550 871 555 869 q 540 874 545 873 q 524 878 532 876 q 508 881 516 880 q 496 881 503 881 q 483 882 490 881 q 468 882 476 882 q 457 882 463 882 q 445 881 451 881 q 433 880 439 881 q 298 814 354 870 q 211 673 241 758 q 181 489 181 588 q 191 403 181 440 q 219 344 202 367 q 254 313 236 322 q 268 307 263 308 q 279 303 273 305 q 285 184 273 213 q 322 156 297 155 q 354 182 342 157 q 368 292 366 208 q 406 295 385 292 q 444 301 427 299 q 448 177 442 217 q 464 126 453 138 q 492 114 475 114 q 523 130 512 114 q 533 190 533 145 q 521 321 533 234 q 544 327 533 325 q 571 329 556 329 q 643 287 618 329 q 668 192 668 245 q 647 100 668 140 q 590 35 626 61 q 505 -4 553 9 q 403 -17 457 -17 m 229 954 q 257 920 243 938 q 283 881 270 903 q 295 843 296 861 q 281 811 295 825 q 246 795 264 794 q 210 814 228 797 q 172 853 188 835 q 143 888 156 871 q 114 945 117 923 q 131 986 110 967 q 176 994 149 1004 q 229 954 203 983 m 386 458 q 331 481 354 458 q 308 536 308 504 q 331 591 308 569 q 386 614 354 614 q 441 591 419 614 q 464 536 464 569 q 441 481 464 504 q 386 458 419 458 m 296 -210 q 325 -215 309 -210 q 360 -225 342 -220 q 397 -231 378 -231 q 424 -225 415 -231 q 432 -207 432 -219 q 413 -181 432 -192 q 369 -158 394 -171 q 326 -124 344 -146 q 307 -64 307 -102 q 314 -14 307 -42 q 338 44 321 15 q 382 80 357 77 q 423 69 408 83 q 428 33 438 54 q 415 4 419 17 q 408 -21 410 -9 q 406 -47 406 -33 q 421 -86 406 -72 q 460 -113 437 -101 q 506 -138 483 -124 q 544 -173 528 -151 q 560 -228 560 -194 q 526 -316 560 -282 q 431 -350 493 -350 q 355 -335 394 -350 q 289 -295 315 -320 q 263 -242 263 -270 q 270 -219 263 -228 q 296 -210 278 -210 m 407 1050 q 370 1041 387 1041 q 341 1053 353 1041 q 329 1080 329 1065 q 353 1124 329 1102 q 407 1175 378 1148 q 465 1228 436 1202 q 517 1274 493 1253 q 576 1297 545 1297 q 634 1271 611 1297 q 656 1215 656 1246 q 644 1176 656 1195 q 604 1143 632 1156 q 503 1094 558 1120 q 407 1050 448 1068 z "},"Ĉ":{"ha":714,"x_min":56,"x_max":682,"o":"m 403 -17 q 225 31 303 -17 q 101 180 147 78 q 56 442 56 281 q 111 733 56 611 q 263 922 167 856 q 478 988 358 988 q 580 973 533 988 q 654 934 626 959 q 682 878 682 909 q 670 845 682 855 q 642 835 658 835 q 615 840 626 835 q 594 850 603 845 q 586 855 590 853 q 579 858 583 856 q 572 862 575 860 q 560 867 566 865 q 550 871 555 869 q 540 874 545 873 q 524 878 532 876 q 508 881 516 880 q 496 881 503 881 q 483 882 490 881 q 468 882 476 882 q 457 882 463 882 q 445 881 451 881 q 433 880 439 881 q 298 814 354 870 q 211 673 241 758 q 181 489 181 588 q 191 403 181 440 q 219 344 202 367 q 254 313 236 322 q 268 307 263 308 q 279 303 273 305 q 285 184 273 213 q 322 156 297 155 q 354 182 342 157 q 368 292 366 208 q 406 295 385 292 q 444 301 427 299 q 448 177 442 217 q 464 126 453 138 q 492 114 475 114 q 523 130 512 114 q 533 190 533 145 q 521 321 533 234 q 544 327 533 325 q 571 329 556 329 q 643 287 618 329 q 668 192 668 245 q 647 100 668 140 q 590 35 626 61 q 505 -4 553 9 q 403 -17 457 -17 m 506 889 q 517 819 512 853 q 522 750 522 785 q 515 716 524 728 q 488 697 506 703 q 453 702 469 692 q 429 736 438 711 q 411 801 420 767 q 394 868 403 834 q 403 919 388 901 q 442 940 419 938 q 482 930 463 942 q 506 889 501 918 m 229 954 q 257 920 243 938 q 283 881 270 903 q 295 843 296 861 q 281 811 295 825 q 246 795 264 794 q 210 814 228 797 q 172 853 188 835 q 143 888 156 871 q 114 945 117 923 q 131 986 110 967 q 176 994 149 1004 q 229 954 203 983 m 386 458 q 331 481 354 458 q 308 536 308 504 q 331 591 308 569 q 386 614 354 614 q 441 591 419 614 q 464 536 464 569 q 441 481 464 504 q 386 458 419 458 m 596 88 q 598 84 597 85 q 600 81 599 83 q 600 65 606 72 q 583 53 594 57 q 561 48 573 48 q 543 54 549 47 q 540 60 541 58 q 536 65 538 63 q 537 82 531 74 q 553 96 542 91 q 576 100 563 101 q 596 88 589 99 m 425 69 q 426 64 425 67 q 426 57 426 60 q 413 35 428 44 q 379 24 398 26 q 347 29 362 23 q 331 51 332 35 q 330 59 331 56 q 329 67 329 63 q 341 90 328 81 q 371 100 354 98 q 406 94 390 101 q 425 69 423 88 m 313 1033 q 265 1015 288 1015 q 234 1026 247 1015 q 221 1058 221 1038 q 244 1112 221 1086 q 323 1195 288 1160 q 407 1270 358 1230 q 478 1298 439 1298 q 533 1276 511 1298 q 596 1213 565 1244 q 654 1145 627 1181 q 675 1091 675 1117 q 656 1048 675 1065 q 613 1032 636 1032 q 564 1059 583 1032 q 531 1106 544 1086 q 504 1141 517 1126 q 481 1157 494 1153 q 451 1148 468 1160 q 390 1096 428 1131 q 313 1033 351 1062 z "},"ĉ":{"ha":714,"x_min":56,"x_max":682,"o":"m 403 -17 q 225 31 303 -17 q 101 180 147 78 q 56 442 56 281 q 111 733 56 611 q 263 922 167 856 q 478 988 358 988 q 580 973 533 988 q 654 934 626 959 q 682 878 682 909 q 670 845 682 855 q 642 835 658 835 q 615 840 626 835 q 594 850 603 845 q 586 855 590 853 q 579 858 583 856 q 572 862 575 860 q 560 867 566 865 q 550 871 555 869 q 540 874 545 873 q 524 878 532 876 q 508 881 516 880 q 496 881 503 881 q 483 882 490 881 q 468 882 476 882 q 457 882 463 882 q 445 881 451 881 q 433 880 439 881 q 298 814 354 870 q 211 673 241 758 q 181 489 181 588 q 191 403 181 440 q 219 344 202 367 q 254 313 236 322 q 268 307 263 308 q 279 303 273 305 q 285 184 273 213 q 322 156 297 155 q 354 182 342 157 q 368 292 366 208 q 406 295 385 292 q 444 301 427 299 q 448 177 442 217 q 464 126 453 138 q 492 114 475 114 q 523 130 512 114 q 533 190 533 145 q 521 321 533 234 q 544 327 533 325 q 571 329 556 329 q 643 287 618 329 q 668 192 668 245 q 647 100 668 140 q 590 35 626 61 q 505 -4 553 9 q 403 -17 457 -17 m 506 889 q 517 819 512 853 q 522 750 522 785 q 515 716 524 728 q 488 697 506 703 q 453 702 469 692 q 429 736 438 711 q 411 801 420 767 q 394 868 403 834 q 403 919 388 901 q 442 940 419 938 q 482 930 463 942 q 506 889 501 918 m 229 954 q 257 920 243 938 q 283 881 270 903 q 295 843 296 861 q 281 811 295 825 q 246 795 264 794 q 210 814 228 797 q 172 853 188 835 q 143 888 156 871 q 114 945 117 923 q 131 986 110 967 q 176 994 149 1004 q 229 954 203 983 m 386 458 q 331 481 354 458 q 308 536 308 504 q 331 591 308 569 q 386 614 354 614 q 441 591 419 614 q 464 536 464 569 q 441 481 464 504 q 386 458 419 458 m 596 88 q 598 84 597 85 q 600 81 599 83 q 600 65 606 72 q 583 53 594 57 q 561 48 573 48 q 543 54 549 47 q 540 60 541 58 q 536 65 538 63 q 537 82 531 74 q 553 96 542 91 q 576 100 563 101 q 596 88 589 99 m 425 69 q 426 64 425 67 q 426 57 426 60 q 413 35 428 44 q 379 24 398 26 q 347 29 362 23 q 331 51 332 35 q 330 59 331 56 q 329 67 329 63 q 341 90 328 81 q 371 100 354 98 q 406 94 390 101 q 425 69 423 88 m 313 1033 q 265 1015 288 1015 q 234 1026 247 1015 q 221 1058 221 1038 q 244 1112 221 1086 q 323 1195 288 1160 q 407 1270 358 1230 q 478 1298 439 1298 q 533 1276 511 1298 q 596 1213 565 1244 q 654 1145 627 1181 q 675 1091 675 1117 q 656 1048 675 1065 q 613 1032 636 1032 q 564 1059 583 1032 q 531 1106 544 1086 q 504 1141 517 1126 q 481 1157 494 1153 q 451 1148 468 1160 q 390 1096 428 1131 q 313 1033 351 1062 z "},"Ċ":{"ha":714,"x_min":56,"x_max":682,"o":"m 403 -17 q 225 31 303 -17 q 101 180 147 78 q 56 442 56 281 q 111 733 56 611 q 263 922 167 856 q 478 988 358 988 q 580 973 533 988 q 654 934 626 959 q 682 878 682 909 q 670 845 682 855 q 642 835 658 835 q 615 840 626 835 q 594 850 603 845 q 586 855 590 853 q 579 858 583 856 q 572 862 575 860 q 560 867 566 865 q 550 871 555 869 q 540 874 545 873 q 524 878 532 876 q 508 881 516 880 q 496 881 503 881 q 483 882 490 881 q 468 882 476 882 q 457 882 463 882 q 445 881 451 881 q 433 880 439 881 q 298 814 354 870 q 211 673 241 758 q 181 489 181 588 q 191 403 181 440 q 219 344 202 367 q 254 313 236 322 q 268 307 263 308 q 279 303 273 305 q 285 184 273 213 q 322 156 297 155 q 354 182 342 157 q 368 292 366 208 q 406 295 385 292 q 444 301 427 299 q 448 177 442 217 q 464 126 453 138 q 492 114 475 114 q 523 130 512 114 q 533 190 533 145 q 521 321 533 234 q 544 327 533 325 q 571 329 556 329 q 643 287 618 329 q 668 192 668 245 q 647 100 668 140 q 590 35 626 61 q 505 -4 553 9 q 403 -17 457 -17 m 506 889 q 517 819 512 853 q 522 750 522 785 q 515 716 524 728 q 488 697 506 703 q 453 702 469 692 q 429 736 438 711 q 411 801 420 767 q 394 868 403 834 q 403 919 388 901 q 442 940 419 938 q 482 930 463 942 q 506 889 501 918 m 229 954 q 257 920 243 938 q 283 881 270 903 q 295 843 296 861 q 281 811 295 825 q 246 795 264 794 q 210 814 228 797 q 172 853 188 835 q 143 888 156 871 q 114 945 117 923 q 131 986 110 967 q 176 994 149 1004 q 229 954 203 983 m 386 458 q 331 481 354 458 q 308 536 308 504 q 331 591 308 569 q 386 614 354 614 q 441 591 419 614 q 464 536 464 569 q 441 481 464 504 q 386 458 419 458 m 596 88 q 598 84 597 85 q 600 81 599 83 q 600 65 606 72 q 583 53 594 57 q 561 48 573 48 q 543 54 549 47 q 540 60 541 58 q 536 65 538 63 q 537 82 531 74 q 553 96 542 91 q 576 100 563 101 q 596 88 589 99 m 425 69 q 426 64 425 67 q 426 57 426 60 q 413 35 428 44 q 379 24 398 26 q 347 29 362 23 q 331 51 332 35 q 330 59 331 56 q 329 67 329 63 q 341 90 328 81 q 371 100 354 98 q 406 94 390 101 q 425 69 423 88 m 450 1030 q 375 1057 400 1030 q 350 1137 350 1084 q 380 1205 350 1180 q 458 1230 410 1230 q 523 1203 496 1230 q 550 1123 550 1177 q 522 1058 550 1085 q 450 1030 494 1030 z "},"ċ":{"ha":714,"x_min":56,"x_max":682,"o":"m 403 -17 q 225 31 303 -17 q 101 180 147 78 q 56 442 56 281 q 111 733 56 611 q 263 922 167 856 q 478 988 358 988 q 580 973 533 988 q 654 934 626 959 q 682 878 682 909 q 670 845 682 855 q 642 835 658 835 q 615 840 626 835 q 594 850 603 845 q 586 855 590 853 q 579 858 583 856 q 572 862 575 860 q 560 867 566 865 q 550 871 555 869 q 540 874 545 873 q 524 878 532 876 q 508 881 516 880 q 496 881 503 881 q 483 882 490 881 q 468 882 476 882 q 457 882 463 882 q 445 881 451 881 q 433 880 439 881 q 298 814 354 870 q 211 673 241 758 q 181 489 181 588 q 191 403 181 440 q 219 344 202 367 q 254 313 236 322 q 268 307 263 308 q 279 303 273 305 q 285 184 273 213 q 322 156 297 155 q 354 182 342 157 q 368 292 366 208 q 406 295 385 292 q 444 301 427 299 q 448 177 442 217 q 464 126 453 138 q 492 114 475 114 q 523 130 512 114 q 533 190 533 145 q 521 321 533 234 q 544 327 533 325 q 571 329 556 329 q 643 287 618 329 q 668 192 668 245 q 647 100 668 140 q 590 35 626 61 q 505 -4 553 9 q 403 -17 457 -17 m 506 889 q 517 819 512 853 q 522 750 522 785 q 515 716 524 728 q 488 697 506 703 q 453 702 469 692 q 429 736 438 711 q 411 801 420 767 q 394 868 403 834 q 403 919 388 901 q 442 940 419 938 q 482 930 463 942 q 506 889 501 918 m 229 954 q 257 920 243 938 q 283 881 270 903 q 295 843 296 861 q 281 811 295 825 q 246 795 264 794 q 210 814 228 797 q 172 853 188 835 q 143 888 156 871 q 114 945 117 923 q 131 986 110 967 q 176 994 149 1004 q 229 954 203 983 m 386 458 q 331 481 354 458 q 308 536 308 504 q 331 591 308 569 q 386 614 354 614 q 441 591 419 614 q 464 536 464 569 q 441 481 464 504 q 386 458 419 458 m 596 88 q 598 84 597 85 q 600 81 599 83 q 600 65 606 72 q 583 53 594 57 q 561 48 573 48 q 543 54 549 47 q 540 60 541 58 q 536 65 538 63 q 537 82 531 74 q 553 96 542 91 q 576 100 563 101 q 596 88 589 99 m 425 69 q 426 64 425 67 q 426 57 426 60 q 413 35 428 44 q 379 24 398 26 q 347 29 362 23 q 331 51 332 35 q 330 59 331 56 q 329 67 329 63 q 341 90 328 81 q 371 100 354 98 q 406 94 390 101 q 425 69 423 88 m 450 1030 q 375 1057 400 1030 q 350 1137 350 1084 q 380 1205 350 1180 q 458 1230 410 1230 q 523 1203 496 1230 q 550 1123 550 1177 q 522 1058 550 1085 q 450 1030 494 1030 z "},"D":{"ha":861,"x_min":-6,"x_max":797,"o":"m 151 110 q 150 137 151 124 q 147 164 149 151 q 146 181 147 172 q 144 197 145 189 q 143 214 144 206 q 143 229 143 222 q 142 244 142 237 q 140 258 141 251 q 137 304 138 281 q 133 350 135 327 q 133 371 133 360 q 131 392 132 381 q 130 407 130 399 q 129 421 129 414 q 128 436 128 428 q 116 637 122 536 q 104 838 110 738 q 118 913 102 881 q 177 963 134 945 q 297 981 219 981 q 572 926 460 981 q 740 758 683 872 q 797 467 797 644 q 743 214 797 322 q 587 46 690 106 q 336 -14 484 -14 q 233 -5 272 -14 q 175 30 194 3 q 151 110 156 56 m 254 278 q 274 224 256 238 q 326 210 292 210 q 436 247 386 210 q 524 344 487 284 q 582 475 561 404 q 603 611 603 545 q 583 722 603 673 q 528 806 564 771 q 445 859 493 841 q 342 878 398 878 q 259 850 281 878 q 238 765 237 823 q 244 522 240 644 q 254 278 248 400 m 617 183 q 661 200 646 183 q 676 238 676 216 q 659 287 676 268 q 613 306 641 306 q 570 288 587 306 q 554 242 554 270 q 572 199 554 215 q 617 183 589 183 m 472 76 q 512 91 499 76 q 525 125 525 106 q 512 163 525 149 q 483 176 499 176 q 439 163 452 176 q 425 132 425 150 q 438 91 425 106 q 472 76 451 76 m 693 358 q 726 372 715 358 q 738 410 738 385 q 726 445 738 432 q 683 458 714 458 q 651 447 665 458 q 638 413 638 435 q 650 371 638 383 q 693 358 663 358 m 86 785 q 194 781 136 784 q 285 774 251 777 q 359 759 340 769 q 378 726 378 749 q 358 693 378 703 q 292 682 338 684 q 226 681 263 681 q 151 682 188 681 q 88 683 115 683 q 17 697 40 685 q -6 735 -6 709 q 19 775 -6 763 q 86 785 44 786 m 74 586 q 181 600 121 592 q 283 610 241 607 q 358 603 335 614 q 381 565 381 592 q 359 527 381 540 q 289 510 338 514 q 191 502 251 506 q 82 496 131 498 q 20 505 38 494 q 1 536 1 515 q 19 569 1 557 q 74 586 36 581 m 322 90 q 334 80 328 86 q 343 69 340 74 q 350 58 348 63 q 352 47 352 52 q 340 20 352 31 q 312 8 328 10 q 283 18 296 7 q 275 26 279 22 q 268 36 272 31 q 262 48 264 42 q 260 59 260 54 q 281 93 260 82 q 322 90 302 105 z "},"d":{"ha":861,"x_min":-6,"x_max":797,"o":"m 151 110 q 150 137 151 124 q 147 164 149 151 q 146 181 147 172 q 144 197 145 189 q 143 214 144 206 q 143 229 143 222 q 142 244 142 237 q 140 258 141 251 q 137 304 138 281 q 133 350 135 327 q 133 371 133 360 q 131 392 132 381 q 130 407 130 399 q 129 421 129 414 q 128 436 128 428 q 116 637 122 536 q 104 838 110 738 q 118 913 102 881 q 177 963 134 945 q 297 981 219 981 q 572 926 460 981 q 740 758 683 872 q 797 467 797 644 q 743 214 797 322 q 587 46 690 106 q 336 -14 484 -14 q 233 -5 272 -14 q 175 30 194 3 q 151 110 156 56 m 254 278 q 274 224 256 238 q 326 210 292 210 q 436 247 386 210 q 524 344 487 284 q 582 475 561 404 q 603 611 603 545 q 583 722 603 673 q 528 806 564 771 q 445 859 493 841 q 342 878 398 878 q 259 850 281 878 q 238 765 237 823 q 244 522 240 644 q 254 278 248 400 m 617 183 q 661 200 646 183 q 676 238 676 216 q 659 287 676 268 q 613 306 641 306 q 570 288 587 306 q 554 242 554 270 q 572 199 554 215 q 617 183 589 183 m 472 76 q 512 91 499 76 q 525 125 525 106 q 512 163 525 149 q 483 176 499 176 q 439 163 452 176 q 425 132 425 150 q 438 91 425 106 q 472 76 451 76 m 693 358 q 726 372 715 358 q 738 410 738 385 q 726 445 738 432 q 683 458 714 458 q 651 447 665 458 q 638 413 638 435 q 650 371 638 383 q 693 358 663 358 m 86 785 q 194 781 136 784 q 285 774 251 777 q 359 759 340 769 q 378 726 378 749 q 358 693 378 703 q 292 682 338 684 q 226 681 263 681 q 151 682 188 681 q 88 683 115 683 q 17 697 40 685 q -6 735 -6 709 q 19 775 -6 763 q 86 785 44 786 m 74 586 q 181 600 121 592 q 283 610 241 607 q 358 603 335 614 q 381 565 381 592 q 359 527 381 540 q 289 510 338 514 q 191 502 251 506 q 82 496 131 498 q 20 505 38 494 q 1 536 1 515 q 19 569 1 557 q 74 586 36 581 m 322 90 q 334 80 328 86 q 343 69 340 74 q 350 58 348 63 q 352 47 352 52 q 340 20 352 31 q 312 8 328 10 q 283 18 296 7 q 275 26 279 22 q 268 36 272 31 q 262 48 264 42 q 260 59 260 54 q 281 93 260 82 q 322 90 302 105 z "},"Ǆ":{"ha":1544,"x_min":-6,"x_max":1544,"o":"m 151 110 q 150 137 151 124 q 147 164 149 151 q 146 181 147 172 q 144 197 145 189 q 143 214 144 206 q 143 229 143 222 q 142 244 142 237 q 140 258 141 251 q 137 304 138 281 q 133 350 135 327 q 133 371 133 360 q 131 392 132 381 q 130 407 130 399 q 129 421 129 414 q 128 436 128 428 q 116 637 122 536 q 104 838 110 738 q 118 913 102 881 q 177 963 134 945 q 297 981 219 981 q 572 926 460 981 q 740 758 683 872 q 797 467 797 644 q 743 214 797 322 q 587 46 690 106 q 336 -14 484 -14 q 233 -5 272 -14 q 175 30 194 3 q 151 110 156 56 m 254 278 q 274 224 256 238 q 326 210 292 210 q 436 247 386 210 q 524 344 487 284 q 582 475 561 404 q 603 611 603 545 q 583 722 603 673 q 528 806 564 771 q 445 859 493 841 q 342 878 398 878 q 259 850 281 878 q 238 765 237 823 q 244 522 240 644 q 254 278 248 400 m 617 183 q 661 200 646 183 q 676 238 676 216 q 659 287 676 268 q 613 306 641 306 q 570 288 587 306 q 554 242 554 270 q 572 199 554 215 q 617 183 589 183 m 472 76 q 512 91 499 76 q 525 125 525 106 q 512 163 525 149 q 483 176 499 176 q 439 163 452 176 q 425 132 425 150 q 438 91 425 106 q 472 76 451 76 m 693 358 q 726 372 715 358 q 738 410 738 385 q 726 445 738 432 q 683 458 714 458 q 651 447 665 458 q 638 413 638 435 q 650 371 638 383 q 693 358 663 358 m 86 785 q 194 781 136 784 q 285 774 251 777 q 359 759 340 769 q 378 726 378 749 q 358 693 378 703 q 292 682 338 684 q 226 681 263 681 q 151 682 188 681 q 88 683 115 683 q 17 697 40 685 q -6 735 -6 709 q 19 775 -6 763 q 86 785 44 786 m 74 586 q 181 600 121 592 q 283 610 241 607 q 358 603 335 614 q 381 565 381 592 q 359 527 381 540 q 289 510 338 514 q 191 502 251 506 q 82 496 131 498 q 20 505 38 494 q 1 536 1 515 q 19 569 1 557 q 74 586 36 581 m 322 90 q 334 80 328 86 q 343 69 340 74 q 350 58 348 63 q 352 47 352 52 q 340 20 352 31 q 312 8 328 10 q 283 18 296 7 q 275 26 279 22 q 268 36 272 31 q 262 48 264 42 q 260 59 260 54 q 281 93 260 82 q 322 90 302 105 m 872 215 q 997 417 933 317 q 1123 616 1060 517 q 1247 818 1186 716 q 1255 875 1268 853 q 1201 892 1241 897 q 1087 873 1143 885 q 972 856 1031 862 q 889 861 924 851 q 854 917 854 872 q 882 972 854 956 q 958 992 910 989 q 1145 1000 1052 997 q 1332 1004 1238 1003 q 1460 976 1412 1005 q 1526 902 1508 948 q 1531 802 1544 856 q 1474 700 1517 749 q 1465 692 1469 696 q 1457 683 1461 688 q 1361 760 1390 749 q 1313 749 1331 772 q 1315 695 1294 724 q 1397 615 1336 667 q 1369 584 1384 600 q 1339 553 1353 567 q 1256 605 1284 594 q 1211 593 1228 616 q 1213 544 1194 570 q 1276 488 1231 519 q 1170 374 1211 418 q 1102 301 1128 330 q 1056 251 1075 273 q 1015 206 1036 230 q 1006 169 1000 188 q 1042 146 1013 149 q 1223 132 1133 137 q 1406 117 1314 126 q 1477 96 1453 112 q 1501 44 1501 80 q 1489 6 1501 20 q 1450 -14 1476 -9 q 1388 -15 1425 -19 q 1158 13 1277 -3 q 922 46 1039 28 q 877 65 895 50 q 851 104 859 81 q 849 156 844 127 q 872 215 853 185 m 1036 667 q 984 687 1003 667 q 965 740 965 707 q 987 788 965 771 q 1036 804 1008 804 q 1091 789 1073 804 q 1110 747 1110 774 q 1090 687 1110 708 q 1036 667 1069 667 m 1303 -17 q 1302 69 1302 26 q 1303 154 1302 112 q 1317 243 1304 214 q 1364 271 1331 272 q 1408 241 1399 270 q 1415 149 1417 211 q 1412 59 1415 104 q 1406 -32 1409 13 q 1390 -106 1403 -84 q 1349 -128 1377 -128 q 1313 -98 1321 -128 q 1303 -17 1304 -69 m 1083 36 q 1099 86 1091 61 q 1115 136 1106 111 q 1150 202 1133 184 q 1193 214 1167 219 q 1221 185 1218 209 q 1217 121 1224 162 q 1205 63 1212 92 q 1190 4 1198 33 q 1155 -69 1177 -51 q 1106 -81 1133 -87 q 1073 -44 1078 -73 q 1083 36 1069 -15 m 972 933 l 1058 933 q 1047 908 1058 917 q 1015 899 1036 899 q 983 907 994 899 q 972 933 972 915 m 1244 50 q 1244 50 1244 50 q 1244 50 1244 50 q 1244 50 1244 50 q 1244 50 1244 50 q 1244 50 1244 50 q 1244 50 1244 50 q 1244 50 1244 50 q 1244 50 1244 50 m 1306 46 q 1306 46 1306 46 q 1306 46 1306 46 q 1306 46 1306 46 q 1306 46 1306 46 q 1306 46 1306 46 q 1306 46 1306 46 q 1306 46 1306 46 q 1306 46 1306 46 m 1358 1326 q 1406 1344 1383 1344 q 1437 1333 1424 1344 q 1450 1301 1450 1321 q 1426 1247 1450 1273 q 1348 1165 1383 1199 q 1264 1089 1313 1130 q 1192 1061 1232 1061 q 1138 1083 1160 1061 q 1075 1147 1106 1115 q 1017 1214 1044 1178 q 996 1268 996 1242 q 1015 1311 996 1294 q 1058 1327 1035 1327 q 1107 1300 1088 1327 q 1141 1253 1127 1273 q 1167 1218 1154 1233 q 1190 1203 1177 1207 q 1219 1211 1203 1199 q 1282 1263 1244 1229 q 1358 1326 1320 1297 z "}}}
